<svg xmlns="http://www.w3.org/2000/svg" xmlns:xlink="http://www.w3.org/1999/xlink" viewBox="0 0 1126.81 782.59"><defs><style>.cls-1{fill:url(#linear-gradient);}.cls-2{fill:url(#linear-gradient-2);}.cls-3{fill:url(#linear-gradient-3);}.cls-4{fill:url(#linear-gradient-4);}.cls-5{fill:url(#linear-gradient-5);}.cls-6{fill:url(#linear-gradient-6);}.cls-7{fill:url(#linear-gradient-7);}.cls-8{fill:url(#linear-gradient-8);}.cls-9{isolation:isolate;}.cls-10{opacity:0.83;}.cls-11{fill:url(#linear-gradient-9);}.cls-12{fill:url(#linear-gradient-10);}.cls-13{fill:url(#linear-gradient-11);}.cls-14{fill:url(#linear-gradient-12);}.cls-15{fill:url(#linear-gradient-13);}.cls-16{fill:url(#linear-gradient-14);}.cls-17{fill:url(#linear-gradient-15);}.cls-18{fill:url(#linear-gradient-16);}.cls-19{fill:url(#linear-gradient-17);}.cls-20{fill:url(#linear-gradient-18);}.cls-21{fill:url(#linear-gradient-19);}.cls-22{fill:url(#linear-gradient-20);}.cls-23{fill:url(#linear-gradient-21);}.cls-24{fill:url(#linear-gradient-22);}.cls-25{opacity:0.5;}.cls-101,.cls-104,.cls-114,.cls-117,.cls-127,.cls-130,.cls-145,.cls-152,.cls-155,.cls-156,.cls-25,.cls-33,.cls-34,.cls-35,.cls-36,.cls-37,.cls-38,.cls-39,.cls-40,.cls-41,.cls-43,.cls-44,.cls-45,.cls-46,.cls-47,.cls-53,.cls-58,.cls-63,.cls-69,.cls-74,.cls-79,.cls-84,.cls-89{mix-blend-mode:color-dodge;}.cls-26{fill:url(#Radial_Gradient_1);}.cls-27{fill:#231f20;}.cls-28{fill:url(#radial-gradient);}.cls-29{fill:#f1f2f2;}.cls-30{fill:url(#radial-gradient-2);}.cls-31{fill:url(#radial-gradient-3);}.cls-32{fill:url(#New_Gradient_Swatch_copy_4);}.cls-33{fill:url(#radial-gradient-4);}.cls-34{fill:url(#radial-gradient-5);}.cls-35{fill:url(#radial-gradient-6);}.cls-36{fill:url(#radial-gradient-7);}.cls-37,.cls-38,.cls-39,.cls-40,.cls-41{fill:#1b75bc;}.cls-37,.cls-42{opacity:0.8;}.cls-131,.cls-38{opacity:0.6;}.cls-39{opacity:0.4;}.cls-40{opacity:0.25;}.cls-41{opacity:0.15;}.cls-43{fill:url(#Radial_Gradient_1-2);}.cls-44{fill:url(#Radial_Gradient_1-3);}.cls-45{fill:url(#Radial_Gradient_1-4);}.cls-46{fill:url(#Radial_Gradient_1-5);}.cls-47{fill:url(#Radial_Gradient_1-6);}.cls-48{mask:url(#mask);}.cls-49{opacity:0.95;}.cls-50{fill:url(#linear-gradient-23);}.cls-51{fill:url(#linear-gradient-24);}.cls-52{fill:url(#linear-gradient-25);}.cls-53{fill:url(#Radial_Gradient_1-7);}.cls-54{mask:url(#mask-2);}.cls-55{fill:url(#linear-gradient-26);}.cls-56{fill:url(#linear-gradient-27);}.cls-57{fill:url(#linear-gradient-28);}.cls-58{fill:url(#Radial_Gradient_1-8);}.cls-59{mask:url(#mask-3);}.cls-60{fill:url(#linear-gradient-29);}.cls-61{fill:url(#linear-gradient-30);}.cls-62{fill:url(#linear-gradient-31);}.cls-63{fill:url(#Radial_Gradient_1-9);}.cls-64{mask:url(#mask-4);}.cls-65{fill:url(#linear-gradient-32);}.cls-66{fill:url(#linear-gradient-33);}.cls-67{fill:url(#linear-gradient-34);}.cls-68{fill:url(#linear-gradient-35);}.cls-69{fill:url(#Radial_Gradient_1-10);}.cls-70{mask:url(#mask-5);}.cls-71{fill:url(#linear-gradient-36);}.cls-72{fill:url(#linear-gradient-37);}.cls-73{fill:url(#linear-gradient-38);}.cls-74{fill:url(#Radial_Gradient_1-11);}.cls-75{mask:url(#mask-6);}.cls-76,.cls-81,.cls-86{opacity:0.9;}.cls-76{fill:url(#linear-gradient-39);}.cls-77,.cls-82,.cls-87{opacity:0.7;}.cls-110,.cls-112,.cls-123,.cls-125,.cls-77,.cls-82,.cls-87,.cls-97,.cls-99{mix-blend-mode:screen;}.cls-77{fill:url(#linear-gradient-40);}.cls-78{fill:url(#linear-gradient-41);}.cls-79{fill:url(#Radial_Gradient_1-12);}.cls-80{mask:url(#mask-7);}.cls-81{fill:url(#linear-gradient-42);}.cls-82{fill:url(#linear-gradient-43);}.cls-83{fill:url(#linear-gradient-44);}.cls-84{fill:url(#Radial_Gradient_1-13);}.cls-85{mask:url(#mask-8);}.cls-86{fill:url(#linear-gradient-45);}.cls-87{fill:url(#linear-gradient-46);}.cls-88{fill:url(#linear-gradient-47);}.cls-89{fill:url(#Radial_Gradient_1-14);}.cls-90{fill:url(#linear-gradient-48);}.cls-100,.cls-102,.cls-113,.cls-115,.cls-126,.cls-128,.cls-132,.cls-133,.cls-134,.cls-135,.cls-136,.cls-137,.cls-138,.cls-139,.cls-140,.cls-141,.cls-142,.cls-143,.cls-91{mix-blend-mode:multiply;}.cls-92{fill:url(#linear-gradient-49);}.cls-93{fill:url(#linear-gradient-50);}.cls-94{fill:url(#linear-gradient-51);}.cls-95{fill:#fdd65b;}.cls-96{fill:url(#linear-gradient-52);}.cls-97{fill:url(#White_Black_Radial);}.cls-98{fill:url(#linear-gradient-53);}.cls-99{fill:url(#White_Black_Radial-2);}.cls-100{fill:url(#linear-gradient-54);}.cls-101{fill:url(#radial-gradient-8);}.cls-102{fill:url(#linear-gradient-55);}.cls-103{fill:url(#linear-gradient-56);}.cls-104{fill:url(#radial-gradient-9);}.cls-105{fill:url(#linear-gradient-57);}.cls-106{fill:url(#linear-gradient-58);}.cls-107{fill:url(#linear-gradient-59);}.cls-108{fill:url(#linear-gradient-60);}.cls-109{fill:url(#linear-gradient-61);}.cls-110{fill:url(#White_Black_Radial-3);}.cls-111{fill:url(#linear-gradient-62);}.cls-112{fill:url(#White_Black_Radial-4);}.cls-113{fill:url(#linear-gradient-63);}.cls-114{fill:url(#radial-gradient-10);}.cls-115{fill:url(#linear-gradient-64);}.cls-116{fill:url(#linear-gradient-65);}.cls-117{fill:url(#radial-gradient-11);}.cls-118{fill:url(#linear-gradient-66);}.cls-119{fill:url(#linear-gradient-67);}.cls-120{fill:url(#linear-gradient-68);}.cls-121{fill:url(#linear-gradient-69);}.cls-122{fill:url(#linear-gradient-70);}.cls-123{fill:url(#White_Black_Radial-5);}.cls-124{fill:url(#linear-gradient-71);}.cls-125{fill:url(#White_Black_Radial-6);}.cls-126{fill:url(#linear-gradient-72);}.cls-127{fill:url(#radial-gradient-12);}.cls-128{fill:url(#linear-gradient-73);}.cls-129{fill:url(#linear-gradient-74);}.cls-130{fill:url(#radial-gradient-13);}.cls-132{opacity:0.1;fill:url(#linear-gradient-75);}.cls-133{opacity:0.11;fill:url(#linear-gradient-76);}.cls-134{opacity:0.12;fill:url(#linear-gradient-77);}.cls-135{opacity:0.13;fill:url(#linear-gradient-78);}.cls-136{opacity:0.14;fill:url(#linear-gradient-79);}.cls-137{opacity:0.15;fill:url(#linear-gradient-80);}.cls-138{opacity:0.15;fill:url(#linear-gradient-81);}.cls-139{opacity:0.16;fill:url(#linear-gradient-82);}.cls-140{opacity:0.17;fill:url(#linear-gradient-83);}.cls-141{opacity:0.18;fill:url(#linear-gradient-84);}.cls-142{opacity:0.19;fill:url(#linear-gradient-85);}.cls-143{fill:#25054d;opacity:0.2;}.cls-144{fill:url(#New_Gradient_Swatch_copy_8);}.cls-145{fill:url(#radial-gradient-14);}.cls-146{fill:url(#linear-gradient-86);}.cls-147{fill:url(#New_Gradient_Swatch_copy_8-2);}.cls-148{fill:url(#linear-gradient-87);}.cls-149{fill:url(#linear-gradient-88);}.cls-150{fill:url(#New_Gradient_Swatch_copy_8-3);}.cls-151{fill:url(#New_Gradient_Swatch_copy_8-4);}.cls-152{fill:url(#radial-gradient-15);}.cls-153{fill:url(#New_Gradient_Swatch_copy_8-5);}.cls-154{fill:url(#New_Gradient_Swatch_copy_8-6);}.cls-155{fill:url(#radial-gradient-16);}.cls-156{fill:url(#New_Gradient_Swatch_copy);}</style><linearGradient id="linear-gradient" x1="4656.61" y1="2694.71" x2="4656.61" y2="2434.01" gradientTransform="translate(-3846.3 -2078.35)" gradientUnits="userSpaceOnUse"><stop offset="0.56" stop-color="#fff"/><stop offset="0.61" stop-color="#f5f4f5"/><stop offset="0.69" stop-color="#d8d8d9"/><stop offset="0.8" stop-color="#abaaab"/><stop offset="0.92" stop-color="#6c6c6d"/><stop offset="1" stop-color="#414042"/></linearGradient><linearGradient id="linear-gradient-2" x1="4695.43" y1="2621.18" x2="4695.43" y2="2409.5" gradientTransform="translate(-3923.96 -1981.22)" xlink:href="#linear-gradient"/><linearGradient id="linear-gradient-3" x1="4735.16" y1="2600.23" x2="4735.16" y2="2388.55" gradientTransform="translate(-4003.41 -1939.32)" xlink:href="#linear-gradient"/><linearGradient id="linear-gradient-4" x1="4774.39" y1="2575.76" x2="4774.39" y2="2364.08" gradientTransform="translate(-4081.87 -1890.39)" xlink:href="#linear-gradient"/><linearGradient id="linear-gradient-5" x1="4813.73" y1="2553.37" x2="4813.73" y2="2341.69" gradientTransform="translate(-4160.56 -1845.59)" xlink:href="#linear-gradient"/><linearGradient id="linear-gradient-6" x1="7290.23" y1="2640.15" x2="7290.23" y2="2400.06" gradientTransform="translate(-6423.97 -1990.22)" xlink:href="#linear-gradient"/><linearGradient id="linear-gradient-7" x1="7333.59" y1="2614.81" x2="7333.59" y2="2374.72" gradientTransform="translate(-6510.67 -1939.54)" xlink:href="#linear-gradient"/><linearGradient id="linear-gradient-8" x1="7377.4" y1="2587.92" x2="7377.4" y2="2347.83" gradientTransform="translate(-6598.3 -1885.76)" xlink:href="#linear-gradient"/><linearGradient id="linear-gradient-9" x1="388.94" y1="443.85" x2="568.16" y2="623.63" gradientUnits="userSpaceOnUse"><stop offset="0" stop-color="#1e4356"/><stop offset="1" stop-color="#055"/></linearGradient><linearGradient id="linear-gradient-10" x1="459.35" y1="527.27" x2="420.06" y2="595.31" xlink:href="#linear-gradient-9"/><linearGradient id="linear-gradient-11" x1="209.35" y1="592.95" x2="387.43" y2="770.47" xlink:href="#linear-gradient-9"/><linearGradient id="linear-gradient-12" x1="394.58" y1="576" x2="336.98" y2="675.76" xlink:href="#linear-gradient-9"/><linearGradient id="linear-gradient-13" x1="199.53" y1="710.61" x2="473.33" y2="756.48" xlink:href="#linear-gradient-9"/><linearGradient id="linear-gradient-14" x1="275.61" y1="484.92" x2="534.54" y2="741.02" xlink:href="#linear-gradient-9"/><linearGradient id="linear-gradient-15" x1="615.19" y1="276.79" x2="542.83" y2="519.89" xlink:href="#linear-gradient-9"/><linearGradient id="linear-gradient-16" x1="552.02" y1="480.65" x2="733.5" y2="292.96" xlink:href="#linear-gradient-9"/><linearGradient id="linear-gradient-17" x1="760.78" y1="166.85" x2="926.4" y2="58.7" xlink:href="#linear-gradient-9"/><linearGradient id="linear-gradient-18" x1="591.9" y1="527.39" x2="1106.37" y2="675.51" xlink:href="#linear-gradient-9"/><linearGradient id="linear-gradient-19" x1="557.05" y1="70.27" x2="875.91" y2="367.64" xlink:href="#linear-gradient-9"/><linearGradient id="linear-gradient-20" x1="431.85" y1="163.98" x2="626.04" y2="492.88" gradientTransform="translate(236.58 -221.65) rotate(30.31)" gradientUnits="userSpaceOnUse"><stop offset="0.06" stop-color="#0e313f"/><stop offset="0.25" stop-color="#103341"/><stop offset="0.34" stop-color="#153949"/><stop offset="0.42" stop-color="#1e4356"/><stop offset="0.47" stop-color="#21475a"/><stop offset="0.52" stop-color="#2a5268"/><stop offset="0.58" stop-color="#38667d"/><stop offset="0.63" stop-color="#4d819c"/><stop offset="0.69" stop-color="#67a3c3"/><stop offset="0.69" stop-color="#68a4c4"/><stop offset="0.71" stop-color="#5287a3"/><stop offset="0.74" stop-color="#3c6a82"/><stop offset="0.77" stop-color="#2b546a"/><stop offset="0.79" stop-color="#21475b"/><stop offset="0.81" stop-color="#1e4356"/><stop offset="0.83" stop-color="#1c4053"/><stop offset="0.92" stop-color="#123544"/><stop offset="1" stop-color="#0e313f"/></linearGradient><linearGradient id="linear-gradient-21" x1="461.26" y1="213.8" x2="595.7" y2="441.5" gradientTransform="translate(236.58 -221.65) rotate(30.31)" gradientUnits="userSpaceOnUse"><stop offset="0.06" stop-color="#200041"/><stop offset="0.23" stop-color="#210243"/><stop offset="0.32" stop-color="#25084b"/><stop offset="0.39" stop-color="#2c1358"/><stop offset="0.42" stop-color="#311b61"/><stop offset="0.47" stop-color="#351f65"/><stop offset="0.53" stop-color="#422c73"/><stop offset="0.6" stop-color="#584188"/><stop offset="0.66" stop-color="#765fa7"/><stop offset="0.69" stop-color="#8770b8"/><stop offset="0.7" stop-color="#7e67ae"/><stop offset="0.73" stop-color="#5c468d"/><stop offset="0.76" stop-color="#442e75"/><stop offset="0.79" stop-color="#362066"/><stop offset="0.81" stop-color="#311b61"/><stop offset="0.86" stop-color="#2a1155"/><stop offset="0.94" stop-color="#230446"/><stop offset="1" stop-color="#200041"/></linearGradient><linearGradient id="linear-gradient-22" x1="-33.15" y1="2202.44" x2="273.57" y2="2202.44" gradientTransform="matrix(0.87, 0.5, 0, 1.15, 411.75, -2270.61)" gradientUnits="userSpaceOnUse"><stop offset="0" stop-color="#311b61"/><stop offset="0.2" stop-color="#290f52"/><stop offset="0.49" stop-color="#200041"/><stop offset="1" stop-color="#0f001f"/></linearGradient><radialGradient id="Radial_Gradient_1" cx="571.02" cy="246.14" r="73.6" gradientUnits="userSpaceOnUse"><stop offset="0" stop-color="#fff"/><stop offset="1"/></radialGradient><radialGradient id="radial-gradient" cx="515.85" cy="-2402.9" r="145.95" gradientTransform="matrix(0.86, 0.5, -0.76, 1.29, -1748.56, 3183.94)" gradientUnits="userSpaceOnUse"><stop offset="0" stop-color="#68a4c4"/><stop offset="0.41" stop-color="#00a79d"/><stop offset="0.5" stop-color="#059892"/><stop offset="0.66" stop-color="#116f76"/><stop offset="0.82" stop-color="#1e4356"/><stop offset="0.86" stop-color="#1e4b65"/><stop offset="0.93" stop-color="#1c5e8e"/><stop offset="1" stop-color="#1b75bc"/></radialGradient><radialGradient id="radial-gradient-2" cx="515.85" cy="-2402.9" r="104.25" gradientTransform="translate(-1748.55 3183.95) rotate(30.31) scale(1 1.5)" xlink:href="#radial-gradient"/><radialGradient id="radial-gradient-3" cx="515.85" cy="-2402.9" r="62.55" xlink:href="#radial-gradient"/><linearGradient id="New_Gradient_Swatch_copy_4" x1="486.89" y1="350.98" x2="529.75" y2="323.86" gradientTransform="translate(238.4 -214.87) rotate(30.31)" gradientUnits="userSpaceOnUse"><stop offset="0.04" stop-color="#00a79d"/><stop offset="0.23" stop-color="#0fa7a3"/><stop offset="0.61" stop-color="#38a5b2"/><stop offset="1" stop-color="#68a4c4"/></linearGradient><radialGradient id="radial-gradient-4" cx="531.49" cy="-2406.39" r="136.37" gradientTransform="translate(0 3937) scale(1 1.5)" gradientUnits="userSpaceOnUse"><stop offset="0" stop-color="#fff"/><stop offset="0.07" stop-color="#d8d8d8"/><stop offset="0.16" stop-color="#a6a6a6"/><stop offset="0.26" stop-color="#797979"/><stop offset="0.37" stop-color="#545454"/><stop offset="0.47" stop-color="#353535"/><stop offset="0.59" stop-color="#1e1e1e"/><stop offset="0.7" stop-color="#0d0d0d"/><stop offset="0.84" stop-color="#030303"/><stop offset="1"/></radialGradient><radialGradient id="radial-gradient-5" cx="526.79" cy="-2405.36" r="97.54" xlink:href="#radial-gradient-4"/><radialGradient id="radial-gradient-6" cx="522.08" cy="-2404.32" r="58.71" xlink:href="#radial-gradient-4"/><radialGradient id="radial-gradient-7" cx="517.61" cy="332.18" r="19.83" gradientTransform="matrix(1, 0, 0, 1, 0, 0)" xlink:href="#radial-gradient-4"/><radialGradient id="Radial_Gradient_1-2" cx="500.03" cy="641.71" r="46.48" xlink:href="#Radial_Gradient_1"/><radialGradient id="Radial_Gradient_1-3" cx="593.13" cy="543.46" r="60.44" xlink:href="#Radial_Gradient_1"/><radialGradient id="Radial_Gradient_1-4" cx="415.49" cy="720.76" r="52.55" xlink:href="#Radial_Gradient_1"/><radialGradient id="Radial_Gradient_1-5" cx="751.68" cy="409.16" r="58.99" xlink:href="#Radial_Gradient_1"/><radialGradient id="Radial_Gradient_1-6" cx="794.12" cy="146.07" r="123.62" xlink:href="#Radial_Gradient_1"/><mask id="mask" x="761.87" y="340.27" width="96.86" height="286.61" maskUnits="userSpaceOnUse"><rect class="cls-1" x="761.87" y="340.27" width="96.86" height="286.61" transform="translate(1620.6 967.15) rotate(180)"/></mask><linearGradient id="linear-gradient-23" x1="3518.61" y1="351.1" x2="3495.98" y2="390.28" gradientTransform="translate(-2689.59)" gradientUnits="userSpaceOnUse"><stop offset="0" stop-color="#1e4356"/><stop offset="1" stop-color="#1b75bc"/></linearGradient><linearGradient id="linear-gradient-24" x1="3504.58" y1="496.1" x2="3704.93" y2="480.74" xlink:href="#linear-gradient-23"/><linearGradient id="linear-gradient-25" x1="3426.9" y1="484.54" x2="3548.45" y2="504.9" xlink:href="#linear-gradient-23"/><radialGradient id="Radial_Gradient_1-7" cx="3481.12" cy="435.07" r="85.32" gradientTransform="translate(-2689.59)" xlink:href="#Radial_Gradient_1"/><mask id="mask-2" x="723.04" y="415.78" width="96.86" height="232.72" maskUnits="userSpaceOnUse"><rect class="cls-2" x="723.04" y="415.78" width="96.86" height="232.72" transform="translate(1542.95 1064.28) rotate(180)"/></mask><linearGradient id="linear-gradient-26" x1="3479.78" y1="417.6" x2="3457.16" y2="456.79" xlink:href="#linear-gradient-23"/><linearGradient id="linear-gradient-27" x1="3466.72" y1="540.09" x2="3651.81" y2="525.9" xlink:href="#linear-gradient-23"/><linearGradient id="linear-gradient-28" x1="3395.21" y1="529.79" x2="3503.04" y2="547.86" xlink:href="#linear-gradient-23"/><radialGradient id="Radial_Gradient_1-8" cx="3442.29" cy="490.54" r="70.41" gradientTransform="translate(-2689.59)" xlink:href="#Radial_Gradient_1"/><mask id="mask-3" x="683.32" y="436.73" width="96.86" height="232.72" maskUnits="userSpaceOnUse"><rect class="cls-3" x="683.32" y="436.73" width="96.86" height="232.72" transform="translate(1463.5 1106.18) rotate(180)"/></mask><linearGradient id="linear-gradient-29" x1="3440.06" y1="486.6" x2="3417.43" y2="525.78" xlink:href="#linear-gradient-23"/><linearGradient id="linear-gradient-30" x1="3428.02" y1="584.98" x2="3596.79" y2="572.04" xlink:href="#linear-gradient-23"/><linearGradient id="linear-gradient-31" x1="3363.12" y1="576.05" x2="3456.28" y2="591.66" xlink:href="#linear-gradient-23"/><radialGradient id="Radial_Gradient_1-9" cx="3402.56" cy="547.72" r="54.88" gradientTransform="translate(-2689.59)" xlink:href="#Radial_Gradient_1"/><mask id="mask-4" x="644.09" y="461.2" width="96.86" height="232.72" maskUnits="userSpaceOnUse"><rect class="cls-4" x="644.09" y="461.2" width="96.86" height="232.72" transform="translate(1385.04 1155.11) rotate(180)"/></mask><linearGradient id="linear-gradient-32" x1="3400.82" y1="562.14" x2="3378.2" y2="601.33" xlink:href="#linear-gradient-23"/><linearGradient id="linear-gradient-33" x1="3400.82" y1="638.23" x2="3378.2" y2="677.42" xlink:href="#linear-gradient-23"/><linearGradient id="linear-gradient-34" x1="3389.89" y1="634.91" x2="3541.29" y2="623.3" xlink:href="#linear-gradient-23"/><linearGradient id="linear-gradient-35" x1="3332" y1="627.41" x2="3409.57" y2="640.41" xlink:href="#linear-gradient-23"/><radialGradient id="Radial_Gradient_1-10" cx="3363.33" cy="610.71" r="39.44" gradientTransform="translate(-2689.59)" xlink:href="#Radial_Gradient_1"/><mask id="mask-5" x="604.74" y="483.59" width="96.86" height="232.72" maskUnits="userSpaceOnUse"><rect class="cls-5" x="604.74" y="483.59" width="96.86" height="232.72" transform="translate(1306.35 1199.91) rotate(180)"/></mask><linearGradient id="linear-gradient-36" x1="3361.48" y1="620.4" x2="3338.86" y2="659.58" xlink:href="#linear-gradient-23"/><linearGradient id="linear-gradient-37" x1="3351.31" y1="675.17" x2="3490.53" y2="664.5" xlink:href="#linear-gradient-23"/><linearGradient id="linear-gradient-38" x1="3298.35" y1="668.69" x2="3364.97" y2="679.86" xlink:href="#linear-gradient-23"/><radialGradient id="Radial_Gradient_1-11" cx="3323.99" cy="660.15" r="30.16" gradientTransform="translate(-2689.59)" xlink:href="#Radial_Gradient_1"/><mask id="mask-6" x="831.02" y="395.66" width="70.48" height="263.95" maskUnits="userSpaceOnUse"><rect class="cls-6" x="831.02" y="395.66" width="70.48" height="263.95" transform="translate(1732.53 1055.28) rotate(180)"/></mask><linearGradient id="linear-gradient-39" x1="844.47" y1="581.72" x2="887.79" y2="581.72" gradientUnits="userSpaceOnUse"><stop offset="0" stop-color="#68a4c4"/><stop offset="0.27" stop-color="#1b75bc"/><stop offset="0.35" stop-color="#1c6499"/><stop offset="0.46" stop-color="#1d5275"/><stop offset="0.54" stop-color="#1e475e"/><stop offset="0.59" stop-color="#1e4356"/><stop offset="0.64" stop-color="#1e475e"/><stop offset="0.72" stop-color="#1d5173"/><stop offset="0.81" stop-color="#1c6295"/><stop offset="0.9" stop-color="#1b75bc"/><stop offset="1" stop-color="#1e4356"/></linearGradient><linearGradient id="linear-gradient-40" x1="866.27" y1="522.14" x2="866.27" y2="604.12" gradientUnits="userSpaceOnUse"><stop offset="0" stop-color="#e2953f"/><stop offset="0.08" stop-color="#bd7c35"/><stop offset="0.21" stop-color="#8b5c27"/><stop offset="0.34" stop-color="#60401b"/><stop offset="0.46" stop-color="#3e2911"/><stop offset="0.59" stop-color="#23170a"/><stop offset="0.73" stop-color="#0f0a04"/><stop offset="0.86" stop-color="#040201"/><stop offset="1"/></linearGradient><linearGradient id="linear-gradient-41" x1="878.67" y1="488.47" x2="858.5" y2="521.65" gradientTransform="matrix(1, 0, 0, 1, 0, 0)" xlink:href="#linear-gradient-23"/><radialGradient id="Radial_Gradient_1-12" cx="866.27" cy="516.19" r="16.28" xlink:href="#Radial_Gradient_1"/><mask id="mask-7" x="787.67" y="421" width="70.48" height="263.95" maskUnits="userSpaceOnUse"><rect class="cls-7" x="787.67" y="421" width="70.48" height="263.95" transform="translate(1645.83 1105.96) rotate(180)"/></mask><linearGradient id="linear-gradient-42" x1="801.12" y1="626.58" x2="844.43" y2="626.58" xlink:href="#linear-gradient-39"/><linearGradient id="linear-gradient-43" x1="822.91" y1="585.2" x2="822.91" y2="658.35" xlink:href="#linear-gradient-40"/><linearGradient id="linear-gradient-44" x1="835.31" y1="552.84" x2="815.14" y2="586.03" gradientTransform="matrix(1, 0, 0, 1, 0, 0)" xlink:href="#linear-gradient-23"/><radialGradient id="Radial_Gradient_1-13" cx="822.91" cy="580.57" r="16.28" xlink:href="#Radial_Gradient_1"/><mask id="mask-8" x="743.86" y="447.89" width="70.49" height="263.95" maskUnits="userSpaceOnUse"><rect class="cls-8" x="743.86" y="447.89" width="70.49" height="263.95" transform="translate(1558.2 1159.74) rotate(180)"/></mask><linearGradient id="linear-gradient-45" x1="757.31" y1="672.99" x2="800.62" y2="672.99" xlink:href="#linear-gradient-39"/><linearGradient id="linear-gradient-46" x1="779.1" y1="650.78" x2="779.1" y2="701.24" xlink:href="#linear-gradient-40"/><linearGradient id="linear-gradient-47" x1="791.5" y1="618.78" x2="771.33" y2="651.96" gradientTransform="matrix(1, 0, 0, 1, 0, 0)" xlink:href="#linear-gradient-23"/><radialGradient id="Radial_Gradient_1-14" cx="779.1" cy="646.51" r="16.28" xlink:href="#Radial_Gradient_1"/><linearGradient id="linear-gradient-48" x1="844.45" y1="514.13" x2="887.75" y2="514.13" gradientUnits="userSpaceOnUse"><stop offset="0" stop-color="#ffbb96"/><stop offset="0.23" stop-color="#fffbc9"/><stop offset="0.54" stop-color="#f9b673"/><stop offset="0.64" stop-color="#f9b876"/><stop offset="0.72" stop-color="#fabe81"/><stop offset="0.81" stop-color="#fcc993"/><stop offset="0.86" stop-color="#fed2a3"/><stop offset="0.97" stop-color="#ffc28c"/></linearGradient><linearGradient id="linear-gradient-49" x1="844.24" y1="510" x2="844.25" y2="510" xlink:href="#linear-gradient-48"/><linearGradient id="linear-gradient-50" x1="844.45" y1="516.64" x2="887.75" y2="516.64" xlink:href="#linear-gradient-48"/><linearGradient id="linear-gradient-51" x1="888.23" y1="510" x2="888.24" y2="510" xlink:href="#linear-gradient-48"/><linearGradient id="linear-gradient-52" x1="906.89" y1="463.71" x2="863.86" y2="507.02" gradientUnits="userSpaceOnUse"><stop offset="0.04" stop-color="#ffba78"/><stop offset="0.4" stop-color="#ffc987"/><stop offset="1" stop-color="#feeca8"/></linearGradient><radialGradient id="White_Black_Radial" cx="856.78" cy="514.04" r="27.65" xlink:href="#Radial_Gradient_1"/><linearGradient id="linear-gradient-53" x1="883.92" y1="486.83" x2="851.75" y2="519.2" xlink:href="#linear-gradient-52"/><radialGradient id="White_Black_Radial-2" cx="873.98" cy="494.13" r="12.16" xlink:href="#Radial_Gradient_1"/><linearGradient id="linear-gradient-54" x1="889.84" y1="479.82" x2="859.48" y2="510.37" xlink:href="#linear-gradient-48"/><radialGradient id="radial-gradient-8" cx="10850.5" cy="-9365.78" r="31.23" gradientTransform="matrix(0.04, -0.35, 0.24, 0.03, 2736.83, 4575.53)" gradientUnits="userSpaceOnUse"><stop offset="0" stop-color="#f49587"/><stop offset="0.12" stop-color="#bd7368"/><stop offset="0.24" stop-color="#8b554d"/><stop offset="0.36" stop-color="#603b35"/><stop offset="0.48" stop-color="#3e2622"/><stop offset="0.61" stop-color="#231513"/><stop offset="0.74" stop-color="#0f0908"/><stop offset="0.86" stop-color="#040202"/><stop offset="1"/></radialGradient><linearGradient id="linear-gradient-55" x1="854.68" y1="504.88" x2="878.52" y2="504.88" xlink:href="#linear-gradient-48"/><linearGradient id="linear-gradient-56" x1="842.48" y1="524.12" x2="870.24" y2="500.22" xlink:href="#linear-gradient-52"/><radialGradient id="radial-gradient-9" cx="870.96" cy="500.27" r="9.74" gradientTransform="matrix(1, 0, 0, 1, 0, 0)" xlink:href="#radial-gradient-8"/><linearGradient id="linear-gradient-57" x1="801.33" y1="578.08" x2="844.63" y2="578.08" xlink:href="#linear-gradient-48"/><linearGradient id="linear-gradient-58" x1="801.12" y1="573.96" x2="801.13" y2="573.96" xlink:href="#linear-gradient-48"/><linearGradient id="linear-gradient-59" x1="801.33" y1="580.59" x2="844.63" y2="580.59" xlink:href="#linear-gradient-48"/><linearGradient id="linear-gradient-60" x1="845.11" y1="573.96" x2="845.12" y2="573.96" xlink:href="#linear-gradient-48"/><linearGradient id="linear-gradient-61" x1="863.77" y1="527.67" x2="820.74" y2="570.97" xlink:href="#linear-gradient-52"/><radialGradient id="White_Black_Radial-3" cx="813.66" cy="578" r="27.65" xlink:href="#Radial_Gradient_1"/><linearGradient id="linear-gradient-62" x1="840.8" y1="550.78" x2="808.63" y2="583.16" xlink:href="#linear-gradient-52"/><radialGradient id="White_Black_Radial-4" cx="830.86" cy="558.08" r="12.16" xlink:href="#Radial_Gradient_1"/><linearGradient id="linear-gradient-63" x1="846.72" y1="543.77" x2="816.36" y2="574.32" xlink:href="#linear-gradient-48"/><radialGradient id="radial-gradient-10" cx="10657.59" cy="-9512.55" r="31.23" xlink:href="#radial-gradient-8"/><linearGradient id="linear-gradient-64" x1="811.92" y1="569.15" x2="835.77" y2="569.15" xlink:href="#linear-gradient-48"/><linearGradient id="linear-gradient-65" x1="799.73" y1="588.39" x2="827.49" y2="564.49" xlink:href="#linear-gradient-52"/><radialGradient id="radial-gradient-11" cx="828.21" cy="564.53" r="9.74" gradientTransform="matrix(1, 0, 0, 1, 0, 0)" xlink:href="#radial-gradient-8"/><linearGradient id="linear-gradient-66" x1="757.1" y1="644.14" x2="800.4" y2="644.14" xlink:href="#linear-gradient-48"/><linearGradient id="linear-gradient-67" x1="756.89" y1="640.02" x2="756.9" y2="640.02" xlink:href="#linear-gradient-48"/><linearGradient id="linear-gradient-68" x1="757.1" y1="646.65" x2="800.4" y2="646.65" xlink:href="#linear-gradient-48"/><linearGradient id="linear-gradient-69" x1="800.88" y1="640.02" x2="800.89" y2="640.02" xlink:href="#linear-gradient-48"/><linearGradient id="linear-gradient-70" x1="819.54" y1="593.72" x2="776.51" y2="637.03" xlink:href="#linear-gradient-52"/><radialGradient id="White_Black_Radial-5" cx="769.43" cy="644.05" r="27.65" xlink:href="#Radial_Gradient_1"/><linearGradient id="linear-gradient-71" x1="796.57" y1="616.84" x2="764.4" y2="649.21" xlink:href="#linear-gradient-52"/><radialGradient id="White_Black_Radial-6" cx="786.63" cy="624.14" r="12.16" xlink:href="#Radial_Gradient_1"/><linearGradient id="linear-gradient-72" x1="802.49" y1="609.83" x2="772.13" y2="640.38" xlink:href="#linear-gradient-48"/><radialGradient id="radial-gradient-12" cx="10458.45" cy="-9662.91" r="31.23" xlink:href="#radial-gradient-8"/><linearGradient id="linear-gradient-73" x1="767.53" y1="634.92" x2="791.38" y2="634.92" xlink:href="#linear-gradient-48"/><linearGradient id="linear-gradient-74" x1="755.33" y1="654.16" x2="783.09" y2="630.26" xlink:href="#linear-gradient-52"/><radialGradient id="radial-gradient-13" cx="783.81" cy="630.3" r="9.74" gradientTransform="matrix(1, 0, 0, 1, 0, 0)" xlink:href="#radial-gradient-8"/><linearGradient id="linear-gradient-75" x1="6137.93" y1="-692.33" x2="6204.5" y2="-798.13" gradientTransform="matrix(0.56, -0.83, 0.83, 0.56, -2342.97, 5877.85)" gradientUnits="userSpaceOnUse"><stop offset="0" stop-color="#fff"/><stop offset="1" stop-color="#8969c3"/></linearGradient><linearGradient id="linear-gradient-76" x1="5726.59" y1="-1044.3" x2="5794.74" y2="-1152.6" gradientTransform="matrix(0.6, -0.75, 0.75, 0.6, -2129.97, 5343.5)" gradientUnits="userSpaceOnUse"><stop offset="0" stop-color="#ebe8ef"/><stop offset="1" stop-color="#8060b8"/></linearGradient><linearGradient id="linear-gradient-77" x1="5230.48" y1="-1345.75" x2="5299.45" y2="-1455.35" gradientTransform="translate(-1916.98 4809.15) rotate(-46.6) scale(0.93)" gradientUnits="userSpaceOnUse"><stop offset="0" stop-color="#d7d2df"/><stop offset="1" stop-color="#7757ae"/></linearGradient><linearGradient id="linear-gradient-78" x1="4657.94" y1="-1570.08" x2="4726.76" y2="-1679.45" gradientTransform="translate(-1703.98 4274.8) rotate(-41.5) scale(0.91)" gradientUnits="userSpaceOnUse"><stop offset="0" stop-color="#c4bbce"/><stop offset="1" stop-color="#6e4ea3"/></linearGradient><linearGradient id="linear-gradient-79" x1="4029.46" y1="-1691.3" x2="4097.03" y2="-1798.69" gradientTransform="translate(-1490.98 3740.45) rotate(-36.17) scale(0.89)" gradientUnits="userSpaceOnUse"><stop offset="0" stop-color="#b0a4be"/><stop offset="1" stop-color="#654598"/></linearGradient><linearGradient id="linear-gradient-80" x1="3370.24" y1="-1693.38" x2="3435.43" y2="-1796.98" gradientTransform="matrix(0.76, -0.45, 0.45, 0.76, -1277.98, 3206.1)" gradientUnits="userSpaceOnUse"><stop offset="0" stop-color="#9c8dae"/><stop offset="1" stop-color="#5c3c8d"/></linearGradient><linearGradient id="linear-gradient-81" x1="2716.15" y1="-1569.03" x2="2777.9" y2="-1667.15" gradientTransform="translate(-1064.99 2671.75) rotate(-25.18) scale(0.88)" gradientUnits="userSpaceOnUse"><stop offset="0" stop-color="#88779e"/><stop offset="1" stop-color="#523283"/></linearGradient><linearGradient id="linear-gradient-82" x1="2103.4" y1="-1324.8" x2="2160.8" y2="-1416.01" gradientTransform="translate(-851.99 2137.4) rotate(-19.71) scale(0.89)" gradientUnits="userSpaceOnUse"><stop offset="0" stop-color="#74608e"/><stop offset="1" stop-color="#492978"/></linearGradient><linearGradient id="linear-gradient-83" x1="1562.45" y1="-979.73" x2="1614.87" y2="-1063.02" gradientTransform="translate(-638.99 1603.05) rotate(-14.39) scale(0.91)" gradientUnits="userSpaceOnUse"><stop offset="0" stop-color="#60497e"/><stop offset="1" stop-color="#40206d"/></linearGradient><linearGradient id="linear-gradient-84" x1="1113.22" y1="-561.23" x2="1160.3" y2="-636.05" gradientTransform="translate(-425.99 1068.7) rotate(-9.29) scale(0.93)" gradientUnits="userSpaceOnUse"><stop offset="0" stop-color="#4d326d"/><stop offset="1" stop-color="#371762"/></linearGradient><linearGradient id="linear-gradient-85" x1="763.86" y1="-99.31" x2="805.55" y2="-165.56" gradientTransform="translate(-213 534.35) rotate(-4.48) scale(0.96)" gradientUnits="userSpaceOnUse"><stop offset="0" stop-color="#391c5d"/><stop offset="1" stop-color="#2e0e58"/></linearGradient><linearGradient id="New_Gradient_Swatch_copy_8" x1="4950.53" y1="-762.72" x2="4949.6" y2="-797.51" gradientTransform="translate(-2636.36 4500.7) rotate(-45)" gradientUnits="userSpaceOnUse"><stop offset="0.04" stop-color="#ffa98c"/><stop offset="0.32" stop-color="#ffb892"/><stop offset="0.86" stop-color="#fee1a3"/><stop offset="1" stop-color="#feeca8"/></linearGradient><radialGradient id="radial-gradient-14" cx="4937.38" cy="-787.15" r="19.74" gradientTransform="translate(-2636.36 4500.7) rotate(-45)" xlink:href="#radial-gradient-4"/><linearGradient id="linear-gradient-86" x1="1594.12" y1="1274" x2="1589.25" y2="1265.56" gradientTransform="translate(-1098.08 -924.51)" gradientUnits="userSpaceOnUse"><stop offset="0.01" stop-color="#f9b595"/><stop offset="0.13" stop-color="#fbc59c"/><stop offset="0.18" stop-color="#f9ba97"/><stop offset="0.25" stop-color="#f8ae92"/><stop offset="0.33" stop-color="#f7aa90"/><stop offset="0.43" stop-color="#f8b394"/><stop offset="0.59" stop-color="#fccb9d"/><stop offset="0.73" stop-color="#ffe4a7"/><stop offset="0.97" stop-color="#f7aa90"/></linearGradient><linearGradient id="New_Gradient_Swatch_copy_8-2" x1="1567.67" y1="1282.01" x2="1573.29" y2="1282.01" gradientTransform="translate(-1098.08 -924.51)" xlink:href="#New_Gradient_Swatch_copy_8"/><linearGradient id="linear-gradient-87" x1="1483.97" y1="1338.29" x2="1479.25" y2="1330.11" gradientTransform="translate(-1098.08 -924.51)" gradientUnits="userSpaceOnUse"><stop offset="0.04" stop-color="#1e1f21"/><stop offset="0.12" stop-color="#2d2e30"/><stop offset="0.14" stop-color="#323336"/><stop offset="0.27" stop-color="#0e0e0f"/><stop offset="0.35" stop-color="#131415"/><stop offset="0.46" stop-color="#232326"/><stop offset="0.59" stop-color="#3c3d41"/><stop offset="0.73" stop-color="#5e6167"/><stop offset="0.77" stop-color="#696c73"/><stop offset="1" stop-color="#37383c"/></linearGradient><linearGradient id="linear-gradient-88" x1="4922.56" y1="-778.89" x2="4930.38" y2="-785.87" gradientTransform="translate(-2636.36 4500.7) rotate(-45)" gradientUnits="userSpaceOnUse"><stop offset="0.04" stop-color="#1e1f21"/><stop offset="0.31" stop-color="#2c2e30"/><stop offset="0.84" stop-color="#515359"/><stop offset="1" stop-color="#5d6066"/></linearGradient><linearGradient id="New_Gradient_Swatch_copy_8-3" x1="4948.5" y1="-790.17" x2="4941.91" y2="-801.57" xlink:href="#New_Gradient_Swatch_copy_8"/><linearGradient id="New_Gradient_Swatch_copy_8-4" x1="1398.7" y1="1368.81" x2="1485.81" y2="1342.73" gradientTransform="translate(-1098.08 -924.51)" xlink:href="#New_Gradient_Swatch_copy_8"/><radialGradient id="radial-gradient-15" cx="4942.56" cy="-795.27" r="14.24" gradientTransform="translate(-2636.36 4500.7) rotate(-45)" xlink:href="#radial-gradient-4"/><linearGradient id="New_Gradient_Swatch_copy_8-5" x1="4942.23" y1="-758.6" x2="4948.01" y2="-767" xlink:href="#New_Gradient_Swatch_copy_8"/><linearGradient id="New_Gradient_Swatch_copy_8-6" x1="4955.82" y1="-781" x2="4946.13" y2="-753.81" xlink:href="#New_Gradient_Swatch_copy_8"/><radialGradient id="radial-gradient-16" cx="4926.28" cy="-768.77" r="12.41" gradientTransform="translate(-2636.36 4500.7) rotate(-45)" xlink:href="#radial-gradient-4"/><radialGradient id="New_Gradient_Swatch_copy" cx="3851.99" cy="-18678.46" r="21" gradientTransform="matrix(1.42, -0.84, 0.09, 0.15, -3294.76, 6475.8)" gradientUnits="userSpaceOnUse"><stop offset="0" stop-color="#972a74"/><stop offset="0.04" stop-color="#8a266a"/><stop offset="0.19" stop-color="#601b4a"/><stop offset="0.35" stop-color="#3d112f"/><stop offset="0.51" stop-color="#230a1b"/><stop offset="0.67" stop-color="#0f040c"/><stop offset="0.83" stop-color="#040103"/><stop offset="1"/></radialGradient></defs><title>features-1</title><g class="cls-9"><g id="Layer_1" data-name="Layer 1"><g class="cls-10"><polygon class="cls-11" points="518.63 605.48 384.29 525.88 429.24 452.74 563.59 532.34 518.63 605.48"/><polygon class="cls-12" points="385.31 525.52 519.6 605.16 474.35 631.26 340.07 551.62 385.31 525.52"/><polygon class="cls-13" points="257.47 622.02 390.27 701.17 357.11 758.16 222.83 678.52 257.47 622.02"/><polygon class="cls-14" points="257.47 622.02 390.27 701.17 455.78 661.45 321.5 581.81 257.47 622.02"/><polygon class="cls-15" points="357.27 773.16 222.93 693.56 222.93 678.41 357.27 758.01 357.27 773.16"/><polygon class="cls-16" points="455.85 661.33 321.51 581.73 340.73 551.2 475.08 630.8 455.85 661.33"/><polygon class="cls-17" points="561.63 378.1 694.43 457.24 564.02 532.78 429.74 453.14 561.63 378.1"/><polygon class="cls-18" points="561.63 378.1 694.43 457.24 747.5 373.12 613.22 293.48 561.63 378.1"/><polygon class="cls-19" points="842.18 319.81 853.84 314.39 692.59 7 679.87 11.38 842.18 319.81"/><polygon class="cls-20" points="747.07 264.89 747.07 373.71 695 457.24 563.56 532.34 518.61 604.23 474.39 631.22 455.17 661.54 389.98 700.34 357.25 758.01 357.25 773.16 758.13 544.31 758.13 261.92 747.07 264.89"/><polygon class="cls-21" points="613.36 187.69 613.36 296.91 747.07 374.11 747.07 264.89 842.18 319.81 680.21 11 518.24 132.78 613.36 187.69"/></g><ellipse class="cls-22" cx="527.45" cy="325.91" rx="108.1" ry="187.24" transform="translate(-92.38 310.75) rotate(-30.31)"/><ellipse class="cls-23" cx="527.45" cy="325.91" rx="74.84" ry="129.63" transform="matrix(0.86, -0.5, 0.5, 0.86, -92.38, 310.75)"/><path class="cls-24" d="M515.85,180.25C442.5,137.91,383,171.81,383,256S442.5,442.71,515.85,485.05s132.82,8.45,132.82-75.72S589.2,222.6,515.85,180.25Z"/><g class="cls-25"><path class="cls-26" d="M517.82,179.13c-37.2-21.48-70.82-23.33-94.93-9,24-13.11,56.77-10.79,93,10.1C589.2,222.6,648.67,325.16,648.67,409.33c0,41.49-14.45,70.75-37.89,84.7,24.59-13.46,39.85-43.19,39.85-85.82C650.63,324,591.17,221.48,517.82,179.13Z"/></g><ellipse class="cls-27" cx="515.85" cy="332.65" rx="108.1" ry="187.24" transform="translate(-97.37 305.82) rotate(-30.31)"/><ellipse class="cls-28" cx="515.85" cy="332.65" rx="103.19" ry="178.73" transform="translate(-97.37 305.82) rotate(-30.31)"/><ellipse class="cls-29" cx="515.85" cy="332.65" rx="88.44" ry="153.2" transform="translate(-97.37 305.82) rotate(-30.31)"/><ellipse class="cls-30" cx="515.85" cy="332.65" rx="73.7" ry="127.66" transform="translate(-97.37 305.82) rotate(-30.31)"/><ellipse class="cls-29" cx="515.85" cy="332.65" rx="58.96" ry="102.13" transform="translate(-97.37 305.82) rotate(-30.31)"/><ellipse class="cls-31" cx="515.85" cy="332.65" rx="44.22" ry="76.6" transform="translate(-97.37 305.82) rotate(-30.31)"/><ellipse class="cls-29" cx="515.85" cy="332.65" rx="29.48" ry="51.07" transform="translate(-97.37 305.82) rotate(-30.31)"/><ellipse class="cls-32" cx="515.85" cy="332.65" rx="14.74" ry="25.53" transform="translate(-97.37 305.82) rotate(-30.31)"/><path class="cls-33" d="M515.85,187.18c-38.1-22-72.25-22.4-95.49-5.28,23.16-15.46,56.35-14.38,93.22,6.91,70,40.42,126.77,138.32,126.77,218.66,0,36.62-11.81,63.23-31.28,77.57,20.83-13.9,33.56-41.16,33.56-79.19C642.63,325.51,585.87,227.6,515.85,187.18Z"/><path class="cls-34" d="M515.85,228.75c-27.47-15.87-52.07-16-68.68-3.42,16.54-10.93,40.16-10.11,66.41,5,50,28.88,90.55,98.8,90.55,156.19,0,25.86-8.25,44.73-21.87,55.05,15-9.89,24.15-29.4,24.15-56.67C606.41,327.55,565.87,257.62,515.85,228.75Z"/><path class="cls-35" d="M515.85,270.31C499,260.58,484,260.69,474,268.75c9.91-6.38,24-5.83,39.6,3.19,30,17.32,54.33,59.28,54.33,93.71,0,15.1-4.68,26.24-12.46,32.53,9.13-5.88,14.74-17.64,14.74-34.16C570.19,329.59,545.86,287.63,515.85,270.31Z"/><path class="cls-36" d="M515.85,311.87c-6-3.46-11.31-3.16-14.6.1,3.23-1.59,7.56-1.22,12.33,1.53,10,5.77,18.11,19.76,18.11,31.24,0,4.59-1.31,8.06-3.51,10.23,3.55-1.75,5.79-5.85,5.79-11.86C534,331.63,525.86,317.65,515.85,311.87Z"/><polygon class="cls-37" points="245.97 528.85 245.97 558.91 262.2 534.51 245.97 528.85 245.97 528.85"/><polygon class="cls-38" points="223.88 541.49 223.88 571.55 240.1 547.15 223.88 541.49 223.88 541.49"/><polygon class="cls-39" points="201.78 554.13 201.78 584.18 218 559.79 201.78 554.13 201.78 554.13"/><polygon class="cls-40" points="179.68 566.77 179.68 596.82 195.91 572.43 179.68 566.77 179.68 566.77"/><polygon class="cls-41" points="157.59 579.41 157.59 609.46 173.81 585.07 157.59 579.41 157.59 579.41"/><polygon class="cls-37" points="350.57 311 350.57 341.06 366.79 316.66 350.57 311 350.57 311"/><polygon class="cls-38" points="328.47 323.64 328.47 353.7 344.7 329.3 328.47 323.64 328.47 323.64"/><polygon class="cls-39" points="306.38 336.28 306.38 366.33 322.6 341.94 306.38 336.28 306.38 336.28"/><polygon class="cls-40" points="284.28 348.92 284.28 378.97 300.51 354.58 284.28 348.92 284.28 348.92"/><polygon class="cls-41" points="262.19 361.56 262.19 391.61 278.41 367.22 262.19 361.56 262.19 361.56"/><polygon class="cls-37" points="258.88 304.1 258.88 334.15 275.11 309.76 258.88 304.1 258.88 304.1"/><polygon class="cls-38" points="236.79 316.73 236.79 346.79 253.01 322.39 236.79 316.73 236.79 316.73"/><polygon class="cls-39" points="214.69 329.37 214.69 359.43 230.92 335.03 214.69 329.37 214.69 329.37"/><polygon class="cls-40" points="192.6 342.01 192.6 372.07 208.82 347.67 192.6 342.01 192.6 342.01"/><polygon class="cls-41" points="170.5 354.65 170.5 384.71 186.73 360.31 170.5 354.65 170.5 354.65"/><g class="cls-42"><polygon class="cls-43" points="340.73 551.2 474.65 629.67 518.18 604.66 475.64 631.65 455.17 661.54 473.24 631.23 340.73 551.2"/><polygon class="cls-44" points="429.49 452.55 563.41 531.02 671.82 471.1 564.4 533 528.22 588.97 562 532.58 429.49 452.55"/><polygon class="cls-45" points="258.55 622.89 389.85 698.93 444.83 667.84 390.84 700.91 358.62 755.46 388.44 700.48 258.55 622.89"/><polygon class="cls-46" points="695 457.24 747.07 374.11 747.07 264.89 745.31 372.44 695 457.24"/><polygon class="cls-47" points="841.42 319.92 679.73 11.05 681.62 10.68 842.93 318.98 841.42 319.92"/></g><g class="cls-48"><g class="cls-49"><polygon class="cls-50" points="814.08 361.32 841.15 376.97 814.08 392.61 787.01 376.96 814.08 361.32"/><polygon class="cls-51" points="841.17 597.67 814.09 613.31 814.09 392.6 841.17 376.96 841.17 597.67"/><polygon class="cls-52" points="814.09 613.31 787.01 597.67 787.01 376.96 814.09 392.6 814.09 613.31"/></g><polygon class="cls-53" points="787.01 376.96 813.95 391.47 841.17 376.96 814.91 393.19 814.09 613.31 812.8 393 787.01 376.96"/></g><g class="cls-54"><g class="cls-49"><polygon class="cls-55" points="775.25 427.83 802.33 443.48 775.25 459.12 748.18 443.47 775.25 427.83"/><polygon class="cls-56" points="802.35 619.28 775.26 634.92 775.26 459.11 802.35 443.47 802.35 619.28"/><polygon class="cls-57" points="775.27 634.92 748.18 619.28 748.18 443.47 775.27 459.11 775.27 634.92"/></g><polygon class="cls-58" points="748.18 443.47 775.13 457.98 802.35 443.47 776.08 459.7 775.27 634.92 773.98 459.51 748.18 443.47"/></g><g class="cls-59"><g class="cls-49"><polygon class="cls-60" points="735.53 496.83 762.6 512.48 735.53 528.11 708.46 512.46 735.53 496.83"/><polygon class="cls-61" points="762.62 640.23 735.54 655.87 735.54 528.1 762.62 512.46 762.62 640.23"/><polygon class="cls-62" points="735.54 655.87 708.46 640.23 708.46 512.46 735.54 528.1 735.54 655.87"/></g><polygon class="cls-63" points="708.46 512.46 735.4 526.98 762.62 512.46 736.36 528.7 735.54 655.87 734.25 528.51 708.46 512.46"/></g><g class="cls-64"><g class="cls-49"><polygon class="cls-65" points="696.3 572.37 723.37 588.02 696.29 603.66 669.22 588.01 696.3 572.37"/><polygon class="cls-66" points="696.3 648.46 723.37 664.11 696.29 679.75 669.22 664.1 696.3 648.46"/><polygon class="cls-67" points="723.39 664.7 696.3 680.34 696.3 603.65 723.39 588.01 723.39 664.7"/><polygon class="cls-68" points="696.31 680.34 669.22 664.7 669.22 588.01 696.31 603.65 696.31 680.34"/></g><polygon class="cls-69" points="669.22 588.01 696.17 602.52 723.39 588.01 697.12 604.24 696.31 680.34 695.02 604.05 669.22 588.01"/></g><g class="cls-70"><g class="cls-49"><polygon class="cls-71" points="656.95 630.63 684.02 646.28 656.95 661.91 629.88 646.26 656.95 630.63"/><polygon class="cls-72" points="684.05 687.1 656.96 702.74 656.96 661.9 684.05 646.26 684.05 687.1"/><polygon class="cls-73" points="656.97 702.74 629.88 687.1 629.88 646.26 656.97 661.9 656.97 702.74"/></g><polygon class="cls-74" points="629.88 646.26 656.83 660.78 684.05 646.26 657.78 662.5 656.97 702.74 655.68 662.31 629.88 646.26"/></g><g class="cls-75"><path class="cls-76" d="M888.27,508.78h-44v132.9h0c0,.05,0,.11,0,.17,0,7.08,9.85,12.82,22,12.82s22-5.74,22-12.82v-.17h0Z"/><path class="cls-77" d="M888.27,508.78h-44v132.9h0c0,.05,0,.11,0,.17,0,7.08,9.85,12.82,22,12.82s22-5.74,22-12.82v-.17h0Z"/><ellipse class="cls-78" cx="866.27" cy="508.87" rx="22.01" ry="12.81"/><path class="cls-79" d="M866.27,521.46c-11.72,0-21.26-5.33-21.94-12.05a6.31,6.31,0,0,0-.07.76c0,7.07,9.85,12.81,22,12.81s22-5.74,22-12.81c0-.26,0-.51-.06-.76C887.53,516.13,878,521.46,866.27,521.46Z"/></g><g class="cls-80"><path class="cls-81" d="M844.92,573.15h-44V667h0v.18c0,7.08,9.85,12.81,22,12.81s22-5.73,22-12.81c0-.06,0-.12,0-.18h0Z"/><path class="cls-82" d="M844.92,573.15h-44V667h0v.18c0,7.08,9.85,12.81,22,12.81s22-5.73,22-12.81c0-.06,0-.12,0-.18h0Z"/><ellipse class="cls-83" cx="822.91" cy="573.24" rx="22.01" ry="12.81"/><path class="cls-84" d="M822.91,585.84c-11.71,0-21.26-5.33-21.94-12.05,0,.25-.06.5-.06.75,0,7.08,9.85,12.82,22,12.82s22-5.74,22-12.82a6.34,6.34,0,0,0-.07-.75C844.18,580.51,834.63,585.84,822.91,585.84Z"/></g><g class="cls-85"><path class="cls-86" d="M801.11,639.09h-44v54.82h0v.17c0,7.08,9.85,12.82,22,12.82s22-5.74,22-12.82c0-.06,0-.11,0-.17h0Z"/><path class="cls-87" d="M801.11,639.09h-44v54.82h0v.17c0,7.08,9.85,12.82,22,12.82s22-5.74,22-12.82c0-.06,0-.11,0-.17h0Z"/><ellipse class="cls-88" cx="779.1" cy="639.18" rx="22.01" ry="12.81"/><path class="cls-89" d="M779.1,651.78c-11.71,0-21.26-5.34-21.94-12.06,0,.25-.06.5-.06.76,0,7.08,9.85,12.81,22,12.81s22-5.73,22-12.81a6.31,6.31,0,0,0-.07-.76C800.36,646.44,790.82,651.78,779.1,651.78Z"/></g><path class="cls-90" d="M888.24,504.53h-44v6.21h0c0,.06,0,.12,0,.18,0,7.07,9.85,12.81,22,12.81s22-5.74,22-12.81c0-.06,0-.12,0-.18h0Z"/><g class="cls-91"><path class="cls-92" d="M844.24,509.92v.17c0-.06,0-.11,0-.17Z"/><path class="cls-93" d="M866.24,522.36c-12.15,0-22-5.74-22-12.82v1.2h0c0,.06,0,.12,0,.18,0,7.07,9.85,12.81,22,12.81s22-5.74,22-12.81c0-.06,0-.12,0-.18h0v-1.2C888.24,516.62,878.39,522.36,866.24,522.36Z"/><path class="cls-94" d="M888.24,510.09v-.17h0C888.23,510,888.24,510,888.24,510.09Z"/></g><g class="cls-91"><path class="cls-95" d="M873,523.11l.62-.13V506.71H873Z"/><path class="cls-95" d="M875.74,522.46l.62-.18V506.71h-.62Z"/><path class="cls-95" d="M878.51,521.55c.21-.08.41-.18.61-.27V506.71h-.61Z"/><path class="cls-95" d="M870.21,523.51l.62-.07V506.71h-.62Z"/><path class="cls-95" d="M884,518.43l.62-.51V506.71H884Z"/><path class="cls-95" d="M886.8,515.45a8.49,8.49,0,0,0,.61-1.1v-7.64h-.61Z"/><path class="cls-95" d="M881.27,520.25l.62-.33V506.71h-.62Z"/><path class="cls-95" d="M867.45,523.69l.62,0v-17h-.62Z"/><path class="cls-95" d="M864.69,523.68l.61,0v-17h-.61Z"/><path class="cls-95" d="M859.16,523l.62.12V506.71h-.62Z"/><path class="cls-95" d="M861.92,523.48l.62,0V506.71h-.62Z"/><path class="cls-95" d="M856.4,522.36l.61.17V506.71h-.61Z"/><path class="cls-95" d="M845.34,514.9a10.08,10.08,0,0,0,.62,1v-9.17h-.62Z"/><path class="cls-95" d="M848.1,518.16c.2.17.41.32.62.48V506.71h-.62Z"/><path class="cls-95" d="M853.63,521.4l.62.25V506.71h-.62Z"/><path class="cls-95" d="M850.87,520.07c.2.12.41.22.62.33V506.71h-.62Z"/></g><ellipse class="cls-96" cx="866.24" cy="504.62" rx="22" ry="12.81"/><path class="cls-97" d="M866.24,517.09c-11.89,0-21.56-5.5-22-12.37,0,.15,0,.3,0,.45,0,7.07,9.85,12.81,22,12.81s22-5.74,22-12.81c0-.15,0-.3,0-.45C887.79,511.59,878.13,517.09,866.24,517.09Z"/><ellipse class="cls-98" cx="866.24" cy="504.62" rx="16.45" ry="9.58"/><path class="cls-99" d="M866.79,495.52c8.78,0,15.94,4,16.4,9.07,0-.18,0-.34,0-.52,0-5.29-7.36-9.58-16.44-9.58s-16.45,4.29-16.45,9.58a4.57,4.57,0,0,0,0,.52C850.85,499.54,858,495.52,866.79,495.52Z"/><path class="cls-100" d="M866.24,496.07c8.78,0,15.94,4,16.4,9.06a4.4,4.4,0,0,0,.05-.51c0-5.29-7.37-9.58-16.45-9.58s-16.45,4.29-16.45,9.58a4.4,4.4,0,0,0,.05.51C850.3,500.09,857.46,496.07,866.24,496.07Z"/><path class="cls-101" d="M855,507.25c4.22.45,7.11,5.73,6.47,11.79s-4.59,10.6-8.81,10.15-7.11-5.72-6.47-11.78S850.74,506.8,855,507.25Z"/><path class="cls-102" d="M871.69,502.42l5.95,1.07c1,.18,1.2.94.36,1.29l-5.07,2.06c-.34.14-.53.36-.53.6l.1,3.59c0,.6-1.16,1-2,.59l-5-2.16a2.06,2.06,0,0,0-1.16-.1l-5.88,1.14c-1,.19-1.93-.36-1.6-.92l2-3.4a.5.5,0,0,0-.19-.67l-3.73-2.88c-.63-.48,0-1.17,1-1.16l6.21.06a1.71,1.71,0,0,0,1-.3l3.58-2.93a1.72,1.72,0,0,1,2.22.21l1.87,3.43A1.13,1.13,0,0,0,871.69,502.42Z"/><path class="cls-103" d="M871.69,501.75l5.95,1.07c1,.18,1.2.94.36,1.29l-5.07,2.06c-.34.14-.53.36-.53.6l.1,3.59c0,.6-1.16.95-2,.59l-5-2.16a2.16,2.16,0,0,0-1.16-.11l-5.88,1.15c-1,.19-1.93-.36-1.6-.93l2-3.39a.5.5,0,0,0-.19-.67L854.93,502c-.63-.48,0-1.17,1-1.16l6.21.06a1.65,1.65,0,0,0,1-.31l3.58-2.92a1.72,1.72,0,0,1,2.22.21l1.87,3.43A1.13,1.13,0,0,0,871.69,501.75Z"/><path class="cls-104" d="M871.69,501.75l5.95,1.07c1,.18,1.2.94.36,1.29l-5.07,2.06c-.34.14-.53.36-.53.6l.1,3.59c0,.6-1.16.95-2,.59l-5-2.16a2.16,2.16,0,0,0-1.16-.11l-5.88,1.15c-1,.19-1.93-.36-1.6-.93l2-3.39a.5.5,0,0,0-.19-.67L854.93,502c-.63-.48,0-1.17,1-1.16l6.21.06a1.65,1.65,0,0,0,1-.31l3.58-2.92a1.72,1.72,0,0,1,2.22.21l1.87,3.43A1.13,1.13,0,0,0,871.69,501.75Z"/><path class="cls-105" d="M845.12,568.49h-44v6.2h0c0,.06,0,.12,0,.18,0,7.08,9.85,12.81,22,12.81s22-5.73,22-12.81c0-.06,0-.12,0-.18h0Z"/><g class="cls-91"><path class="cls-106" d="M801.12,573.87v.18c0-.06,0-.12,0-.18Z"/><path class="cls-107" d="M823.12,586.31c-12.15,0-22-5.73-22-12.81v1.19h0c0,.06,0,.12,0,.18,0,7.08,9.85,12.81,22,12.81s22-5.73,22-12.81c0-.06,0-.12,0-.18h0V573.5C845.12,580.58,835.27,586.31,823.12,586.31Z"/><path class="cls-108" d="M845.12,574.05v-.18h0C845.11,573.93,845.12,574,845.12,574.05Z"/></g><g class="cls-91"><path class="cls-95" d="M829.86,587.06l.62-.13V570.66h-.62Z"/><path class="cls-95" d="M832.62,586.41l.62-.17V570.66h-.62Z"/><path class="cls-95" d="M835.39,585.51l.61-.27V570.66h-.61Z"/><path class="cls-95" d="M827.09,587.46l.62-.06V570.66h-.62Z"/><path class="cls-95" d="M840.91,582.38c.21-.17.42-.33.62-.51V570.66h-.62Z"/><path class="cls-95" d="M843.68,579.4a9.09,9.09,0,0,0,.61-1.09v-7.65h-.61Z"/><path class="cls-95" d="M838.15,584.21c.21-.11.42-.22.62-.34V570.66h-.62Z"/><path class="cls-95" d="M824.33,587.65l.62,0v-17h-.62Z"/><path class="cls-95" d="M821.57,587.64h.61v-17h-.61Z"/><path class="cls-95" d="M816,587l.62.13V570.66H816Z"/><path class="cls-95" d="M818.8,587.43l.62.06V570.66h-.62Z"/><path class="cls-95" d="M813.28,586.32l.61.17V570.66h-.61Z"/><path class="cls-95" d="M802.22,578.86a11.46,11.46,0,0,0,.62,1v-9.18h-.62Z"/><path class="cls-95" d="M805,582.12l.62.48V570.66H805Z"/><path class="cls-95" d="M810.51,585.36l.62.24V570.66h-.62Z"/><path class="cls-95" d="M807.75,584l.62.32V570.66h-.62Z"/></g><ellipse class="cls-109" cx="823.12" cy="568.57" rx="22" ry="12.81"/><path class="cls-110" d="M823.12,581c-11.89,0-21.55-5.5-22-12.36,0,.15,0,.29,0,.44,0,7.08,9.85,12.81,22,12.81s22-5.73,22-12.81c0-.15,0-.29,0-.44C844.67,575.54,835,581,823.12,581Z"/><path class="cls-111" d="M839.57,568.57c0,5.29-7.37,9.58-16.45,9.58s-16.45-4.29-16.45-9.58S814,559,823.12,559,839.57,563.29,839.57,568.57Z"/><path class="cls-112" d="M823.67,559.48c8.78,0,15.94,4,16.4,9.06,0-.17,0-.34,0-.51,0-5.29-7.36-9.58-16.44-9.58s-16.45,4.29-16.45,9.58a4.4,4.4,0,0,0,0,.51C807.73,563.49,814.88,559.48,823.67,559.48Z"/><path class="cls-113" d="M823.12,560c8.78,0,15.94,4,16.4,9.06a4.36,4.36,0,0,0,.05-.52c0-5.28-7.37-9.57-16.45-9.57s-16.45,4.29-16.45,9.57a4.36,4.36,0,0,0,.05.52C807.18,564,814.34,560,823.12,560Z"/><path class="cls-114" d="M811.84,571.21c4.22.45,7.11,5.72,6.47,11.78s-4.59,10.61-8.81,10.16-7.11-5.73-6.47-11.79S807.62,570.76,811.84,571.21Z"/><path class="cls-115" d="M828.94,566.68l5.95,1.08c1,.18,1.2.94.35,1.28l-5.06,2.07c-.34.13-.53.36-.53.6l.1,3.59c0,.6-1.17.94-2,.58l-5-2.15a1.94,1.94,0,0,0-1.15-.11l-5.88,1.14c-1,.19-1.93-.35-1.6-.92l2-3.4a.49.49,0,0,0-.19-.66l-3.73-2.89c-.63-.48,0-1.16,1-1.15l6.22,0a1.67,1.67,0,0,0,1-.3l3.57-2.92a1.74,1.74,0,0,1,2.23.2l1.86,3.43A1.18,1.18,0,0,0,828.94,566.68Z"/><path class="cls-116" d="M828.94,566l5.95,1.08c1,.18,1.2.94.35,1.28l-5.06,2.07c-.34.13-.53.36-.53.6l.1,3.59c0,.6-1.17.94-2,.58l-5-2.15a1.94,1.94,0,0,0-1.15-.11l-5.88,1.14c-1,.19-1.93-.35-1.6-.92l2-3.4a.49.49,0,0,0-.19-.66l-3.73-2.89c-.63-.48,0-1.16,1-1.15l6.22,0a1.67,1.67,0,0,0,1-.3l3.57-2.93a1.74,1.74,0,0,1,2.23.21l1.86,3.43A1.18,1.18,0,0,0,828.94,566Z"/><path class="cls-117" d="M828.94,566l5.95,1.08c1,.18,1.2.94.35,1.28l-5.06,2.07c-.34.13-.53.36-.53.6l.1,3.59c0,.6-1.17.94-2,.58l-5-2.15a1.94,1.94,0,0,0-1.15-.11l-5.88,1.14c-1,.19-1.93-.35-1.6-.92l2-3.4a.49.49,0,0,0-.19-.66l-3.73-2.89c-.63-.48,0-1.16,1-1.15l6.22,0a1.67,1.67,0,0,0,1-.3l3.57-2.93a1.74,1.74,0,0,1,2.23.21l1.86,3.43A1.18,1.18,0,0,0,828.94,566Z"/><path class="cls-118" d="M800.89,634.54h-44v6.21h0c0,.06,0,.12,0,.18,0,7.07,9.85,12.81,22,12.81s22-5.74,22-12.81c0-.06,0-.12,0-.18h0Z"/><g class="cls-91"><path class="cls-119" d="M756.89,639.93v.17c0-.06,0-.11,0-.17Z"/><path class="cls-120" d="M778.89,652.37c-12.15,0-22-5.74-22-12.81v1.19h0c0,.06,0,.12,0,.18,0,7.07,9.85,12.81,22,12.81s22-5.74,22-12.81c0-.06,0-.12,0-.18h0v-1.19C800.89,646.63,791,652.37,778.89,652.37Z"/><path class="cls-121" d="M800.89,640.1v-.17h0C800.88,640,800.89,640,800.89,640.1Z"/></g><g class="cls-91"><path class="cls-95" d="M785.63,653.12l.61-.13V636.72h-.61Z"/><path class="cls-95" d="M788.39,652.47c.21-.06.42-.11.62-.18V636.72h-.62Z"/><path class="cls-95" d="M791.16,651.56l.61-.26V636.72h-.61Z"/><path class="cls-95" d="M782.86,653.52l.62-.07V636.72h-.62Z"/><path class="cls-95" d="M796.68,648.44l.62-.51V636.72h-.62Z"/><path class="cls-95" d="M799.45,645.46a9.09,9.09,0,0,0,.61-1.09v-7.65h-.61Z"/><path class="cls-95" d="M793.92,650.26l.62-.33V636.72h-.62Z"/><path class="cls-95" d="M780.1,653.7l.62,0v-17h-.62Z"/><path class="cls-95" d="M777.34,653.69l.61,0v-17h-.61Z"/><path class="cls-95" d="M771.81,653.05c.21,0,.41.09.62.12V636.72h-.62Z"/><path class="cls-95" d="M774.57,653.49l.62,0V636.72h-.62Z"/><path class="cls-95" d="M769.05,652.37l.61.17V636.72h-.61Z"/><path class="cls-95" d="M758,644.91a9,9,0,0,0,.62,1v-9.17H758Z"/><path class="cls-95" d="M760.75,648.17c.2.17.41.32.62.48V636.72h-.62Z"/><path class="cls-95" d="M766.28,651.42l.62.24V636.72h-.62Z"/><path class="cls-95" d="M763.52,650.08c.2.12.41.22.62.33V636.72h-.62Z"/></g><ellipse class="cls-122" cx="778.89" cy="634.63" rx="22" ry="12.81"/><path class="cls-123" d="M778.89,647.1c-11.89,0-21.56-5.5-22-12.37,0,.15,0,.3,0,.45,0,7.07,9.85,12.81,22,12.81s22-5.74,22-12.81c0-.15,0-.3,0-.45C800.44,641.6,790.78,647.1,778.89,647.1Z"/><ellipse class="cls-124" cx="778.89" cy="634.63" rx="16.45" ry="9.58"/><path class="cls-125" d="M779.44,625.53c8.78,0,15.94,4,16.4,9.07,0-.18,0-.34,0-.52,0-5.29-7.36-9.57-16.44-9.57S763,628.79,763,634.08a4.57,4.57,0,0,0,0,.52C763.5,629.55,770.65,625.53,779.44,625.53Z"/><path class="cls-126" d="M778.89,626.08c8.78,0,15.94,4,16.4,9.06a4.38,4.38,0,0,0,0-.51c0-5.29-7.36-9.58-16.44-9.58s-16.45,4.29-16.45,9.58a4.4,4.4,0,0,0,0,.51C763,630.1,770.1,626.08,778.89,626.08Z"/><path class="cls-127" d="M767.61,637.26c4.22.45,7.11,5.73,6.47,11.79s-4.59,10.6-8.81,10.15-7.11-5.72-6.47-11.78S763.39,636.81,767.61,637.26Z"/><path class="cls-128" d="M784.55,632.45l5.94,1.08c1,.18,1.21.94.36,1.29l-5.07,2.06c-.33.14-.53.36-.52.6l.1,3.59c0,.6-1.17.95-2,.58l-5-2.15a2.15,2.15,0,0,0-1.16-.11l-5.88,1.14c-1,.19-1.93-.35-1.6-.92l2-3.39a.5.5,0,0,0-.18-.67l-3.74-2.88c-.62-.49,0-1.17,1-1.16l6.21.06a1.63,1.63,0,0,0,1-.31l3.58-2.92a1.73,1.73,0,0,1,2.22.2l1.87,3.44A1.16,1.16,0,0,0,784.55,632.45Z"/><path class="cls-129" d="M784.55,631.78l5.94,1.08c1,.18,1.21.94.36,1.28l-5.07,2.07c-.33.13-.53.36-.52.6l.1,3.59c0,.6-1.17.94-2,.58l-5-2.15a2,2,0,0,0-1.16-.11l-5.88,1.14c-1,.19-1.93-.35-1.6-.92l2-3.4a.49.49,0,0,0-.18-.66L767.78,632c-.62-.48,0-1.16,1-1.15l6.21,0a1.63,1.63,0,0,0,1-.3l3.58-2.92a1.73,1.73,0,0,1,2.22.2l1.87,3.43A1.14,1.14,0,0,0,784.55,631.78Z"/><path class="cls-130" d="M784.55,631.78l5.94,1.08c1,.18,1.21.94.36,1.28l-5.07,2.07c-.33.13-.53.36-.52.6l.1,3.59c0,.6-1.17.94-2,.58l-5-2.15a2,2,0,0,0-1.16-.11l-5.88,1.14c-1,.19-1.93-.35-1.6-.92l2-3.4a.49.49,0,0,0-.18-.66L767.78,632c-.62-.48,0-1.16,1-1.15l6.21,0a1.63,1.63,0,0,0,1-.3l3.58-2.92a1.73,1.73,0,0,1,2.22.2l1.87,3.43A1.14,1.14,0,0,0,784.55,631.78Z"/><g class="cls-131"><path class="cls-132" d="M514.12,332a.29.29,0,0,0,0,.2s-2.83,8-1.55,22.11c.91,10,2,31.51,2.9,50.49S517,440.27,517,440.28a.27.27,0,0,0,.06.17,1.75,1.75,0,0,0,1.08,1.14,39.3,39.3,0,0,0,6.54,1.4c2.91.43,5.8.68,6.44.23a1.76,1.76,0,0,0,.88-1.43.38.38,0,0,0,0-.15s-2.23-17.05-4.7-36.59-5.16-41.6-6.07-51.61c-1.28-14-5.34-21.39-5.34-21.39a.42.42,0,0,0-.29-.33Z"/><path class="cls-133" d="M514.1,332.17A47.26,47.26,0,0,0,513,338s0,.07,0,.1a70.25,70.25,0,0,0-.21,15.44c.87,9.5,2,30.33,2.88,48.81,0,.59.06,1.16.08,1.74.83,17.32,1.44,32.09,1.48,32.55a.33.33,0,0,0,.05.16,2,2,0,0,0,1,1.14,26.35,26.35,0,0,0,5.85,1.62l.13,0c.49.09,1,.18,1.51.25,2.14.29,4,.36,4.57,0a2.07,2.07,0,0,0,.7-.77l0-.09a1.23,1.23,0,0,0,.09-.54.29.29,0,0,0,0-.14c0-.21-2.15-16.74-4.5-35.62s-4.94-40.26-5.81-49.83c0-.39-.07-.77-.11-1.15A67.68,67.68,0,0,0,517.35,336c0-.1-.07-.2-.11-.3a38.13,38.13,0,0,0-1.49-3.57.42.42,0,0,0-.27-.32l-1.32.18A.3.3,0,0,0,514.1,332.17Z"/><path class="cls-134" d="M514.14,332.11s-.56,2.41-1,5.6c0,0,0,.06,0,.1a69.18,69.18,0,0,0-.16,14.84c.81,9,1.93,29.14,2.85,47.14,0,.56.05,1.12.08,1.67.81,16.43,1.42,30.52,1.5,31.44a.19.19,0,0,0,0,.15,1.69,1.69,0,0,0,.89,1.13c.61.74,3,1.29,5.3,1.88l.12,0c.45.1.92.2,1.4.27,2,.3,3.81.35,4.33,0a1.78,1.78,0,0,0,.66-.76.2.2,0,0,0,0-.08,1.26,1.26,0,0,0,.08-.52.57.57,0,0,0,0-.14c0-.42-2.08-16.43-4.31-34.64s-4.7-38.94-5.54-48.05c0-.38-.07-.75-.11-1.11A67,67,0,0,0,517.16,336a1.39,1.39,0,0,0-.12-.28c-.73-2-1.39-3.46-1.39-3.46a.45.45,0,0,0-.25-.32l-1.21.08A.16.16,0,0,0,514.14,332.11Z"/><path class="cls-135" d="M514.17,332.06s-.47,2.57-.87,5.4c0,0,0,.07,0,.1a68.3,68.3,0,0,0-.12,14.25c.77,8.44,1.89,28,2.82,45.46l.09,1.62c.79,15.53,1.4,28.94,1.52,30.31a.25.25,0,0,0,0,.15,1.74,1.74,0,0,0,.81,1.13c.55.94,2.73,1.48,4.74,2.13l.11,0c.41.11.84.22,1.3.3,1.83.3,3.55.33,4.08,0a1.76,1.76,0,0,0,.63-.74l0-.09a1.26,1.26,0,0,0,.07-.5.28.28,0,0,0,0-.13c0-.62-2-16.12-4.11-33.67-2.14-17.76-4.47-37.6-5.27-46.26,0-.37-.07-.73-.1-1.07a65.17,65.17,0,0,0-3-14.54.85.85,0,0,0-.11-.26c-.65-1.78-1.3-3.35-1.3-3.35a.47.47,0,0,0-.23-.32l-1.1,0C514.19,332,514.17,332,514.17,332.06Z"/><path class="cls-136" d="M514.21,332s-.39,2.73-.74,5.21c0,0,0,.07,0,.1a67.11,67.11,0,0,0-.07,13.66c.71,7.91,1.84,26.77,2.79,43.78,0,.52.06,1,.08,1.56.78,14.64,1.39,27.37,1.54,29.2a.75.75,0,0,0,0,.15,1.84,1.84,0,0,0,.72,1.12c.51,1.14,2.37,2.1,4.19,2.37a.14.14,0,0,0,.1,0,7.44,7.44,0,0,0,1.2.33c1.67.3,3.3.31,3.82-.06a1.52,1.52,0,0,0,.6-.73l0-.08a1.3,1.3,0,0,0,.06-.48.48.48,0,0,0,0-.12c-.08-.84-1.91-15.82-3.92-32.7-2-17.16-4.24-36.27-5-44.49,0-.35-.06-.69-.1-1a63.66,63.66,0,0,0-2.76-14,1.15,1.15,0,0,0-.12-.25c-.57-1.55-1.2-3.23-1.2-3.23a.45.45,0,0,0-.21-.31l-1-.15S514.21,332,514.21,332Z"/><path class="cls-137" d="M514.25,332s-.31,2.89-.61,5c0,0,0,.06,0,.09a66.78,66.78,0,0,0,0,13.07c.67,7.37,1.79,25.58,2.77,42.1,0,.5,0,1,.08,1.5.76,13.75,1.37,25.81,1.56,28.09a.34.34,0,0,0,0,.14,1.86,1.86,0,0,0,.63,1.11,4.6,4.6,0,0,0,3.63,2.63.12.12,0,0,0,.09,0,5.17,5.17,0,0,0,1.09.35c1.52.31,3,.3,3.58-.08a1.38,1.38,0,0,0,.57-.71s0-.05,0-.08a1.35,1.35,0,0,0,.05-.46v-.11c-.1-1-1.84-15.51-3.73-31.72-1.92-16.57-4-34.95-4.73-42.71,0-.34-.06-.67-.09-1a64.59,64.59,0,0,0-2.57-13.44,1,1,0,0,0-.12-.23c-.49-1.33-1.11-3.12-1.11-3.12a.52.52,0,0,0-.19-.31l-.87-.25S514.24,331.91,514.25,332Z"/><path class="cls-138" d="M514.28,331.9s-.22,3.05-.47,4.82a.3.3,0,0,0,0,.1,65.88,65.88,0,0,0,0,12.47c.62,6.84,1.75,24.4,2.74,40.43l.09,1.43c.74,12.85,1.35,24.24,1.58,27a.86.86,0,0,0,0,.13,2.11,2.11,0,0,0,.54,1.11,4,4,0,0,0,3.09,2.88.09.09,0,0,0,.07,0,3.79,3.79,0,0,0,1,.38,5.11,5.11,0,0,0,3.32-.1,1.21,1.21,0,0,0,.54-.69s0-.05,0-.08a1.14,1.14,0,0,0,0-.45.17.17,0,0,0,0-.1c-.11-1.25-1.75-15.2-3.53-30.75-1.81-16-3.78-33.61-4.46-40.92,0-.33-.06-.65-.09-.94a63.32,63.32,0,0,0-2.38-12.89.45.45,0,0,0-.12-.21c-.4-1.11-1-3-1-3s-.08-.27-.17-.3l-.76-.37S514.28,331.87,514.28,331.9Z"/><path class="cls-139" d="M514.32,331.84s-.14,3.22-.34,4.64a.29.29,0,0,0,0,.09,64,64,0,0,0,.06,11.88c.57,6.31,1.7,23.21,2.71,38.75l.09,1.38c.73,11.95,1.33,22.66,1.6,25.86a1,1,0,0,0,0,.12,2.31,2.31,0,0,0,.44,1.1c.38,1.77,1.5,3,2.54,3.14a.07.07,0,0,0,.06,0,2.83,2.83,0,0,0,.89.41,4.42,4.42,0,0,0,3.07-.12,1.17,1.17,0,0,0,.51-.68.56.56,0,0,0,0-.07,1.26,1.26,0,0,0,0-.43v-.1c-.14-1.46-1.67-14.89-3.33-29.77-1.71-15.38-3.56-32.29-4.2-39.15,0-.31-.05-.61-.08-.9a63.84,63.84,0,0,0-2.19-12.33.47.47,0,0,0-.12-.2c-.33-.89-.92-2.89-.92-2.89s-.08-.27-.15-.3l-.65-.47S514.32,331.82,514.32,331.84Z"/><path class="cls-140" d="M514.35,331.79s-.05,3.38-.2,4.44a.29.29,0,0,0,0,.09,63.08,63.08,0,0,0,.1,11.29c.53,5.78,1.66,22,2.69,37.07,0,.44.05.88.08,1.32.72,11.06,1.32,21.09,1.63,24.74a.37.37,0,0,0,0,.12A2.91,2.91,0,0,0,519,412c.33,2,1.2,3.26,2,3.38a.08.08,0,0,0,0,.06,2,2,0,0,0,.78.42,3.83,3.83,0,0,0,2.83-.13,1,1,0,0,0,.47-.66s0,0,0-.08a1.16,1.16,0,0,0,0-.41v-.09c-.16-1.67-1.6-14.58-3.14-28.8-1.6-14.78-3.33-30.95-3.93-37.36,0-.31-.05-.59-.08-.86a65.89,65.89,0,0,0-2-11.78.29.29,0,0,0-.12-.18c-.24-.67-.82-2.78-.82-2.78a.94.94,0,0,0-.12-.3l-.54-.58S514.35,331.77,514.35,331.79Z"/><path class="cls-141" d="M514.39,331.74s0,3.54-.07,4.24a.29.29,0,0,0,0,.09,61.68,61.68,0,0,0,.14,10.7c.48,5.25,1.62,20.84,2.66,35.39l.09,1.26c.7,10.17,1.31,19.52,1.65,23.63a.43.43,0,0,0,0,.12,7.1,7.1,0,0,0,.26,1.08c.57,2.13.91,3.56,1.43,3.64,0,0,0,.06,0,.06a1.42,1.42,0,0,0,.68.45,3.26,3.26,0,0,0,2.57-.15.91.91,0,0,0,.44-.65.12.12,0,0,0,0-.07,1.75,1.75,0,0,0,0-.39.22.22,0,0,0,0-.08c-.18-1.88-1.51-14.28-2.94-27.83-1.49-14.19-3.1-29.62-3.65-35.58,0-.3-.06-.57-.08-.82a69.29,69.29,0,0,0-1.81-11.22.27.27,0,0,0-.12-.18c-.17-.44-.73-2.66-.73-2.66a1,1,0,0,0-.1-.29l-.43-.69S514.39,331.72,514.39,331.74Z"/><path class="cls-142" d="M514.43,331.68s.12,3.7.07,4.06a.16.16,0,0,0,0,.09,59,59,0,0,0,.19,10.1c.43,4.72,1.57,19.66,2.63,33.72l.09,1.19c.68,9.28,1.31,18,1.67,22.52a.37.37,0,0,0,0,.11c0,.38.12.74.17,1.08.41,2.37.62,3.85.88,3.89q0,.06,0,.06a1.06,1.06,0,0,0,.58.48,2.72,2.72,0,0,0,2.32-.18.84.84,0,0,0,.41-.63.35.35,0,0,0,0-.06,3,3,0,0,0,0-.38v-.07c-.2-2.09-1.43-14-2.75-26.86-1.39-13.59-2.87-28.29-3.38-33.8,0-.28,0-.53-.08-.77a77,77,0,0,0-1.62-10.67.23.23,0,0,0-.12-.16c-.08-.22-.63-2.55-.63-2.55s-.07-.28-.08-.29l-.32-.8Z"/><path class="cls-143" d="M514.46,331.63l.21,3.86a.16.16,0,0,0,0,.09,57.84,57.84,0,0,0,.23,9.51c.39,4.31,1.59,19.28,2.7,33.18s2.1,26.71,2.1,26.71a.31.31,0,0,0,0,.07.76.76,0,0,0,.47.5,2.29,2.29,0,0,0,2.08-.19.73.73,0,0,0,.37-.61.35.35,0,0,0,0-.07s-1.25-12.61-2.6-26.3-2.79-28.45-3.18-32.75a94.09,94.09,0,0,0-1.43-10.12.18.18,0,0,0-.13-.14Z"/></g><path class="cls-144" d="M297.45,460.69l-8.58-1.15a4.35,4.35,0,0,1-.57-8.51l48.11-13.15Z"/><path class="cls-145" d="M297.78,459.85l-8.58-1.15a4.33,4.33,0,0,1-3.6-5.53,4.36,4.36,0,0,0,3.27,6.37l8.58,1.15,39-22.81-2.06.57Z"/><path class="cls-146" d="M515.9,333.31a.49.49,0,0,1-.2.44s-5.49,7.48-18.93,15.26c-19.2,11.12-22.27,11.87-22.27,11.87-.52.29-.19-.36-1-.8a6.19,6.19,0,0,1-2.82-4.85c0-.89-.81-.89-.31-1.19,0,0,2.22-2.17,21.44-13.29C505.34,333,514.7,332,514.7,332a.51.51,0,0,1,.5,0A1.58,1.58,0,0,1,515.9,333.31Z"/><path class="cls-147" d="M475.21,359.12c0,1.78-1.26,2.5-2.81,1.61a6.2,6.2,0,0,1-2.82-4.86c0-1.78,1.26-2.5,2.82-1.6A6.21,6.21,0,0,1,475.21,359.12Z"/><path class="cls-148" d="M474.65,359.19a1.87,1.87,0,0,1-.76,1.7L296,465.61c-.48.27-.17-.34-.91-.77a5.92,5.92,0,0,1-2.69-4.63c0-.84-.77-.85-.3-1.13,0,0,178-104.73,178-104.73a1.89,1.89,0,0,1,1.87.2A5.94,5.94,0,0,1,474.65,359.19Z"/><path class="cls-149" d="M296.71,463.93c0,1.7-1.21,2.39-2.69,1.53a5.93,5.93,0,0,1-2.68-4.63c0-1.7,1.2-2.39,2.68-1.53A5.92,5.92,0,0,1,296.71,463.93Z"/><path class="cls-150" d="M296,457.54l39.79-22.93-31.06-2.54A13.43,13.43,0,0,0,293,453.67Z"/><path class="cls-151" d="M296.65,457.42l39.79-22.93-31.06-2.55a13.44,13.44,0,0,0-11.72,21.61Z"/><path class="cls-152" d="M294.24,453.8A13.43,13.43,0,0,1,306,432.2l30.16,2.47.31-.18-31.06-2.55a13.44,13.44,0,0,0-11.72,21.61l3,3.87.27-.16Z"/><path class="cls-153" d="M298.54,462.21l1,3.51a11.24,11.24,0,0,0,20.3,3l18.52-29.11Z"/><path class="cls-154" d="M299.15,461.71l1,3.51a11.23,11.23,0,0,0,20.3,3L339,439.14Z"/><path class="cls-155" d="M320.77,467.65a11.24,11.24,0,0,1-20.31-3l-.88-3.17-.43.25,1,3.51a11.23,11.23,0,0,0,20.3,3L339,439.14l-.06,0Z"/><path class="cls-156" d="M504.57,336.81c1.05,1.79-11.45,11.13-27.93,20.86S445.93,373.84,444.87,372s11.45-11.13,27.93-20.86S503.51,335,504.57,336.81Z"/></g></g></svg>