<svg xmlns="http://www.w3.org/2000/svg" xmlns:xlink="http://www.w3.org/1999/xlink" viewBox="0 0 1126.81 782.59"><defs><style>.cls-1{isolation:isolate;}.cls-140,.cls-2{opacity:0.2;}.cls-3,.cls-30{opacity:0;}.cls-31,.cls-4{opacity:0.09;}.cls-32,.cls-5{opacity:0.18;}.cls-33,.cls-6{opacity:0.27;}.cls-34,.cls-7{opacity:0.36;}.cls-35,.cls-8{opacity:0.45;}.cls-36,.cls-9{opacity:0.55;}.cls-10,.cls-37{opacity:0.64;}.cls-11,.cls-38{opacity:0.73;}.cls-12,.cls-39{opacity:0.82;}.cls-13,.cls-40{opacity:0.91;}.cls-14{fill:url(#linear-gradient);}.cls-15{fill:url(#linear-gradient-2);}.cls-16{opacity:0.82;fill:url(#linear-gradient-3);}.cls-107,.cls-124,.cls-140,.cls-141,.cls-16,.cls-163,.cls-20,.cls-29,.cls-64{mix-blend-mode:multiply;}.cls-17,.cls-22,.cls-28{opacity:0.6;}.cls-142,.cls-17,.cls-22{mix-blend-mode:screen;}.cls-17{fill:url(#radial-gradient);}.cls-18{fill:url(#linear-gradient-4);}.cls-19{fill:url(#linear-gradient-5);}.cls-20{fill:#bcbec0;}.cls-21{fill:url(#linear-gradient-6);}.cls-22{fill:url(#radial-gradient-2);}.cls-23{opacity:0.4;}.cls-119,.cls-135,.cls-148,.cls-151,.cls-168,.cls-23,.cls-25,.cls-26,.cls-27,.cls-28{mix-blend-mode:color-dodge;}.cls-24{fill:#1e7fc6;}.cls-25{opacity:0.15;}.cls-26{opacity:0.25;}.cls-27{opacity:0.8;}.cls-141,.cls-29{opacity:0.3;}.cls-30{fill:url(#linear-gradient-7);}.cls-31{fill:url(#linear-gradient-8);}.cls-32{fill:url(#linear-gradient-9);}.cls-33{fill:url(#linear-gradient-10);}.cls-34{fill:url(#linear-gradient-11);}.cls-35{fill:url(#linear-gradient-12);}.cls-36{fill:url(#linear-gradient-13);}.cls-37{fill:url(#linear-gradient-14);}.cls-38{fill:url(#linear-gradient-15);}.cls-39{fill:url(#linear-gradient-16);}.cls-40{fill:url(#linear-gradient-17);}.cls-41{fill:url(#linear-gradient-18);}.cls-42{fill:#f1f2f2;}.cls-43{fill:url(#New_Gradient_Swatch_copy_4);}.cls-44{fill:#00a79d;}.cls-45{fill:#8770b8;}.cls-46{fill:#fff;}.cls-47{fill:url(#linear-gradient-19);}.cls-48{fill:url(#linear-gradient-20);}.cls-49{fill:#ede6f0;}.cls-50,.cls-51{fill:#b3a0c8;}.cls-50,.cls-52{opacity:0.7;}.cls-53{fill:url(#linear-gradient-21);}.cls-54{fill:url(#linear-gradient-22);}.cls-55{fill:url(#linear-gradient-23);}.cls-56{fill:url(#linear-gradient-24);}.cls-57{fill:url(#radial-gradient-3);}.cls-58{fill:url(#New_Gradient_Swatch_copy_11);}.cls-59{fill:url(#linear-gradient-25);}.cls-60{fill:url(#linear-gradient-26);}.cls-61{fill:url(#linear-gradient-27);}.cls-62{fill:url(#linear-gradient-28);}.cls-63{fill:url(#linear-gradient-29);}.cls-163,.cls-64{fill:#d1d3d4;}.cls-65{fill:url(#radial-gradient-4);}.cls-66{fill:url(#linear-gradient-30);}.cls-67{fill:url(#linear-gradient-31);}.cls-68{fill:url(#linear-gradient-32);}.cls-69{fill:url(#linear-gradient-33);}.cls-70{fill:url(#linear-gradient-34);}.cls-71{fill:url(#linear-gradient-35);}.cls-72{fill:url(#linear-gradient-36);}.cls-73{fill:url(#linear-gradient-37);}.cls-74{fill:url(#linear-gradient-38);}.cls-75{fill:url(#linear-gradient-39);}.cls-76{fill:url(#linear-gradient-40);}.cls-77{fill:url(#linear-gradient-41);}.cls-78{fill:url(#linear-gradient-42);}.cls-79{fill:url(#linear-gradient-43);}.cls-80{fill:url(#linear-gradient-44);}.cls-81{fill:url(#linear-gradient-45);}.cls-82{fill:url(#linear-gradient-46);}.cls-83{fill:url(#linear-gradient-47);}.cls-84{fill:url(#linear-gradient-48);}.cls-85{fill:url(#linear-gradient-49);}.cls-86{fill:url(#linear-gradient-50);}.cls-87{fill:url(#linear-gradient-51);}.cls-88{fill:url(#linear-gradient-52);}.cls-89{fill:url(#linear-gradient-53);}.cls-90{fill:url(#linear-gradient-54);}.cls-91{fill:url(#linear-gradient-55);}.cls-92{fill:url(#linear-gradient-56);}.cls-93{fill:url(#linear-gradient-57);}.cls-94{fill:url(#linear-gradient-58);}.cls-95{fill:url(#linear-gradient-59);}.cls-96{fill:url(#linear-gradient-60);}.cls-97{fill:#10054d;}.cls-98{fill:url(#linear-gradient-61);}.cls-99{fill:url(#linear-gradient-62);}.cls-100{fill:url(#linear-gradient-63);}.cls-101{fill:url(#linear-gradient-64);}.cls-102{fill:url(#radial-gradient-5);}.cls-103{fill:url(#linear-gradient-65);}.cls-104{fill:url(#linear-gradient-66);}.cls-105{fill:url(#linear-gradient-67);}.cls-106{fill:url(#radial-gradient-6);}.cls-107,.cls-124{fill:#a8b3c9;}.cls-107,.cls-112,.cls-119,.cls-163{opacity:0.5;}.cls-108{fill:url(#linear-gradient-68);}.cls-109{fill:url(#linear-gradient-69);}.cls-110{fill:url(#linear-gradient-70);}.cls-111{fill:url(#linear-gradient-71);}.cls-112{fill:url(#linear-gradient-72);}.cls-113{fill:url(#linear-gradient-73);}.cls-114{fill:#7993c6;}.cls-115{fill:url(#linear-gradient-74);}.cls-116{fill:url(#linear-gradient-75);}.cls-117{fill:url(#linear-gradient-76);}.cls-118{fill:url(#linear-gradient-77);}.cls-120{fill:url(#linear-gradient-78);}.cls-121{fill:url(#linear-gradient-79);}.cls-122{fill:url(#linear-gradient-80);}.cls-123{fill:url(#linear-gradient-81);}.cls-125{fill:url(#New_Gradient_Swatch_copy_14);}.cls-126{fill:url(#radial-gradient-7);}.cls-127{fill:url(#New_Gradient_Swatch_copy_12);}.cls-128{fill:url(#radial-gradient-8);}.cls-129{fill:url(#New_Gradient_Swatch_copy_7);}.cls-130{fill:url(#radial-gradient-9);}.cls-131{fill:url(#linear-gradient-82);}.cls-132{fill:url(#linear-gradient-83);}.cls-133{fill:url(#New_Gradient_Swatch_copy_7-2);}.cls-134{fill:url(#New_Gradient_Swatch_copy_7-3);}.cls-135{fill:url(#radial-gradient-10);}.cls-136{fill:url(#radial-gradient-11);}.cls-137{fill:url(#radial-gradient-12);}.cls-138{fill:url(#New_Gradient_Swatch_copy_7-4);}.cls-139{fill:url(#linear-gradient-84);}.cls-140{fill:url(#radial-gradient-13);}.cls-141{fill:url(#radial-gradient-14);}.cls-142{fill:url(#radial-gradient-15);}.cls-143{fill:url(#linear-gradient-85);}.cls-144{fill:url(#linear-gradient-86);}.cls-145{fill:url(#linear-gradient-87);}.cls-146{fill:url(#linear-gradient-88);}.cls-147{fill:url(#linear-gradient-89);}.cls-148{fill:url(#radial-gradient-16);}.cls-149{fill:url(#linear-gradient-90);}.cls-150{fill:url(#linear-gradient-91);}.cls-151{fill:url(#radial-gradient-17);}.cls-152{fill:url(#radial-gradient-18);}.cls-153{fill:url(#radial-gradient-19);}.cls-154{fill:url(#radial-gradient-20);}.cls-155{fill:url(#linear-gradient-92);}.cls-156{fill:url(#radial-gradient-21);}.cls-157{fill:url(#radial-gradient-22);}.cls-158{fill:url(#linear-gradient-93);}.cls-159{fill:url(#linear-gradient-94);}.cls-160{fill:url(#radial-gradient-23);}.cls-161{fill:url(#radial-gradient-24);}.cls-162{fill:url(#New_Gradient_Swatch_copy_7-5);}.cls-164{fill:url(#New_Gradient_Swatch_copy_7-6);}.cls-165{fill:url(#radial-gradient-25);}.cls-166{fill:url(#linear-gradient-95);}.cls-167{fill:url(#New_Gradient_Swatch_copy_7-7);}.cls-168{fill:url(#radial-gradient-26);}.cls-169{fill:url(#linear-gradient-96);}.cls-170{fill:url(#linear-gradient-97);}.cls-171{fill:url(#radial-gradient-27);}.cls-172{fill:url(#New_Gradient_Swatch_copy_7-8);}.cls-173{fill:url(#New_Gradient_Swatch_copy_7-9);}</style><linearGradient id="linear-gradient" x1="474.32" y1="588.39" x2="798.2" y2="588.39" gradientUnits="userSpaceOnUse"><stop offset="0.06" stop-color="#200041"/><stop offset="0.26" stop-color="#210243"/><stop offset="0.36" stop-color="#25084b"/><stop offset="0.43" stop-color="#2c1358"/><stop offset="0.47" stop-color="#311b61"/><stop offset="0.48" stop-color="#351f65"/><stop offset="0.5" stop-color="#422c73"/><stop offset="0.51" stop-color="#584188"/><stop offset="0.52" stop-color="#765fa7"/><stop offset="0.53" stop-color="#8770b8"/><stop offset="0.54" stop-color="#7e67ae"/><stop offset="0.56" stop-color="#5c468d"/><stop offset="0.59" stop-color="#442e75"/><stop offset="0.61" stop-color="#362066"/><stop offset="0.63" stop-color="#311b61"/><stop offset="0.67" stop-color="#2a1155"/><stop offset="0.75" stop-color="#230446"/><stop offset="0.81" stop-color="#200041"/><stop offset="1" stop-color="#200041"/></linearGradient><linearGradient id="linear-gradient-2" x1="560.98" y1="609.22" x2="707.8" y2="528" gradientUnits="userSpaceOnUse"><stop offset="0" stop-color="#311b61"/><stop offset="0.2" stop-color="#290f52"/><stop offset="0.49" stop-color="#200041"/><stop offset="1" stop-color="#0f001f"/></linearGradient><linearGradient id="linear-gradient-3" x1="638.85" y1="570.82" x2="667.67" y2="522.5" gradientUnits="userSpaceOnUse"><stop offset="0" stop-color="#fff"/><stop offset="1"/></linearGradient><radialGradient id="radial-gradient" cx="639.81" cy="636.49" r="115.23" gradientUnits="userSpaceOnUse"><stop offset="0" stop-color="#af8afc"/><stop offset="1" stop-color="#10054d"/></radialGradient><linearGradient id="linear-gradient-4" x1="860.47" y1="656.37" x2="364.83" y2="-29.46" xlink:href="#linear-gradient-2"/><linearGradient id="linear-gradient-5" x1="431.86" y1="38.84" x2="853.54" y2="672.93" gradientUnits="userSpaceOnUse"><stop offset="0.01" stop-color="#1a70aa"/><stop offset="0.43" stop-color="#284bbc"/><stop offset="0.9" stop-color="#1e4356"/></linearGradient><linearGradient id="linear-gradient-6" x1="965.78" y1="671.27" x2="575.66" y2="47.91" xlink:href="#linear-gradient"/><radialGradient id="radial-gradient-2" cx="855.1" cy="316.28" r="66.4" xlink:href="#radial-gradient"/><linearGradient id="linear-gradient-7" x1="340.29" y1="-130.26" x2="646.72" y2="454.04" gradientUnits="userSpaceOnUse"><stop offset="0.01" stop-color="#9f19ab"/><stop offset="0.43" stop-color="#5f27bd"/><stop offset="0.9" stop-color="#3d065f"/></linearGradient><linearGradient id="linear-gradient-8" x1="343.19" y1="-125.96" x2="645.59" y2="450.67" xlink:href="#linear-gradient-7"/><linearGradient id="linear-gradient-9" x1="346.18" y1="-121.69" x2="644.55" y2="447.25" xlink:href="#linear-gradient-7"/><linearGradient id="linear-gradient-10" x1="349.24" y1="-117.47" x2="643.59" y2="443.8" xlink:href="#linear-gradient-7"/><linearGradient id="linear-gradient-11" x1="352.38" y1="-113.29" x2="642.7" y2="440.31" xlink:href="#linear-gradient-7"/><linearGradient id="linear-gradient-12" x1="355.57" y1="-109.14" x2="641.87" y2="436.78" xlink:href="#linear-gradient-7"/><linearGradient id="linear-gradient-13" x1="358.82" y1="-105.01" x2="641.09" y2="433.23" xlink:href="#linear-gradient-7"/><linearGradient id="linear-gradient-14" x1="362.1" y1="-100.91" x2="640.35" y2="429.66" xlink:href="#linear-gradient-7"/><linearGradient id="linear-gradient-15" x1="365.41" y1="-96.81" x2="639.63" y2="426.08" xlink:href="#linear-gradient-7"/><linearGradient id="linear-gradient-16" x1="368.74" y1="-92.73" x2="638.94" y2="422.48" xlink:href="#linear-gradient-7"/><linearGradient id="linear-gradient-17" x1="372.09" y1="-88.66" x2="638.26" y2="418.88" xlink:href="#linear-gradient-7"/><linearGradient id="linear-gradient-18" x1="375.45" y1="-84.6" x2="637.6" y2="415.27" xlink:href="#linear-gradient-7"/><linearGradient id="New_Gradient_Swatch_copy_4" x1="717.83" y1="318.86" x2="430.34" y2="81.26" gradientUnits="userSpaceOnUse"><stop offset="0.04" stop-color="#00a79d"/><stop offset="0.23" stop-color="#0fa7a3"/><stop offset="0.61" stop-color="#38a5b2"/><stop offset="1" stop-color="#68a4c4"/></linearGradient><linearGradient id="linear-gradient-19" x1="427.59" y1="574.05" x2="384.36" y2="648.7" gradientUnits="userSpaceOnUse"><stop offset="0.01" stop-color="#a89dbd"/><stop offset="1" stop-color="#f1f2f2"/></linearGradient><linearGradient id="linear-gradient-20" x1="317.55" y1="706.7" x2="403.53" y2="560.23" gradientUnits="userSpaceOnUse"><stop offset="0.01" stop-color="#dbdbdb"/><stop offset="0.38" stop-color="#efebf0"/><stop offset="0.66" stop-color="#f8f3fa"/></linearGradient><linearGradient id="linear-gradient-21" x1="289.33" y1="599.98" x2="293.86" y2="599.98" gradientUnits="userSpaceOnUse"><stop offset="0.01" stop-color="#1a55aa"/><stop offset="0.43" stop-color="#2833bc"/><stop offset="0.9" stop-color="#19075e"/></linearGradient><linearGradient id="linear-gradient-22" x1="397.73" y1="662.06" x2="432.73" y2="662.06" xlink:href="#linear-gradient-21"/><linearGradient id="linear-gradient-23" x1="371.03" y1="589.74" x2="406.4" y2="589.74" xlink:href="#linear-gradient-21"/><linearGradient id="linear-gradient-24" x1="265.72" y1="529.51" x2="301.08" y2="529.51" xlink:href="#linear-gradient-21"/><radialGradient id="radial-gradient-3" cx="-4514.82" cy="1191.42" r="15" gradientTransform="matrix(-0.68, 0.73, 0.73, 0.68, -3529.76, 2740.08)" gradientUnits="userSpaceOnUse"><stop offset="0.03" stop-color="#fedfcb"/><stop offset="0.78" stop-color="#f9b69e"/><stop offset="0.99" stop-color="#f2a78c"/></radialGradient><linearGradient id="New_Gradient_Swatch_copy_11" x1="478.43" y1="283.71" x2="412.95" y2="170.47" gradientTransform="translate(183.23 -195.94) rotate(30.31)" gradientUnits="userSpaceOnUse"><stop offset="0.03" stop-color="#1e2bc6"/><stop offset="0.23" stop-color="#204fd0"/><stop offset="0.66" stop-color="#25aaea"/><stop offset="1" stop-color="#2af6ff"/></linearGradient><linearGradient id="linear-gradient-25" x1="426.68" y1="267.49" x2="479.23" y2="267.49" gradientUnits="userSpaceOnUse"><stop offset="0.04" stop-color="#1a51aa"/><stop offset="0.27" stop-color="#275eb9"/><stop offset="0.71" stop-color="#4a7fe2"/><stop offset="1" stop-color="#6498ff"/></linearGradient><linearGradient id="linear-gradient-26" x1="459.3" y1="250.53" x2="441.06" y2="257.12" gradientUnits="userSpaceOnUse"><stop offset="0.04" stop-color="#9d9eb3"/><stop offset="0.58" stop-color="#d4d1d8"/><stop offset="1" stop-color="#eeebf2"/></linearGradient><linearGradient id="linear-gradient-27" x1="452.49" y1="249.42" x2="464.65" y2="273.73" xlink:href="#linear-gradient-26"/><linearGradient id="linear-gradient-28" x1="3.19" y1="2442.27" x2="42.36" y2="2442.27" gradientTransform="matrix(0.87, 0.5, 0, 1.15, 433.12, -2595.15)" gradientUnits="userSpaceOnUse"><stop offset="0.04" stop-color="#ffa98c"/><stop offset="0.32" stop-color="#ffb892"/><stop offset="0.86" stop-color="#fee1a3"/><stop offset="1" stop-color="#feeca8"/></linearGradient><linearGradient id="linear-gradient-29" x1="5.39" y1="2428.64" x2="40.19" y2="2428.64" gradientTransform="matrix(0.87, 0.5, 0, 1.15, 433.12, -2595.15)" gradientUnits="userSpaceOnUse"><stop offset="0.04" stop-color="#602213"/><stop offset="0.57" stop-color="#6d310e"/><stop offset="1" stop-color="#7a4108"/></linearGradient><radialGradient id="radial-gradient-4" cx="-4752.44" cy="1396.98" r="16.74" gradientTransform="matrix(-0.62, 0.79, 0.79, 0.62, -3611.57, 3105.99)" gradientUnits="userSpaceOnUse"><stop offset="0.03" stop-color="#fedfcb"/><stop offset="1" stop-color="#f9b69e"/></radialGradient><linearGradient id="linear-gradient-30" x1="368.26" y1="256.43" x2="413.24" y2="236.93" xlink:href="#linear-gradient-25"/><linearGradient id="linear-gradient-31" x1="6014.6" y1="255.93" x2="6225.31" y2="137.38" gradientTransform="matrix(-1.06, 0, -0.04, 0.95, 6745.76, 165.85)" xlink:href="#linear-gradient-26"/><linearGradient id="linear-gradient-32" x1="6029.16" y1="245.33" x2="6092.04" y2="223.78" gradientTransform="matrix(-1.06, 0, -0.04, 0.95, 6745.76, 165.85)" xlink:href="#linear-gradient-26"/><linearGradient id="linear-gradient-33" x1="1327.81" y1="-84.55" x2="1321.41" y2="-72.36" gradientTransform="matrix(1.14, 0.02, -0.34, 0.87, -1136.14, 289.39)" xlink:href="#linear-gradient-26"/><linearGradient id="linear-gradient-34" x1="1367.13" y1="49.44" x2="1382.54" y2="44.83" gradientTransform="matrix(1.14, 0.02, -0.34, 0.87, -1136.14, 289.39)" xlink:href="#linear-gradient-26"/><linearGradient id="linear-gradient-35" x1="1273.67" y1="62.15" x2="1441.28" y2="4.72" gradientTransform="matrix(1.14, 0.02, -0.34, 0.87, -1136.14, 289.39)" xlink:href="#linear-gradient-26"/><linearGradient id="linear-gradient-36" x1="1353.99" y1="18.81" x2="1345.84" y2="34.33" gradientTransform="matrix(1.14, 0.02, -0.34, 0.87, -1136.14, 289.39)" xlink:href="#linear-gradient-26"/><linearGradient id="linear-gradient-37" x1="1367.13" y1="76.05" x2="1382.54" y2="71.44" gradientTransform="matrix(1.14, 0.02, -0.34, 0.87, -1136.14, 289.39)" xlink:href="#linear-gradient-26"/><linearGradient id="linear-gradient-38" x1="1273.67" y1="88.75" x2="1441.28" y2="31.33" gradientTransform="matrix(1.14, 0.02, -0.34, 0.87, -1136.14, 289.39)" xlink:href="#linear-gradient-26"/><linearGradient id="linear-gradient-39" x1="1353.99" y1="45.42" x2="1345.84" y2="60.94" gradientTransform="matrix(1.14, 0.02, -0.34, 0.87, -1136.14, 289.39)" xlink:href="#linear-gradient-26"/><linearGradient id="linear-gradient-40" x1="1367.13" y1="102.76" x2="1382.54" y2="98.15" gradientTransform="matrix(1.14, 0.02, -0.34, 0.87, -1136.14, 289.39)" xlink:href="#linear-gradient-26"/><linearGradient id="linear-gradient-41" x1="1273.67" y1="115.46" x2="1441.28" y2="58.04" gradientTransform="matrix(1.14, 0.02, -0.34, 0.87, -1136.14, 289.39)" xlink:href="#linear-gradient-26"/><linearGradient id="linear-gradient-42" x1="1353.99" y1="72.13" x2="1345.84" y2="87.65" gradientTransform="matrix(1.14, 0.02, -0.34, 0.87, -1136.14, 289.39)" xlink:href="#linear-gradient-26"/><linearGradient id="linear-gradient-43" x1="1367.13" y1="129.37" x2="1382.54" y2="124.75" gradientTransform="matrix(1.14, 0.02, -0.34, 0.87, -1136.14, 289.39)" xlink:href="#linear-gradient-26"/><linearGradient id="linear-gradient-44" x1="1273.67" y1="142.07" x2="1441.28" y2="84.64" gradientTransform="matrix(1.14, 0.02, -0.34, 0.87, -1136.14, 289.39)" xlink:href="#linear-gradient-26"/><linearGradient id="linear-gradient-45" x1="1353.99" y1="98.73" x2="1345.84" y2="114.25" gradientTransform="matrix(1.14, 0.02, -0.34, 0.87, -1136.14, 289.39)" xlink:href="#linear-gradient-26"/><linearGradient id="linear-gradient-46" x1="1367.62" y1="-30.46" x2="1383.03" y2="-35.07" gradientTransform="matrix(1.14, 0.02, -0.34, 0.87, -1136.14, 289.39)" xlink:href="#linear-gradient-26"/><linearGradient id="linear-gradient-47" x1="1274.16" y1="-17.75" x2="1441.77" y2="-75.18" gradientTransform="matrix(1.14, 0.02, -0.34, 0.87, -1136.14, 289.39)" xlink:href="#linear-gradient-26"/><linearGradient id="linear-gradient-48" x1="1354.47" y1="-61.09" x2="1346.33" y2="-45.57" gradientTransform="matrix(1.14, 0.02, -0.34, 0.87, -1136.14, 289.39)" xlink:href="#linear-gradient-26"/><linearGradient id="linear-gradient-49" x1="1367.62" y1="-3.85" x2="1383.03" y2="-8.47" gradientTransform="matrix(1.14, 0.02, -0.34, 0.87, -1136.14, 289.39)" xlink:href="#linear-gradient-26"/><linearGradient id="linear-gradient-50" x1="1274.16" y1="8.85" x2="1441.77" y2="-48.58" gradientTransform="matrix(1.14, 0.02, -0.34, 0.87, -1136.14, 289.39)" xlink:href="#linear-gradient-26"/><linearGradient id="linear-gradient-51" x1="1354.47" y1="-34.48" x2="1346.33" y2="-18.97" gradientTransform="matrix(1.14, 0.02, -0.34, 0.87, -1136.14, 289.39)" xlink:href="#linear-gradient-26"/><linearGradient id="linear-gradient-52" x1="1367.62" y1="22.86" x2="1383.03" y2="18.24" gradientTransform="matrix(1.14, 0.02, -0.34, 0.87, -1136.14, 289.39)" xlink:href="#linear-gradient-26"/><linearGradient id="linear-gradient-53" x1="1274.16" y1="35.56" x2="1441.77" y2="-21.87" gradientTransform="matrix(1.14, 0.02, -0.34, 0.87, -1136.14, 289.39)" xlink:href="#linear-gradient-26"/><linearGradient id="linear-gradient-54" x1="1354.47" y1="-7.77" x2="1346.33" y2="7.74" gradientTransform="matrix(1.14, 0.02, -0.34, 0.87, -1136.14, 289.39)" xlink:href="#linear-gradient-26"/><linearGradient id="linear-gradient-55" x1="1367.13" y1="155.87" x2="1382.54" y2="151.25" gradientTransform="matrix(1.14, 0.02, -0.34, 0.87, -1136.14, 289.39)" xlink:href="#linear-gradient-26"/><linearGradient id="linear-gradient-56" x1="1273.67" y1="168.57" x2="1441.28" y2="111.14" gradientTransform="matrix(1.14, 0.02, -0.34, 0.87, -1136.14, 289.39)" xlink:href="#linear-gradient-26"/><linearGradient id="linear-gradient-57" x1="1353.99" y1="125.24" x2="1345.84" y2="140.75" gradientTransform="matrix(1.14, 0.02, -0.34, 0.87, -1136.14, 289.39)" xlink:href="#linear-gradient-26"/><linearGradient id="linear-gradient-58" x1="1367.13" y1="182.47" x2="1382.54" y2="177.86" gradientTransform="matrix(1.14, 0.02, -0.34, 0.87, -1136.14, 289.39)" xlink:href="#linear-gradient-26"/><linearGradient id="linear-gradient-59" x1="5972.6" y1="378.89" x2="6189.5" y2="304.58" gradientTransform="matrix(-1.06, 0, -0.04, 0.95, 6745.76, 165.85)" xlink:href="#linear-gradient-26"/><linearGradient id="linear-gradient-60" x1="1353.99" y1="151.84" x2="1345.84" y2="167.36" gradientTransform="matrix(1.14, 0.02, -0.34, 0.87, -1136.14, 289.39)" xlink:href="#linear-gradient-26"/><linearGradient id="linear-gradient-61" x1="350.94" y1="390.48" x2="352.79" y2="374.73" gradientUnits="userSpaceOnUse"><stop offset="0.09" stop-color="#051d4c"/><stop offset="0.47" stop-color="#0a2367"/><stop offset="0.89" stop-color="#112a89"/></linearGradient><linearGradient id="linear-gradient-62" x1="348.88" y1="351.93" x2="397.06" y2="360.89" gradientUnits="userSpaceOnUse"><stop offset="0.04" stop-color="#8688a6"/><stop offset="0.44" stop-color="#9d9eb3"/><stop offset="1" stop-color="#d4d1d8"/></linearGradient><linearGradient id="linear-gradient-63" x1="382.51" y1="377.21" x2="386.83" y2="355.59" xlink:href="#linear-gradient-61"/><linearGradient id="linear-gradient-64" x1="386.49" y1="341.06" x2="419.64" y2="330.56" xlink:href="#linear-gradient-62"/><radialGradient id="radial-gradient-5" cx="314" cy="703.2" r="18.07" gradientTransform="matrix(-0.98, -0.19, -0.19, 0.98, 838.18, -392.23)" xlink:href="#radial-gradient-4"/><linearGradient id="linear-gradient-65" x1="328.81" y1="713.26" x2="316.63" y2="691.71" gradientTransform="matrix(-0.98, -0.19, -0.19, 0.98, 838.18, -392.23)" xlink:href="#linear-gradient-29"/><linearGradient id="linear-gradient-66" x1="355.26" y1="290.16" x2="409.82" y2="291.19" gradientUnits="userSpaceOnUse"><stop offset="0.04" stop-color="#1a39aa"/><stop offset="0.27" stop-color="#2744b9"/><stop offset="0.71" stop-color="#4a62e2"/><stop offset="1" stop-color="#6477ff"/></linearGradient><linearGradient id="linear-gradient-67" x1="355.53" y1="248.34" x2="408.96" y2="262.85" xlink:href="#linear-gradient-66"/><radialGradient id="radial-gradient-6" cx="9132.1" cy="556.44" r="6.59" gradientTransform="translate(-8453.74 -1930.16) rotate(10.55)" xlink:href="#radial-gradient-4"/><linearGradient id="linear-gradient-68" x1="359.12" y1="289.37" x2="423.05" y2="284.53" xlink:href="#linear-gradient-66"/><linearGradient id="linear-gradient-69" x1="1294.21" y1="124.44" x2="1781.18" y2="-149.55" gradientTransform="matrix(1.14, 0.02, -0.34, 0.87, -1136.14, 289.39)" xlink:href="#linear-gradient-26"/><linearGradient id="linear-gradient-70" x1="5983.94" y1="272.67" x2="6046.82" y2="251.12" gradientTransform="matrix(-1.06, 0, -0.04, 0.95, 6745.76, 165.85)" xlink:href="#linear-gradient-26"/><linearGradient id="linear-gradient-71" x1="1377.34" y1="-56.11" x2="1370.95" y2="-43.92" gradientTransform="matrix(1.14, 0.02, -0.34, 0.87, -1136.14, 289.39)" xlink:href="#linear-gradient-26"/><linearGradient id="linear-gradient-72" x1="146.14" y1="2028.9" x2="226.39" y2="2123.33" gradientTransform="matrix(0.5, 0.87, -0.58, 1, 1622.79, -1960.52)" gradientUnits="userSpaceOnUse"><stop offset="0" stop-color="#7993c6"/><stop offset="0.14" stop-color="#8098c9"/><stop offset="0.33" stop-color="#92a8d2"/><stop offset="0.55" stop-color="#b0c1e0"/><stop offset="0.58" stop-color="#b5c5e2"/><stop offset="0.73" stop-color="#c5cce7"/><stop offset="1" stop-color="#ebdef3"/></linearGradient><linearGradient id="linear-gradient-73" x1="483.36" y1="223.98" x2="545.5" y2="360.91" xlink:href="#linear-gradient-21"/><linearGradient id="linear-gradient-74" x1="470.9" y1="145.53" x2="490" y2="145.53" gradientUnits="userSpaceOnUse"><stop offset="0.01" stop-color="#e6e7e8"/><stop offset="0.22" stop-color="#f4f4f5"/><stop offset="0.48" stop-color="#fcfdfd"/><stop offset="0.9" stop-color="#fff"/></linearGradient><linearGradient id="linear-gradient-75" x1="492.95" y1="162.51" x2="514.88" y2="162.51" xlink:href="#linear-gradient-74"/><linearGradient id="linear-gradient-76" x1="519.74" y1="178.07" x2="542" y2="178.07" xlink:href="#linear-gradient-74"/><linearGradient id="linear-gradient-77" x1="546.2" y1="195.57" x2="576.14" y2="195.57" xlink:href="#linear-gradient-74"/><linearGradient id="linear-gradient-78" x1="-1015.76" y1="715.29" x2="-1015.76" y2="701.81" gradientTransform="matrix(-1, 0, 0, 1, -264.72, 0)" gradientUnits="userSpaceOnUse"><stop offset="0.09" stop-color="#25054d"/><stop offset="0.47" stop-color="#330a68"/><stop offset="0.89" stop-color="#45108a"/></linearGradient><linearGradient id="linear-gradient-79" x1="738.41" y1="676.88" x2="798.09" y2="669.75" xlink:href="#linear-gradient-26"/><linearGradient id="linear-gradient-80" x1="-1040.56" y1="730.26" x2="-1035.21" y2="714.55" xlink:href="#linear-gradient-78"/><linearGradient id="linear-gradient-81" x1="753.44" y1="685.4" x2="790.4" y2="679.61" xlink:href="#linear-gradient-26"/><linearGradient id="New_Gradient_Swatch_copy_14" x1="677.31" y1="598.08" x2="647.24" y2="545.99" gradientTransform="translate(147.87)" gradientUnits="userSpaceOnUse"><stop offset="0.04" stop-color="#1a1aaa"/><stop offset="0.16" stop-color="#2529b7"/><stop offset="0.4" stop-color="#4352d9"/><stop offset="0.63" stop-color="#647eff"/><stop offset="0.87" stop-color="#4958db"/></linearGradient><radialGradient id="radial-gradient-7" cx="-3430.38" cy="1206.38" r="14.74" gradientTransform="matrix(-0.83, 0.56, 0.56, 0.83, -2735.58, 1494.85)" xlink:href="#radial-gradient-3"/><linearGradient id="New_Gradient_Swatch_copy_12" x1="648.07" y1="593.16" x2="674.64" y2="547.37" gradientTransform="translate(529.12 -252.76) rotate(30.31)" gradientUnits="userSpaceOnUse"><stop offset="0.04" stop-color="#1a1aaa"/><stop offset="0.24" stop-color="#2529b7"/><stop offset="0.62" stop-color="#4352d9"/><stop offset="1" stop-color="#647eff"/></linearGradient><radialGradient id="radial-gradient-8" cx="-3670.62" cy="1318.71" r="16.45" gradientTransform="matrix(-0.78, 0.63, 0.63, 0.78, -2898.24, 1832.81)" xlink:href="#radial-gradient-4"/><linearGradient id="New_Gradient_Swatch_copy_7" x1="748.5" y1="574.16" x2="802.71" y2="568.29" gradientUnits="userSpaceOnUse"><stop offset="0.04" stop-color="#138bbd"/><stop offset="0.23" stop-color="#169ac7"/><stop offset="0.59" stop-color="#1fc3df"/><stop offset="1" stop-color="#2af6ff"/></linearGradient><radialGradient id="radial-gradient-9" cx="-1031.83" cy="552.26" r="18.07" gradientTransform="matrix(-1, 0, 0, 1, -264.72, 0)" xlink:href="#radial-gradient-4"/><linearGradient id="linear-gradient-82" x1="-1017.01" y1="562.32" x2="-1029.2" y2="540.77" gradientTransform="matrix(-1, 0, 0, 1, -264.72, 0)" xlink:href="#linear-gradient-29"/><linearGradient id="linear-gradient-83" x1="-1022.95" y1="572.59" x2="-1026.49" y2="566.31" gradientTransform="matrix(-1, 0, 0, 1, -264.72, 0)" xlink:href="#linear-gradient-26"/><linearGradient id="New_Gradient_Swatch_copy_7-2" x1="734.84" y1="609.65" x2="785.89" y2="606.14" xlink:href="#New_Gradient_Swatch_copy_7"/><linearGradient id="New_Gradient_Swatch_copy_7-3" x1="-1033.36" y1="590.88" x2="-1022.22" y2="562.2" gradientTransform="matrix(-1, 0, 0, 1, -264.72, 0)" xlink:href="#New_Gradient_Swatch_copy_7"/><radialGradient id="radial-gradient-10" cx="808.86" cy="576.79" r="21.37" xlink:href="#linear-gradient-3"/><radialGradient id="radial-gradient-11" cx="4068.57" cy="818.55" r="13.87" gradientTransform="translate(4041.45 3190.6) rotate(-152.46)" xlink:href="#radial-gradient-3"/><radialGradient id="radial-gradient-12" cx="2804.44" cy="535.19" r="14.36" gradientTransform="matrix(-0.49, -0.87, 0.87, -0.49, 1716.6, 3313.71)" xlink:href="#radial-gradient-4"/><linearGradient id="New_Gradient_Swatch_copy_7-4" x1="736.94" y1="589.99" x2="812.5" y2="595.76" xlink:href="#New_Gradient_Swatch_copy_7"/><linearGradient id="linear-gradient-84" x1="3186.3" y1="1850.2" x2="3199.32" y2="1850.2" gradientTransform="matrix(-0.67, 0.74, 0.74, 0.67, 1074.8, -3002.04)" gradientUnits="userSpaceOnUse"><stop offset="0.04" stop-color="#f7d9cf"/><stop offset="0.46" stop-color="#ffe1c2"/><stop offset="0.87" stop-color="#f7cfc1"/></linearGradient><radialGradient id="radial-gradient-13" cx="3261.32" cy="-1480.8" r="23.63" gradientTransform="matrix(-0.8, 0.6, 0.23, 0.31, 3236.58, -902.84)" gradientUnits="userSpaceOnUse"><stop offset="0"/><stop offset="1" stop-color="#fff"/></radialGradient><radialGradient id="radial-gradient-14" cx="3261.54" cy="-1476.45" r="10.53" xlink:href="#radial-gradient-13"/><radialGradient id="radial-gradient-15" cx="5680.46" cy="-4647.95" r="14.21" gradientTransform="matrix(-0.86, -0.77, -0.1, 0.11, 4613.46, 5403.78)" gradientUnits="userSpaceOnUse"><stop offset="0" stop-color="#fff"/><stop offset="0.13" stop-color="#ff63ce"/><stop offset="1"/></radialGradient><linearGradient id="linear-gradient-85" x1="3442.81" y1="132.44" x2="3437.8" y2="142.08" gradientTransform="matrix(0.97, 0.24, -0.24, 0.97, -3062.67, -422.27)" xlink:href="#linear-gradient-28"/><linearGradient id="linear-gradient-86" x1="3439.83" y1="137.77" x2="3432.09" y2="151.95" gradientTransform="matrix(0.97, 0.24, -0.24, 0.97, -3062.67, -422.27)" xlink:href="#linear-gradient-28"/><linearGradient id="linear-gradient-87" x1="3432.05" y1="150.77" x2="3439.92" y2="136.5" gradientTransform="matrix(0.97, 0.24, -0.24, 0.97, -3062.67, -422.27)" xlink:href="#linear-gradient-28"/><linearGradient id="linear-gradient-88" x1="3186.47" y1="1712.37" x2="3200.04" y2="1712.37" gradientTransform="matrix(-0.67, 0.74, 0.74, 0.67, 1074.8, -3002.04)" gradientUnits="userSpaceOnUse"><stop offset="0" stop-color="#bec5d8"/><stop offset="0.21" stop-color="#ebedf3"/><stop offset="0.24" stop-color="#e2e4ec"/><stop offset="0.5" stop-color="#9097b3"/><stop offset="0.62" stop-color="#70789c"/><stop offset="0.68" stop-color="#767ea3"/><stop offset="0.77" stop-color="#888eb5"/><stop offset="0.82" stop-color="#949ac2"/><stop offset="1" stop-color="#8b90b5"/></linearGradient><linearGradient id="linear-gradient-89" x1="2438.75" y1="641.3" x2="2463.86" y2="643.01" gradientTransform="matrix(-0.24, 0.97, 0.97, 0.24, 154.12, -2029.08)" gradientUnits="userSpaceOnUse"><stop offset="0" stop-color="#d6dae6"/><stop offset="0.01" stop-color="#d4d8e6"/><stop offset="0.28" stop-color="#b4b8e3"/><stop offset="0.4" stop-color="#9a9fc8"/><stop offset="0.53" stop-color="#838ab0"/><stop offset="0.65" stop-color="#757da1"/><stop offset="0.76" stop-color="#70789c"/><stop offset="0.85" stop-color="#777ea2"/><stop offset="0.99" stop-color="#898eb3"/><stop offset="1" stop-color="#8b90b5"/></linearGradient><radialGradient id="radial-gradient-16" cx="5281.73" cy="108.75" r="5.28" gradientTransform="matrix(-0.97, -0.24, -0.24, 0.97, 5331.84, 1687.62)" gradientUnits="userSpaceOnUse"><stop offset="0" stop-color="#b4299a"/><stop offset="0.12" stop-color="#8a2076"/><stop offset="0.26" stop-color="#601652"/><stop offset="0.4" stop-color="#3e0e35"/><stop offset="0.55" stop-color="#23081e"/><stop offset="0.69" stop-color="#0f030d"/><stop offset="0.84" stop-color="#040103"/><stop offset="1"/></radialGradient><linearGradient id="linear-gradient-90" x1="3187" y1="1704.03" x2="3199.66" y2="1704.03" gradientTransform="matrix(-0.67, 0.74, 0.74, 0.67, 1074.8, -3002.04)" gradientUnits="userSpaceOnUse"><stop offset="0.01" stop-color="#ed5eb6"/><stop offset="0.13" stop-color="#f783c5"/><stop offset="0.25" stop-color="#ffa3d2"/><stop offset="0.62" stop-color="#dc5199"/><stop offset="0.72" stop-color="#df589e"/><stop offset="0.81" stop-color="#e463a6"/><stop offset="1" stop-color="#dc3d8f"/></linearGradient><linearGradient id="linear-gradient-91" x1="3371.23" y1="105.04" x2="3357.24" y2="108.46" gradientTransform="matrix(0.97, 0.24, -0.24, 0.97, -3062.67, -422.27)" gradientUnits="userSpaceOnUse"><stop offset="0.06" stop-color="#ffa3d2"/><stop offset="0.81" stop-color="#e463a6"/><stop offset="1" stop-color="#dc3d8f"/></linearGradient><radialGradient id="radial-gradient-17" cx="5287.38" cy="106.72" r="4.99" xlink:href="#radial-gradient-16"/><radialGradient id="radial-gradient-18" cx="3503.35" cy="176.25" r="6.85" gradientTransform="matrix(0.97, 0.24, -0.24, 0.97, -3062.67, -422.27)" gradientUnits="userSpaceOnUse"><stop offset="0.1" stop-color="#8493ba"/><stop offset="0.21" stop-color="#606c90"/><stop offset="0.33" stop-color="#444d6e"/><stop offset="0.43" stop-color="#303756"/><stop offset="0.53" stop-color="#232a47"/><stop offset="0.62" stop-color="#1f2542"/><stop offset="0.71" stop-color="#242a49"/><stop offset="0.83" stop-color="#34395b"/><stop offset="0.98" stop-color="#4d5179"/><stop offset="0.98" stop-color="#4d517a"/></radialGradient><radialGradient id="radial-gradient-19" cx="7564.33" cy="616.22" r="70.2" gradientTransform="translate(-7409.27)" xlink:href="#radial-gradient-4"/><radialGradient id="radial-gradient-20" cx="7642.35" cy="621.27" r="57.8" gradientTransform="translate(-7409.27)" xlink:href="#radial-gradient-4"/><linearGradient id="linear-gradient-92" x1="177.62" y1="664.57" x2="201.27" y2="664.57" gradientUnits="userSpaceOnUse"><stop offset="0" stop-color="#040114"/><stop offset="0.16" stop-color="#0a032f"/><stop offset="0.32" stop-color="#0e0445"/><stop offset="0.43" stop-color="#10054d"/><stop offset="0.84" stop-color="#190a5c"/><stop offset="1" stop-color="#1e0d64"/></linearGradient><radialGradient id="radial-gradient-21" cx="7568" cy="618.49" r="64.09" gradientTransform="translate(-7409.27)" xlink:href="#radial-gradient-4"/><radialGradient id="radial-gradient-22" cx="7661.31" cy="608.87" r="62.49" gradientTransform="translate(-7409.27)" xlink:href="#radial-gradient-4"/><linearGradient id="linear-gradient-93" x1="177.61" y1="584.12" x2="211.24" y2="584.12" gradientUnits="userSpaceOnUse"><stop offset="0.04" stop-color="#05164c"/><stop offset="0.49" stop-color="#0a215b"/><stop offset="1" stop-color="#123072"/></linearGradient><linearGradient id="linear-gradient-94" x1="190.53" y1="672.44" x2="216.37" y2="672.44" xlink:href="#linear-gradient-92"/><radialGradient id="radial-gradient-23" cx="7643.2" cy="545.18" r="9.69" gradientTransform="translate(-7409.27)" xlink:href="#radial-gradient-4"/><radialGradient id="radial-gradient-24" cx="7642.76" cy="545.45" r="9.99" gradientTransform="translate(-7409.27)" xlink:href="#radial-gradient-4"/><linearGradient id="New_Gradient_Swatch_copy_7-5" x1="8029.47" y1="476.11" x2="8096.09" y2="441.75" gradientTransform="matrix(0.99, 0.16, -0.16, 0.99, -7676.67, -1203.45)" xlink:href="#New_Gradient_Swatch_copy_7"/><linearGradient id="New_Gradient_Swatch_copy_7-6" x1="177.15" y1="547.32" x2="229.55" y2="546.67" xlink:href="#New_Gradient_Swatch_copy_7"/><radialGradient id="radial-gradient-25" cx="6834.87" cy="226.06" r="14.33" gradientTransform="translate(-6539.7 -693.2) rotate(8.16)" xlink:href="#radial-gradient-4"/><linearGradient id="linear-gradient-95" x1="7594.74" y1="519.43" x2="7602.82" y2="512.83" gradientTransform="translate(-7409.27)" xlink:href="#linear-gradient-26"/><linearGradient id="New_Gradient_Swatch_copy_7-7" x1="7592.83" y1="515.77" x2="7613.75" y2="515.77" gradientTransform="translate(-7409.27)" xlink:href="#New_Gradient_Swatch_copy_7"/><radialGradient id="radial-gradient-26" cx="7600.03" cy="520.99" r="8.26" gradientTransform="translate(-7409.27)" xlink:href="#linear-gradient-3"/><linearGradient id="linear-gradient-96" x1="6830.78" y1="235.69" x2="6836.44" y2="210.25" gradientTransform="translate(-6539.7 -693.2) rotate(8.16)" xlink:href="#linear-gradient-29"/><linearGradient id="linear-gradient-97" x1="6824.95" y1="234.36" x2="6824.95" y2="216.27" gradientTransform="translate(-6539.7 -693.2) rotate(8.16)" xlink:href="#linear-gradient-29"/><radialGradient id="radial-gradient-27" cx="61.63" cy="529.3" r="7.2" gradientTransform="matrix(-1, 0, 0, 1, 283.29, 0)" xlink:href="#radial-gradient-4"/><linearGradient id="New_Gradient_Swatch_copy_7-8" x1="176.76" y1="550.41" x2="202.96" y2="550.41" xlink:href="#New_Gradient_Swatch_copy_7"/><linearGradient id="New_Gradient_Swatch_copy_7-9" x1="179.51" y1="544.31" x2="225.38" y2="539.63" xlink:href="#New_Gradient_Swatch_copy_7"/></defs><title>features-3</title><g class="cls-1"><g id="Layer_1" data-name="Layer 1"><g class="cls-2"><path class="cls-3" d="M650.85,684.85c-9,0-17.08-2-23.49-5.66L464.27,584.47c-8.57-5-13.48-12.77-13.48-21.47,0-9.53,5.92-18.41,16.23-24.37l143.13-55.05a57.79,57.79,0,0,1,28.52-7.25c9,0,17.07,1.95,23.49,5.66l109.61,64.22c8.56,4.94,13.47,12.76,13.47,21.46,0,9.53-5.91,18.42-16.22,24.37L679.37,677.6A57.79,57.79,0,0,1,650.85,684.85Z"/><path class="cls-4" d="M467.42,540.44l143.13-55.06a56.66,56.66,0,0,1,28.39-7.05,53.61,53.61,0,0,1,12.38,1.59,45.47,45.47,0,0,1,10.86,4.39l105.77,62c.11.05,3.16,1.86,3.24,1.92,8.37,5,12.19,12.87,11.73,21.34-.47,8.65-7,18.28-16.37,23.7l-88,84a56.56,56.56,0,0,1-27.84,7.09c-8.72,0-16.67-1.89-22.92-5.5l-163.1-94.72c-8.22-4.75-12.88-12.21-12.84-20.48C451.86,554.61,457.52,546.15,467.42,540.44Z"/><path class="cls-5" d="M467.81,542.25l143.13-55.06a55.37,55.37,0,0,1,28.27-6.85,47.33,47.33,0,0,1,23,6.28l105.2,61.64c.21.11,3.05,1.81,3.2,1.94,8.19,5.1,10.92,12.88,10,21.21-.86,7.75-8.08,18.15-16.52,23l-86.41,82.47a55.42,55.42,0,0,1-27.15,6.91c-8.5,0-16.28-1.81-22.37-5.33L465.06,583.77c-7.89-4.55-12.3-11.65-12.22-19.49C452.92,555.75,458.33,547.72,467.81,542.25Z"/><path class="cls-6" d="M468.21,544.06,611.34,489a54.11,54.11,0,0,1,28.14-6.66,51.71,51.71,0,0,1,12.14,2,61.28,61.28,0,0,1,10.61,4.63l104.62,61.3c.31.17,2.95,1.75,3.17,2,8,5.17,9.65,12.82,8.26,21.07-1.16,6.84-9.16,18-16.66,22.36l-84.79,80.93a54.22,54.22,0,0,1-26.47,6.75c-8.28,0-15.88-1.74-21.81-5.16L465.46,583.43c-7.55-4.37-11.71-11.1-11.59-18.51C454,556.89,459.15,549.29,468.21,544.06Z"/><path class="cls-7" d="M468.61,545.87l143.13-55.06c8-4.6,18.19-6.87,28-6.47a52,52,0,0,1,12,2.16,73,73,0,0,1,10.47,4.76l104,61c.41.23,2.84,1.7,3.14,2,7.81,5.26,10.17,13.31,6.51,20.95,0,6.07-10.24,17.9-16.8,21.69L676,676.21a52.86,52.86,0,0,1-25.78,6.58c-8.05,0-15.49-1.67-21.25-5L465.86,583.08c-7.22-4.17-11.13-10.55-11-17.52C455.05,558,460,550.86,468.61,545.87Z"/><path class="cls-8" d="M469,547.67l143.13-55c7.92-4.58,18.18-6.78,27.87-6.27a50.58,50.58,0,0,1,11.92,2.35,87.8,87.8,0,0,1,10.34,4.88L765.75,554.2c.51.29,2.73,1.65,3.11,2,7.62,5.33,9.34,13.44,4.77,20.82,0,5.2-11.32,17.77-16.94,21l-81.56,77.83A51.66,51.66,0,0,1,650,682.28c-7.83,0-15.1-1.6-20.69-4.83l-163.1-94.72c-6.87-4-10.53-10-10.33-16.53C456.12,559.16,460.78,552.42,469,547.67Z"/><path class="cls-9" d="M469.4,549.48l143.13-55.06c7.9-4.55,18.18-6.68,27.75-6.07a49.67,49.67,0,0,1,11.8,2.55,111.1,111.1,0,0,1,10.21,5L765.2,556.18a34.11,34.11,0,0,1,3.08,2c7.43,5.4,8.52,13.57,3,20.69,0,4.33-12.4,17.64-17.09,20.35l-79.93,76.28a50.45,50.45,0,0,1-24.41,6.25c-7.61,0-14.7-1.52-20.14-4.66L466.65,582.38c-6.54-3.78-9.95-9.43-9.71-15.54C457.18,560.3,461.59,554,469.4,549.48Z"/><path class="cls-10" d="M469.8,551.29l143.13-55.06c7.86-4.54,18.17-6.59,27.62-5.87a48.28,48.28,0,0,1,11.68,2.73c1.43.48,8.9,4.44,10.09,5.12l102.33,60a27.14,27.14,0,0,1,3,2c7.25,5.49,7.7,13.71,1.3,20.56,0,3.47-13.49,17.52-17.24,19.68l-78.31,74.75a49.33,49.33,0,0,1-23.72,6.08c-7.38.06-14.31-1.45-19.58-4.5L467.05,582c-6.21-3.58-9.36-8.87-9.08-14.55C458.25,561.44,462.41,555.56,469.8,551.29Z"/><path class="cls-11" d="M470.2,553.1,613.33,498c7.82-4.52,18.16-6.5,27.49-5.68a47.84,47.84,0,0,1,11.56,2.93c1.07.37,9.07,4.72,10,5.24L764.1,560.15a23.93,23.93,0,0,1,3,2c7.06,5.56,6.87,13.84-.44,20.43,0,2.6-14.57,17.39-17.38,19l-76.7,73.2a48,48,0,0,1-23,5.91c-7.16.07-13.91-1.37-19-4.32L467.45,581.69c-5.87-3.39-8.78-8.32-8.46-13.57C459.32,562.58,463.22,557.13,470.2,553.1Z"/><path class="cls-12" d="M470.6,554.9l143.13-55c7.79-4.5,18.15-6.4,27.36-5.48a47.26,47.26,0,0,1,11.45,3.11c.7.26,9.23,5,9.82,5.36l101.19,59.29a21.35,21.35,0,0,1,3,2c6.87,5.64,6,14-2.19,20.3,0,1.73-15.64,17.25-17.52,18.34l-75.08,71.65a46.75,46.75,0,0,1-22.34,5.75c-6.94.08-13.52-1.31-18.46-4.16L467.85,581.34c-5.54-3.2-8.19-7.76-7.83-12.58C460.38,563.72,464,558.69,470.6,554.9Z"/><path class="cls-13" d="M471,556.71l143.14-55.06c7.75-4.47,18.14-6.3,27.22-5.28,4.22.48,7.94,2,11.34,3.31.35.13,9.4,5.31,9.7,5.48L763,564.11a19.91,19.91,0,0,1,3,2.06c6.68,5.72,5.21,14.11-3.93,20.18,0,.86-16.73,17.12-17.66,17.67l-73.46,70.1a45.55,45.55,0,0,1-21.66,5.58c-6.72.09-13.12-1.23-17.91-4L468.24,581c-5.19-3-7.6-7.2-7.2-11.59S464.85,560.26,471,556.71Z"/><path d="M631.73,675.36,468.64,580.64c-9.82-5.67-8.59-15.57,2.75-22.12l143.13-55.06c11.34-6.55,28.5-7.26,38.32-1.59l109.61,64.22c9.82,5.67,8.59,15.58-2.75,22.12l-89.65,85.56C658.71,680.32,641.55,681,631.73,675.36Z"/></g><path class="cls-14" d="M631.73,675.13,468.64,580.41c-4.38-2.52-6.56-5.89-6.63-9.43V558.66c.08-4.3,3.26,3.17,9.38-.37l143.13-55.06c11.34-6.54,28.5-7.25,38.32-1.58l109.61,64.21c3.28,1.9,5.66-6.14,6.51-3.58.28.85.1,12.12.12,13,.09,4.41-3.09,9.07-9.38,12.71l-89.65,85.56C658.71,680.09,641.55,680.81,631.73,675.13Z"/><path class="cls-15" d="M631.73,663,468.64,568.32c-9.82-5.67-8.59-15.57,2.75-22.12l143.13-55.06c11.34-6.55,28.5-7.26,38.32-1.59l109.61,64.22c9.82,5.67,8.59,15.58-2.75,22.12l-89.65,85.56C658.71,668,641.55,668.71,631.73,663Z"/><path class="cls-16" d="M762.45,553.77,652.84,489.55c-9.82-5.67-27-5-38.32,1.59l-72.11,27.74a18.34,18.34,0,0,0,2.24,1.54l163.09,94.72a27.48,27.48,0,0,0,7.8,2.9l44.16-42.15C771,569.35,772.27,559.44,762.45,553.77Z"/><path class="cls-17" d="M759.7,573.84,670.05,659.4c-11.34,6.55-28.5,7.26-38.32,1.59L468.64,566.27c-4.07-2.35-6.22-5.44-6.55-8.71-.51,4,1.63,7.92,6.55,10.76L631.73,663c9.82,5.67,27,5,38.32-1.59l89.65-85.56c6.64-3.83,9.78-8.81,9.31-13.41C768.5,566.47,765.36,570.57,759.7,573.84Z"/><path class="cls-18" d="M828.75,653.68,428.21,422.24c-20.48-11.82-37.08-43.54-37.08-70.84V45.06c0-27.3,16.6-39.85,37.08-28L828.75,248.47c20.48,11.83,37.08,43.55,37.08,70.85V625.65C865.83,653,849.23,665.51,828.75,653.68Z"/><path class="cls-19" d="M833.52,632.36,438.62,404.21C422.15,393.74,412,372.81,412,351.4V43.05a6.57,6.57,0,0,1,9.9-5.66l1.16.68L818.33,266.5C838,277.81,845,297.91,845,319.32V626.7a7.09,7.09,0,0,1-10.61,6.15Z"/><path class="cls-20" d="M818.33,266.5,423,38.07l-1.16-.68a6.57,6.57,0,0,0-9.9,5.66V351.4c0,21.41,10.2,42.34,26.67,52.81l394.9,228.15.87.49A7.09,7.09,0,0,0,845,626.7V319.32C845,297.91,838,277.81,818.33,266.5Zm22.51,360.2a2.93,2.93,0,0,1-4.39,2.54L440.71,400.6c-14.88-9.46-24.59-28.81-24.59-49.2V43.05a2.42,2.42,0,0,1,2.42-2.41,2.46,2.46,0,0,1,1.21.34l396.5,229.13c20.32,11.72,24.59,33.23,24.59,49.21Z"/><path class="cls-21" d="M839.26,242.89,438.71,11.45c-8.1-4.68-15.59-5.54-21.69-3.18-.78.3-11.12,5.79-11.85,6.19l0,0c6.32-3.06,14.33-2.49,23.07,2.55L828.75,248.47c20.48,11.83,37.08,43.55,37.08,70.85V625.65c0,17-6.47,28.33-16.31,31.54a6.16,6.16,0,0,0,3.25-1.1c.47-.27,11.69-6.6,12.14-6.92,7-4.93,11.43-15.07,11.43-29.1V313.74C876.34,286.43,859.74,254.71,839.26,242.89Z"/><path class="cls-22" d="M830.53,247.58,430,16.14c-8.39-4.85-16.11-5.54-22.33-2.85,5.31-.84,11.4.44,17.89,4.19L826.08,248.92c20.48,11.82,37.08,43.54,37.08,70.85V626.1c0,16.11-5.8,27-14.75,30.88,11.44-1.81,19.2-13.56,19.2-32.22V318.43C867.61,291.13,851,259.41,830.53,247.58Z"/><g class="cls-23"><path class="cls-24" d="M301.88,178.67v-7.76l13.1-4.56-13.1-19.7v-12.4l24,36.06Zm2.35-6.09v2.78l18-6.27-18-27.06v3.91l14.38,21.63Z"/></g><g class="cls-25"><path class="cls-24" d="M244.72,146v-7.76l13.1-4.57L244.72,114v-12.4l24,36.05Zm2.35-6.09v2.78l18-6.28-18-27.06v3.91l14.38,21.63Z"/></g><g class="cls-26"><path class="cls-24" d="M273.3,162.32v-7.76L286.4,150l-13.1-19.7V117.91l24,36.05Zm2.35-6.09V159l18-6.27-18-27.06v3.91L290,151.22Z"/></g><g class="cls-27"><path class="cls-24" d="M359,211.37v-7.76L372.13,199,359,179.34V167L383,203Zm2.35-6.09v2.78l18-6.28-18-27.06v3.91l14.38,21.63Z"/></g><g class="cls-28"><path class="cls-24" d="M330.46,195v-7.76l13.1-4.57L330.46,163V150.6l24,36.05Zm2.35-6.09v2.78l18-6.28-18-27.05v3.91l14.38,21.62Z"/></g><g class="cls-23"><path class="cls-24" d="M962.35,640.39v7.42l-12.51,4.36L962.35,671v11.84l-22.91-34.44Zm-2.25,5.82v-2.65l-17.18,6L960.1,675.4v-3.73L946.36,651Z"/></g><g class="cls-25"><path class="cls-24" d="M1017,671.63V679l-12.52,4.37L1017,702.22v11.85l-22.91-34.45Zm-2.25,5.82v-2.66l-17.19,6,17.19,25.85V702.9L1001,682.24Z"/></g><g class="cls-26"><path class="cls-24" d="M989.65,656v7.42l-12.51,4.36,12.51,18.81v11.85L966.75,664Zm-2.24,5.82v-2.65l-17.19,6L987.41,691v-3.74l-13.74-20.66Z"/></g><g class="cls-27"><path class="cls-24" d="M907.74,609.16v7.41l-12.51,4.37,12.51,18.81V651.6l-22.91-34.45ZM905.5,615v-2.66l-17.19,6,17.19,25.85v-3.74l-13.74-20.66Z"/></g><g class="cls-28"><path class="cls-24" d="M935.05,624.78v7.41l-12.52,4.37,12.52,18.81v11.84l-22.91-34.44Zm-2.25,5.82v-2.66l-17.19,6,17.19,25.84v-3.73l-13.74-20.66Z"/></g><g class="cls-29"><path class="cls-30" d="M721.5,592.93,460.09,440.5c-10.84-6.26-19.62-21.41-19.62-33.85V88.73c0-12.44,8.78-17.45,19.62-11.19l242.7,141.63a37.41,37.41,0,0,1,18.71,32.41Z"/><path class="cls-31" d="M440.9,90.81c0-12.34,8.72-17.31,19.47-11.1L700.9,220c10.52,6.07,19.78,18.92,19.78,31.07v336L460.37,435.3c-10.75-6.21-19.47-21.24-19.47-33.57Z"/><path class="cls-32" d="M441.34,92.88c0-12.23,8.65-17.16,19.31-11L699,220.91c9.47,5.47,20.85,18.8,20.85,29.74V581.2L460.65,430.1C450,424,441.34,409,441.34,396.81Z"/><path class="cls-33" d="M441.78,95c0-12.13,8.57-17,19.14-10.91L697.11,221.78c8.42,4.86,21.93,18.68,21.93,28.41V575.33L460.92,424.9c-10.57-6.1-19.14-20.88-19.14-33Z"/><path class="cls-34" d="M442.22,97c0-12,8.5-16.87,19-10.82l234,136.43c7.37,4.25,23,18.57,23,27.08V569.46L461.2,419.7c-10.48-6.05-19-20.71-19-32.73Z"/><path class="cls-35" d="M442.66,99.11c0-11.92,8.42-16.72,18.81-10.72L693.33,223.52c6.31,3.64,24.07,18.45,24.07,25.74V563.59L461.47,414.5c-10.39-6-18.81-20.53-18.81-32.45Z"/><path class="cls-36" d="M443.1,101.19c0-11.82,8.35-16.58,18.65-10.63L691.43,224.38c5.27,3,25.15,18.34,25.15,24.42V557.72L461.75,409.3c-10.3-5.95-18.65-20.35-18.65-32.17Z"/><path class="cls-37" d="M443.54,103.27c0-11.72,8.27-16.44,18.48-10.54L689.54,225.25c4.21,2.44,26.22,18.23,26.22,23.09V551.85L462,404.1c-10.21-5.9-18.48-20.17-18.48-31.89Z"/><path class="cls-38" d="M444,105.34c0-11.61,8.2-16.29,18.32-10.44L687.65,226.12c3.15,1.83,27.29,18.11,27.29,21.75V546L462.3,398.9c-10.12-5.85-18.32-20-18.32-31.61Z"/><path class="cls-39" d="M444.41,107.42c0-11.51,8.14-16.14,18.17-10.35L685.75,227c2.11,1.22,28.37,18,28.37,20.42v292.7L462.58,393.7c-10-5.8-18.17-19.82-18.17-31.33Z"/><path class="cls-40" d="M444.85,109.5c0-11.41,8.06-16,18-10.26l221,128.62c1,.61,29.44,17.87,29.44,19.09V534.24L462.85,388.49c-9.94-5.73-18-19.63-18-31Z"/><path class="cls-41" d="M712.48,528.37,463.13,383.29c-9.85-5.68-17.84-19.46-17.84-30.76v-241c0-11.3,8-15.85,17.84-10.16L712.48,246.49Z"/></g><path class="cls-42" d="M442.33,84.3c0,3.22-.06,283.74-.18,286.86C437.72,487,372.78,490.87,321.66,519.21c-.09,0,201.14,116.69,242.9,140.85l-.24-.07c0,9.31,2.46,16.53,6.69,21.27,7,7.89,19,8.87,32.48,1.06C661.11,650.38,710.25,626.7,714,545.63c.07-1.65.11-302.88.11-304.52Z"/><path class="cls-43" d="M442.33,165.83l271.74,156.8c0-44.94,0-80.91,0-81.52L442.33,84.3Z"/><path class="cls-44" d="M444.44,462.57q-2.64,4.57-5.49,8.73l57.74,33a86.24,86.24,0,0,0,5.53-8.71Z"/><path class="cls-44" d="M410.68,500.56q-4.73,3.54-9.59,6.65l116.82,67.36q5.16-3.2,9.92-6.46Z"/><path class="cls-44" d="M466.3,602.55,478,596.81,359.23,528.34,347,533.79Z"/><path class="cls-44" d="M467,360.67c0,5.39,0,9,0,11.32l109.54,63.16c0-3.54,0-7.31,0-11.33Z"/><path class="cls-44" d="M467,303.85c0,5.38,0,9,0,11.31l66.73,38.36c0-3.53,0-7.31,0-11.32Z"/><path class="cls-44" d="M461.83,415.14q-1.11,5.28-2.41,10.22l74.3,43.05q.63-5.3.92-11.08Z"/><path class="cls-45" d="M466.86,371.91Z"/><path class="cls-46" d="M528.79,659.9l13-5.56-.77-.45Z"/><path class="cls-47" d="M571.13,671h0c0-9.18-3.16-15.75-8.23-19.08l-278-160.3c-6.44-4.47-14.4-5.25-24.25.44l30.82,17.68c.08,8.15,3.28,13.62,8.3,15.72L577.22,686l-.34-.22C573.06,683.09,571.13,678.08,571.13,671Z"/><path class="cls-48" d="M561.39,651,284.88,491.61c-6.44-4.47-14.4-5.25-24.25.44a49,49,0,0,0-7,5c-39,29.54-58.16,95-90.43,112.9,0,0,230,133.13,255.64,148l-.15,0c0,5.72,1.51,10.16,4.11,13.07,4.33,4.86,11.66,5.46,20,.66,36.14-20,60.29-104.78,104.36-121h0C552.55,648.88,557.46,649.08,561.39,651Z"/><path class="cls-49" d="M418.66,757.91a43.58,43.58,0,0,1,3.09-15.31L145.59,583.19l-3.61-2a43.49,43.49,0,0,0-3,15.14c0,8.33,4.65,14,8.86,16.32L425.29,773.17l-.47-.4C421,770.08,418.66,765,418.66,757.91Z"/><polygon class="cls-46" points="561.29 299.3 561.29 325.23 663.9 384.32 663.9 358.39 561.29 299.3"/><polygon class="cls-50" points="663.9 379.89 565.41 323.17 565.41 301.68 561.29 299.3 561.29 325.23 663.9 384.32 663.9 379.89"/><polygon class="cls-44" points="561.29 280.79 561.29 292.48 635.02 334.95 635.02 323.26 561.29 280.79"/><path class="cls-46" d="M330.14,636.26l25.2,14.53c4.41-7.12,8.86-14.48,13.5-21.74l-25.14-14.5C339.11,621.77,334.62,629.13,330.14,636.26Zm15.41-76.66-24.28-14a139.75,139.75,0,0,0-16.13,18.5L329.23,578A145.57,145.57,0,0,1,345.55,559.6Zm81.48,47a143.24,143.24,0,0,0-16,18.55l25.09,14.47a147.8,147.8,0,0,1,16.28-18.41Zm-43.35,60.54,25,14.42c4.4-7.11,8.85-14.47,13.49-21.74l-24.95-14.39C392.65,652.65,388.16,660,383.68,667.13Zm-105.9-61.07,24,13.86c4.41-7.12,8.86-14.48,13.5-21.74l-24-13.82C286.74,591.57,282.25,598.92,277.78,606.06Zm121.31-15.58-25.6-14.77a143.36,143.36,0,0,0-16,18.56l25.31,14.59A145.56,145.56,0,0,1,399.09,590.48ZM222.26,574.05l27.17,15.67c4.4-7.12,8.86-14.48,13.51-21.74l-26.11-15.05C231.9,559.81,227,567,222.26,574.05Zm71.06-44.56-23.66-13.65-.11.1-.5.42-.53.4c-5.34,4-11,9.84-16.66,16.61l25.05,14.45A143.51,143.51,0,0,1,293.32,529.49Z"/><path class="cls-51" d="M225.55,572c4.11-6.11,8.34-12.28,12.6-18.3l-1.32-.76c-4.93,6.88-9.83,14.07-14.57,21.12l27.17,15.67c.6-1,1.2-2,1.8-2.92Z"/><path class="cls-51" d="M308.43,562a148.9,148.9,0,0,1,13.62-16l-.78-.45a139.75,139.75,0,0,0-16.13,18.5L329.23,578c.7-.93,1.42-1.82,2.14-2.73Z"/><path class="cls-51" d="M255.15,531.32a118.64,118.64,0,0,1,14.92-15.24l-.41-.24-.11.1-.5.42-.53.4c-5.34,4-11,9.84-16.66,16.61l25.05,14.45c.7-.92,1.43-1.81,2.15-2.72Z"/><path class="cls-51" d="M281.07,604c3.88-6.18,7.78-12.52,11.74-18.79l-1.47-.85c-4.6,7.21-9.09,14.56-13.56,21.7l24,13.86,1.8-2.93Z"/><path class="cls-51" d="M414.3,623.08a150.88,150.88,0,0,1,13.53-16l-.8-.46a143.24,143.24,0,0,0-16,18.55l25.09,14.47c.7-.93,1.43-1.82,2.14-2.73Z"/><path class="cls-51" d="M387,665.07c3.88-6.18,7.78-12.52,11.74-18.8l-1.48-.85c-4.59,7.23-9.08,14.58-13.56,21.71l25,14.42,1.8-2.92Z"/><path class="cls-51" d="M360.76,592.21a153.17,153.17,0,0,1,13.52-16l-.79-.46a143.36,143.36,0,0,0-16,18.56l25.31,14.59c.7-.92,1.43-1.82,2.14-2.72Z"/><path class="cls-51" d="M333.44,634.2c3.87-6.18,7.78-12.52,11.73-18.8l-1.47-.85c-4.59,7.22-9.08,14.58-13.56,21.71l25.2,14.53c.6-1,1.21-1.95,1.8-2.92Z"/><path class="cls-44" d="M406.79,584q1.56-1.32,3.18-2.49l-25.38-14.63a72.83,72.83,0,0,0-8.47,6.44l25.65,14.79C403.41,586.64,405.07,585.25,406.79,584Z"/><path class="cls-44" d="M239.93,548.64l25.88,14.92q2.78-4.23,5.66-8.34L246,540.55Q243,544.48,239.93,548.64Z"/><path class="cls-44" d="M300.54,523.42q1.84-1.54,3.74-2.89l-24.43-14.08c-1.43,1.19-5,4.54-7.56,7L296,527.1C297.51,525.83,299,524.59,300.54,523.42Z"/><path class="cls-44" d="M405.68,632.6c-1.89,2.74-3.75,5.55-5.59,8.39l25,14.39q2.77-4.23,5.65-8.36Z"/><path class="cls-44" d="M460.32,614.43c.95-.8,1.91-1.54,2.89-2.26l-25.07-14.46a73.1,73.1,0,0,0-8.47,6.44L455,618.78C456.76,617.27,458.51,615.8,460.32,614.43Z"/><path class="cls-44" d="M294.19,579.93l24,13.82q2.76-4.23,5.65-8.35l-24-13.85C297.9,574.29,296,577.09,294.19,579.93Z"/><path class="cls-44" d="M377.36,616.27l-25.22-14.54c-1.89,2.74-3.75,5.55-5.59,8.39l25.16,14.5Q374.47,620.39,377.36,616.27Z"/><path class="cls-44" d="M353.25,553.07c1-.87,2.1-1.69,3.17-2.47l-23.93-13.8a72,72,0,0,0-8.55,6.39l24.29,14C349.87,555.77,351.54,554.37,353.25,553.07Z"/><path class="cls-46" d="M589,392.47,467,321c0,11.83,0,21.19,0,28.59L589,419.9ZM377.14,520.33l-1.42.64,200,115.33c7-3.91,13.75-7.69,20-11.48L396.62,510C390.17,513.85,383.62,517.23,377.14,520.33ZM599.2,398.45v27.32L658.49,460c0-8.06,0-16.94,0-26.75Zm-135.32,5.31L658.44,515.94c0-6.93,0-16.11,0-28.19L466.58,377.1A267.89,267.89,0,0,1,463.88,403.76Zm101.93,146L436.24,475.09a123.38,123.38,0,0,1-14.65,16.32l129.68,74.77A122.5,122.5,0,0,0,565.81,549.8Zm-4.89,21.94,60.89,35.11a107.24,107.24,0,0,0,15.65-15.74L575.6,555.44A122.23,122.23,0,0,1,560.92,571.74ZM589,531.94l61.86,35.67a109.64,109.64,0,0,0,6-23.06L596,509.48A125.53,125.53,0,0,1,589,531.94Zm-3.13-28.3L458.13,430A157,157,0,0,1,450,451.78l129,74.41A127.38,127.38,0,0,0,585.9,503.64Z"/><g class="cls-52"><path class="cls-51" d="M580.26,523.05,451.67,448.9a154.91,154.91,0,0,0,7.09-18.57l-.63-.36A157,157,0,0,1,450,451.78l129,74.41C579.48,525.16,579.87,524.1,580.26,523.05Z"/><path class="cls-51" d="M658.49,456.13l-57.64-33.24V399.41l-1.65-1v27.32L658.49,460Z"/><path class="cls-51" d="M589,416.06,468.67,346.68c0-6.58,0-14.71,0-24.75L467,321c0,11.83,0,21.19,0,28.59L589,419.9Z"/><path class="cls-51" d="M658.44,512.12,465.53,400.88q1.67-10.77,2.46-23l-1.41-.81a267.89,267.89,0,0,1-2.7,26.66L658.44,515.94Z"/><path class="cls-51" d="M623.46,604,563.4,569.34c-.82.8-1.64,1.62-2.48,2.4l60.89,35.11a107.24,107.24,0,0,0,15.65-15.74l-.53-.3A111.19,111.19,0,0,1,623.46,604Z"/><path class="cls-51" d="M565.81,549.8l-.4-.23a125.06,125.06,0,0,1-12.49,13.73L424.07,489c-.83.81-1.64,1.63-2.48,2.41l129.68,74.77A122.5,122.5,0,0,0,565.81,549.8Z"/><path class="cls-51" d="M590.68,529.06A126.35,126.35,0,0,0,596.87,510l-.85-.49a125.53,125.53,0,0,1-7,22.46l61.86,35.67c.4-1,.76-2.12,1.12-3.19Z"/><path class="cls-51" d="M577.39,633.42l-198-114.18c-.74.36-1.49.74-2.23,1.09l-1.42.64,200,115.33c7-3.91,13.75-7.69,20-11.48l-1.64-.94C588.82,627,583.23,630.17,577.39,633.42Z"/></g><polygon class="cls-44" points="635.02 400.58 599.2 379.92 599.2 391.25 635.02 411.9 635.02 400.58"/><path class="cls-44" d="M583.47,544c-1.67,3.07-3.45,6-5.35,8.82l43.65,24.95a87.38,87.38,0,0,0,5.53-8.71Z"/><path class="cls-44" d="M598,494.06c-.37,3.71-.82,7.34-1.4,10.8l37.84,21.93q.63-5.31.91-11.09Z"/><path class="cls-53" d="M292,609a1.85,1.85,0,0,1-1.85-1.74l-.82-14.42a1.85,1.85,0,0,1,3.7-.21l.82,14.41a1.85,1.85,0,0,1-1.74,2Z"/><path class="cls-54" d="M400.41,671.12a1.84,1.84,0,0,1-1.85-1.75L397.73,655a1.85,1.85,0,1,1,3.7-.21l.69,12,28.19-9.14a1.85,1.85,0,0,1,1.14,3.53L401,671A1.88,1.88,0,0,1,400.41,671.12Z"/><path class="cls-55" d="M372.89,598.77a1.86,1.86,0,0,1-1.85-2l1.48-14.36a1.85,1.85,0,1,1,3.69.38l-1.23,12,29.28-4.55a1.85,1.85,0,1,1,.57,3.66l-31.66,4.92Z"/><path class="cls-56" d="M267.57,538.55a1.83,1.83,0,0,1-1.27-.51,1.86,1.86,0,0,1-.57-1.54l1.48-14.36a1.85,1.85,0,1,1,3.68.38l-1.23,12L298.94,530a1.85,1.85,0,1,1,.57,3.66l-31.65,4.91A1.43,1.43,0,0,1,267.57,538.55Z"/><polygon class="cls-44" points="649.94 430.43 644.42 435.47 655.45 441.83 649.94 430.43"/><polygon class="cls-44" points="649.94 449.88 655.45 444.85 644.42 438.48 649.94 449.88"/><path class="cls-57" d="M406.53,236.5s5.75-6.5,9.41-7.59,11.4-.92,12.58.35-1,4.09-3.37,5.74c-2.56,1.77-3.34,2.57-5.32,3.76s-4.54,1.31-8.12,3.63C410.15,243.41,406.53,236.5,406.53,236.5Z"/><ellipse class="cls-58" cx="453.32" cy="240.28" rx="29.41" ry="50.95" transform="translate(-59.3 261.63) rotate(-30.31)"/><path class="cls-59" d="M471.18,269.81a44.3,44.3,0,0,1-7.32-8.07c-6.08,3.46-15.94-2.23-22-12.72h0a13.65,13.65,0,0,1-7.32-.37c-3.81-1.16-6.8.5-7.84,4.2,6.61,12.1,16.08,22.8,26.64,28.9,10.17,5.87,19.35,6.33,25.91,2.35A24.91,24.91,0,0,0,471.18,269.81Z"/><polygon class="cls-60" points="441.84 249.02 438.93 254.8 452.98 260.63 441.84 249.02"/><polygon class="cls-61" points="463.93 261.77 466.85 270.92 452.79 260.52 463.93 261.77"/><path class="cls-62" d="M463.86,261.73c-.69-1-1.35-2-2-3-1.56-2.58-1.62-5.5-.11-6.37a12,12,0,0,0,4.83-5.36c1.64.45,2.86-.64,3.11-2.73.35-3-.45-4.47-1.8-5.73-.41-9.83-3.76-19.93-15.07-26.46s-14.66-.3-15.06,9.06c-1.36-.3-2.24.84-1.8,3.65a10.72,10.72,0,0,0,3.11,6.32A52.74,52.74,0,0,0,443.93,242c1.49,2.6,1.56,5.37,0,6.18a9.49,9.49,0,0,1-2.12.81h0c6.08,10.49,15.94,16.18,22,12.71Z"/><path class="cls-63" d="M437.79,221.12c2,1.18,2.75,4.64,2.75,4.64s.09-3,.09-5.17.67-10.08,7.22-3.79,8.45,10.55,11.68,11.65,5.42,1.6,5.42,4.43.28,5.83.28,5.83a3.2,3.2,0,0,1,2.69-.19v-9.59c0-5.34-5.64-18.67-18.36-21.28C437.12,205.1,437.79,207.72,437.79,221.12Z"/><path class="cls-64" d="M422.28,226.69c.75.12,1.38,1.31.2,2.5s-2.81,2.05-3.86,2.95-6,1.66-6,1.66Z"/><path class="cls-65" d="M413,229.66c.52-.64,3.83-2.07,5.21-2.59s1.9-1.63,2.57-1.47,1.72,1.44-1,3.37-4.37,3-5.63,4.49-3.86,4.26-5.13,4.07-1.42-2.17-1.42-2.17S412.45,230.29,413,229.66Z"/><path class="cls-66" d="M409,232.86a4.38,4.38,0,0,1,3.34,2.7c1,2.43.83,7.11.83,7.11l-32,15s-11.43,8.5-14.72,1c-3.13-7.19.57-10.29,12.13-13.43a133.12,133.12,0,0,0,22.6-8.38C404.61,235.22,409,232.86,409,232.86Z"/><path class="cls-64" d="M413.05,239.26c.11,2.19.09,3.41.09,3.41l-32,15s-12.47,7.71-15.8.25c4.74-1.36,21.1-4.92,30.95-9.88C405.31,243.48,410.76,240.53,413.05,239.26Z"/><polygon class="cls-67" points="387.7 261.09 304.86 475.3 312.53 472.53 395.37 258.33 387.7 261.09"/><polygon class="cls-68" points="387.72 261.1 304.88 475.3 299.5 472.25 382.33 258.06 387.72 261.1"/><polygon class="cls-69" points="382.33 258.06 387.72 261.1 395.37 258.33 389.96 255.29 382.33 258.06"/><polygon class="cls-70" points="397.61 364.7 395.38 370.48 403.05 367.72 405.28 361.94 397.61 364.7"/><polygon class="cls-71" points="397.63 364.7 395.4 370.49 354.17 347.46 356.39 341.7 397.63 364.7"/><polygon class="cls-72" points="356.39 341.7 397.63 364.7 405.28 361.94 364.02 338.92 356.39 341.7"/><polygon class="cls-73" points="388.64 387.95 386.41 393.73 394.08 390.97 396.31 385.19 388.64 387.95"/><polygon class="cls-74" points="388.66 387.95 386.43 393.73 345.2 370.71 347.42 364.94 388.66 387.95"/><polygon class="cls-75" points="347.42 364.94 388.66 387.95 396.31 385.19 355.05 362.16 347.42 364.94"/><polygon class="cls-76" points="379.64 411.28 377.41 417.07 385.08 414.31 387.31 408.52 379.64 411.28"/><polygon class="cls-77" points="379.66 411.28 377.43 417.07 336.19 394.05 338.42 388.28 379.66 411.28"/><polygon class="cls-78" points="338.42 388.28 379.66 411.28 387.31 408.52 346.05 385.5 338.42 388.28"/><polygon class="cls-79" points="370.67 434.53 368.44 440.31 376.11 437.55 378.34 431.77 370.67 434.53"/><polygon class="cls-80" points="370.69 434.53 368.46 440.31 327.23 417.29 329.45 411.52 370.69 434.53"/><polygon class="cls-81" points="329.45 411.52 370.69 434.53 378.34 431.77 337.08 408.74 329.45 411.52"/><polygon class="cls-82" points="425.1 294.9 422.87 300.69 430.54 297.92 432.77 292.14 425.1 294.9"/><polygon class="cls-83" points="425.12 294.9 422.88 300.69 381.65 277.66 383.88 271.9 425.12 294.9"/><polygon class="cls-84" points="383.88 271.9 425.12 294.9 432.77 292.14 391.5 269.12 383.88 271.9"/><polygon class="cls-85" points="416.13 318.15 413.9 323.93 421.57 321.17 423.8 315.39 416.13 318.15"/><polygon class="cls-86" points="416.15 318.15 413.92 323.93 372.69 300.91 374.91 295.14 416.15 318.15"/><polygon class="cls-87" points="374.91 295.14 416.15 318.15 423.8 315.39 382.54 292.36 374.91 295.14"/><polygon class="cls-88" points="407.13 341.48 404.89 347.27 412.57 344.51 414.8 338.72 407.13 341.48"/><polygon class="cls-89" points="407.14 341.48 404.91 347.27 363.68 324.25 365.91 318.48 407.14 341.48"/><polygon class="cls-90" points="365.91 318.48 407.14 341.48 414.8 338.72 373.53 315.7 365.91 318.48"/><polygon class="cls-91" points="361.74 457.68 359.5 463.47 367.18 460.7 369.41 454.92 361.74 457.68"/><polygon class="cls-92" points="361.75 457.68 359.52 463.47 318.29 440.44 320.52 434.68 361.75 457.68"/><polygon class="cls-93" points="320.52 434.68 361.75 457.68 369.41 454.92 328.14 431.9 320.52 434.68"/><polygon class="cls-94" points="352.77 480.93 350.54 486.71 358.21 483.95 360.44 478.17 352.77 480.93"/><polygon class="cls-95" points="352.78 480.93 350.55 486.71 309.32 463.69 311.55 457.92 352.78 480.93"/><polygon class="cls-96" points="311.55 457.92 352.78 480.93 360.44 478.17 319.17 455.14 311.55 457.92"/><path class="cls-97" d="M339.08,390.86s-1.56,3.18-1.18,4.73,3.23,3.33,6,2.64,4.34-3,5.42-3.51,6.51,0,11.16-2.53,4.89-6.34.94-7.23-11.52-.56-14.42.6S339.08,390.86,339.08,390.86Z"/><path class="cls-98" d="M340.22,394.88c2.71,1.18,6.83-.55,8.81-1.61s4.77.28,9.22-1.95,6.23-4,4.69-5.41-7.95-2.39-13.48-.73-9.24,2.91-9.24,2.91-2,3.44-1.54,4.37S338.67,394.21,340.22,394.88Z"/><path class="cls-99" d="M357.68,310.12s-21.07,81.24-19.45,82.52c2.12,1.7,7.54,2.65,11.66-.49s5.59-6.73,5.33-7.52,22.17-69.27,22.17-69.27Z"/><path class="cls-64" d="M371.26,313.73l-13.58-3.61s-21.07,81.24-19.45,82.52,5.15,2.14,8.56,1.09Z"/><path class="cls-97" d="M369.42,376.43s-2.48,3.83-1,5.18a8.41,8.41,0,0,0,6.53,2.13c2.43-.41,3.58-1.15,5.9-.56s12.47-1.57,14.77-3.32,1.19-4.7-3.21-5.48-10.72-1.82-11.91-1.71S369.42,376.43,369.42,376.43Z"/><path class="cls-100" d="M370.57,380c3.93,1.5,5.51.71,9.45.88s15.66-1.43,16.07-3.87-2.16-2.54-4.28-2.87-8.8-1.55-9.31-1.68-12.44,2-12.44,2-1.66,3.28-1.08,4S369.51,379.61,370.57,380Z"/><path class="cls-101" d="M366.12,332c2.78,4.12,15,7.86,15,7.86s-14,36.2-12.07,38.16c3.09,3.08,14.07-.39,15.36-1.62S403.44,338,400.3,330.32s-30.06-19.21-30.06-19.21S361.81,325.61,366.12,332Z"/><path class="cls-64" d="M374.78,379.2c1.32-8.06,15-39.81,15-39.81L369,325.91l-4,2.5a7.77,7.77,0,0,0,1.15,3.6c2.78,4.12,15,7.86,15,7.86s-14,36.2-12.07,38.16C370.15,379.17,372.37,379.41,374.78,379.2Z"/><path class="cls-102" d="M398.77,228.16c2.43,1.82,4.72,4.53,3.58,11.29s-1.7,10-3.21,10.64-2.36-.45-3,1.38a21.07,21.07,0,0,0-.68,5l-14.06-6.1a7,7,0,0,0,1-4.77c-.48-2.6-3.83-8.13.73-14.45S395.9,226,398.77,228.16Z"/><path class="cls-103" d="M403.34,235c-.2,1.3-1.38,3.23-3.23,3a2.79,2.79,0,0,0-2.92,2.87c.21,1.09-.11,1.3-.11,1.3s-1.24-.79-2.05.17-.44,3.41-.2,4.36-3.31,3.07-5.84,2.8-5.85-1.18-6.69-2.67A14.28,14.28,0,0,1,381,233.65c2.73-6.6,9.84-9.51,15.49-7.25S403.62,233.13,403.34,235Z"/><path class="cls-46" d="M397.16,260.76s-.55-5.85-3.72-7.15-11.06-6.44-11.06-6.44-2.68.22-1.23,2.87S397.16,260.76,397.16,260.76Z"/><path class="cls-104" d="M385.9,253.22a37.68,37.68,0,0,1-5.65-4.07,60.48,60.48,0,0,0-7.42-1.07,7.78,7.78,0,0,0-8.05,6.71c-.69,5.1-13.91,63.63-13.89,65.38s2.59,5.19,11,9.63c14.51,7.66,29.48-.69,33.66-4.28,1.44-1.23.56-10.32,2.47-30.06,1.12-11.61,4.79-23.36,2.16-28.21-3.71-6.86-7.73-10.75-10.68-12.15A31.67,31.67,0,0,1,385.9,253.22Z"/><path class="cls-64" d="M397.51,261.23c-1.06-2.16-3.4-5.26-6-6.09s-7.44-2.84-8.89-4.4c-1.67-1.79-1.66-3-1.66-3l-4.22.71a14.1,14.1,0,0,0,6.65,8c5.21,2.74,8.77,3.19,12.34,6.29a38.56,38.56,0,0,1,5.3,5.53Z"/><path class="cls-105" d="M397.51,261.23c-1.06-2.16-3.47-5.09-6-6.09A33.08,33.08,0,0,1,381,247.7l-4.22.71a18.82,18.82,0,0,0,7.58,7.83c5.2,2.73,9.28,3.34,12.28,6.64a53.75,53.75,0,0,1,4.43,5.38Z"/><path class="cls-64" d="M380.84,234.2a15.2,15.2,0,0,0,6.38,4.21,23.81,23.81,0,0,0,10.16,1.33,2,2,0,0,0-.19,1.11c.21,1.09-.11,1.3-.11,1.3s-1.24-.79-2.05.17-.44,3.41-.2,4.36-3.31,3.07-5.84,2.8-5.85-1.18-6.69-2.67A14.32,14.32,0,0,1,380.84,234.2Z"/><path class="cls-106" d="M416.26,292.48a34,34,0,0,1-.66-5.44c.08-1-1.51-5-.76-5.67s1.51.28,2.11,1.15l1.63,2.39a19.18,19.18,0,0,1,2.63-.93c.73-.12,4.84,1.71,5.49,3.1a3.68,3.68,0,0,1-.2,3.57c-1,1.79-3.69,4.34-4.06,5.29S416.26,292.48,416.26,292.48Z"/><path class="cls-107" d="M389.94,274.62c2.22-5.21,5.11-6.95,5.11-6.95s-4.84-3.3-14.82-9.06a84,84,0,0,1-12.6-8.82,7.33,7.33,0,0,0-2.85,5c-.69,5.1-13.91,63.63-13.89,65.38s2.59,5.19,11,9.63c7.6,4,15.32,3.62,21.56,1.83.95-9.91,3.33-37.23,4.17-48.83l9.25,28.61c.2-4.26.53-9.53,1.15-16,.36-3.76,1-7.53,1.59-11.08Z"/><path class="cls-108" d="M394,265.47c-5.05.66-9.06,5.17-7.17,11.64s9.76,23,13.44,26.48,8,4.48,12.64,1.89,9.66-4.48,10.05-8.36-4.18-7.66-6.56-7.76-6.57,2.38-7.67,1.49S404.46,278,403.27,274,400.08,264.67,394,265.47Z"/><polygon class="cls-109" points="434.34 287.17 351.5 501.35 359.18 498.59 442.01 284.41 434.34 287.17"/><polygon class="cls-110" points="434.35 287.17 351.52 501.35 346.14 498.3 428.97 284.14 434.35 287.17"/><polygon class="cls-111" points="428.97 284.14 434.35 287.17 442.01 284.41 436.6 281.36 428.97 284.14"/><ellipse class="cls-112" cx="505.58" cy="266.19" rx="30.16" ry="52.24" transform="translate(-65.23 291.55) rotate(-30.31)"/><path class="cls-113" d="M519.4,286.14a34.81,34.81,0,0,1-5.63-6.19l0-.07h0l0,0,0,0h0l0,0c-.54-.76-1.05-1.55-1.54-2.35-1.21-2-1.26-4.28-.08-5a9.32,9.32,0,0,0,3.76-4.17c1.28.35,2.22-.5,2.42-2.13.27-2.3-.35-3.47-1.4-4.46v-7.45c0-4.16-4.39-14.53-14.29-16.56-9.67-2-9.16,0-9.16,10.48-1.05-.23-1.73.65-1.4,2.84a8.38,8.38,0,0,0,2.42,4.92,41.85,41.85,0,0,0,3.76,8.51c1.17,2,1.21,4.18,0,4.81a7.81,7.81,0,0,1-1.65.63h0a10.62,10.62,0,0,1-5.7-.29c-3-.9-5.29.39-6.1,3.27,5.14,9.41,12.51,17.74,20.73,22.48,7.91,4.57,15,4.92,20.16,1.83A19.36,19.36,0,0,0,519.4,286.14Z"/><path class="cls-114" d="M522.19,315a26.28,26.28,0,0,1-4.75-.45,1.23,1.23,0,1,1,.44-2.43,24.29,24.29,0,0,0,4.34.41h.33a1.31,1.31,0,0,1,1.26,1.21A1.25,1.25,0,0,1,522.6,315Zm7.61-1.44a1.24,1.24,0,0,1-.48-2.38,16.66,16.66,0,0,0,3.95-2.32,1.23,1.23,0,1,1,1.53,1.93,18.62,18.62,0,0,1-4.53,2.67A1.17,1.17,0,0,1,529.8,313.6Zm-19.21-1.15a1.15,1.15,0,0,1-.48-.1,44.55,44.55,0,0,1-4.56-2.24,1.23,1.23,0,1,1,1.21-2.15,43.91,43.91,0,0,0,4.31,2.12,1.23,1.23,0,0,1-.48,2.37ZM500,306.21a1.23,1.23,0,0,1-.75-.25c-1.32-1-2.63-2.06-3.9-3.18a1.23,1.23,0,1,1,1.63-1.85c1.22,1.07,2.49,2.1,3.76,3.06a1.24,1.24,0,0,1,.24,1.73A1.23,1.23,0,0,1,500,306.21Zm38.84-.73a1.16,1.16,0,0,1-.62-.17,1.22,1.22,0,0,1-.45-1.68,24.33,24.33,0,0,0,1.91-4.29,1.24,1.24,0,0,1,2.35.8,26.42,26.42,0,0,1-2.13,4.72A1.21,1.21,0,0,1,538.8,305.48Zm-48-7.56a1.23,1.23,0,0,1-.9-.4q-1.69-1.83-3.3-3.78a1.23,1.23,0,1,1,1.9-1.57c1,1.26,2.11,2.49,3.21,3.67a1.23,1.23,0,0,1-.07,1.74A1.19,1.19,0,0,1,490.82,297.92Zm51.56-4.17h-.14a1.22,1.22,0,0,1-1.09-1.36,43.59,43.59,0,0,0,.25-4.79c0-1.34,0-2.68-.16-4a1.23,1.23,0,0,1,2.46-.2c.11,1.43.17,2.84.17,4.23a46.05,46.05,0,0,1-.27,5.07A1.23,1.23,0,0,1,542.38,293.75Zm-59.26-5.48a1.23,1.23,0,0,1-1-.53c-1-1.38-1.85-2.78-2.73-4.21a1.24,1.24,0,1,1,2.11-1.29c.85,1.39,1.74,2.76,2.65,4.1a1.23,1.23,0,0,1-1,1.93Zm-6.29-10.63a1.23,1.23,0,0,1-1.1-.68q-1.14-2.25-2.13-4.54a1.23,1.23,0,0,1,2.26-1q1,2.22,2.07,4.41a1.23,1.23,0,0,1-.55,1.66A1.17,1.17,0,0,1,476.83,277.64Zm64.61-.29a1.24,1.24,0,0,1-1.21-1c-.31-1.56-.69-3.15-1.13-4.72a1.24,1.24,0,0,1,2.39-.66c.44,1.63.84,3.28,1.16,4.89a1.23,1.23,0,0,1-1,1.46Zm-69.37-11.1a1.24,1.24,0,0,1-1.17-.85c-.53-1.6-1-3.21-1.43-4.81a1.24,1.24,0,0,1,2.39-.63c.4,1.55.87,3.11,1.39,4.66a1.24,1.24,0,0,1-.79,1.56A1.34,1.34,0,0,1,472.07,266.25ZM538,265.5a1.25,1.25,0,0,1-1.16-.8q-.86-2.26-1.85-4.5a1.23,1.23,0,0,1,2.25-1c.69,1.53,1.32,3.08,1.91,4.64a1.24,1.24,0,0,1-.72,1.59A1.31,1.31,0,0,1,538,265.5Zm-5.19-11.21a1.24,1.24,0,0,1-1.08-.64c-.78-1.42-1.61-2.83-2.47-4.21a1.23,1.23,0,1,1,2.1-1.3q1.32,2.12,2.54,4.32a1.25,1.25,0,0,1-.49,1.68A1.3,1.3,0,0,1,532.8,254.29Zm-63.64,0a1.24,1.24,0,0,1-1.22-1.05c-.25-1.7-.43-3.38-.54-5a1.24,1.24,0,0,1,1.16-1.31,1.22,1.22,0,0,1,1.31,1.16c.1,1.56.27,3.18.51,4.81a1.23,1.23,0,0,1-1,1.4Zm57-10.35a1.21,1.21,0,0,1-1-.5c-1-1.31-2-2.58-3-3.82A1.23,1.23,0,0,1,524,238c1.07,1.27,2.11,2.59,3.11,3.93a1.23,1.23,0,0,1-.25,1.73A1.2,1.2,0,0,1,526.13,243.9Zm-57.42-2h-.11a1.23,1.23,0,0,1-1.12-1.34,39.33,39.33,0,0,1,.78-5,1.23,1.23,0,0,1,2.41.54,36.12,36.12,0,0,0-.73,4.72A1.25,1.25,0,0,1,468.71,241.94Zm49.34-7.37a1.22,1.22,0,0,1-.87-.36c-1.17-1.15-2.37-2.26-3.57-3.29a1.23,1.23,0,0,1,1.6-1.88c1.25,1.07,2.5,2.22,3.71,3.41a1.24,1.24,0,0,1,0,1.75A1.27,1.27,0,0,1,518.05,234.57ZM472,230.11a1.34,1.34,0,0,1-.58-.14,1.24,1.24,0,0,1-.51-1.67,22.56,22.56,0,0,1,2.94-4.31,1.24,1.24,0,0,1,1.86,1.63,20.21,20.21,0,0,0-2.62,3.83A1.23,1.23,0,0,1,472,230.11Zm36.54-3.38a1.23,1.23,0,0,1-.68-.21c-.94-.63-1.9-1.22-2.86-1.78-.42-.24-.85-.48-1.27-.7a1.24,1.24,0,0,1,1.17-2.18l1.33.74c1,.59,2,1.21,3,1.87a1.23,1.23,0,0,1-.69,2.26Zm-27.9-5.13a1.23,1.23,0,0,1-.53-2.35,19.32,19.32,0,0,1,5-1.57,1.23,1.23,0,0,1,.42,2.43,17.2,17.2,0,0,0-4.38,1.37A1.28,1.28,0,0,1,480.61,221.6Zm16.88-.35a1.21,1.21,0,0,1-.38-.06,30.71,30.71,0,0,0-4.61-1.1,1.23,1.23,0,1,1,.37-2.44,33,33,0,0,1,5,1.19,1.23,1.23,0,0,1-.37,2.41Z"/><path class="cls-115" d="M470.9,117.08l19.1,11v7.53l-11.88-6.86v14.69l9.32,5.38v7.54L478.12,151v23l-7.22-4.17Z"/><path class="cls-116" d="M495.78,181.47A23.23,23.23,0,0,1,493,170V142.32c0-4.22.95-6.94,2.83-8.16s4.59-.82,8.14,1.23a21.15,21.15,0,0,1,8.14,8.17A23.15,23.15,0,0,1,514.88,155V182.7q0,6.33-2.82,8.17t-8.14-1.24A21.13,21.13,0,0,1,495.78,181.47Zm11.88-2.41V150.28c0-3.46-1.25-5.92-3.74-7.36s-3.74-.42-3.74,3v28.78c0,3.47,1.24,5.92,3.74,7.36S507.66,182.53,507.66,179.06Z"/><path class="cls-117" d="M519.74,145.28l10.7,6.18a21.26,21.26,0,0,1,8.14,7.67,21,21,0,0,1,2.57,10.64V173q0,8.22-4.73,7.67v.15a13.27,13.27,0,0,1,3.71,5.84,26.88,26.88,0,0,1,1.08,8.08V204c0,1.5,0,2.75.13,3.73a15,15,0,0,0,.66,3.13l-7.35-4.25a18.59,18.59,0,0,1-.53-2.71c-.09-.81-.13-2.19-.13-4.15v-9.64a12.75,12.75,0,0,0-1-5.64,8.59,8.59,0,0,0-3.51-3.46l-2.5-1.44v22.6L519.74,198Zm9.85,28.29c1.44.83,2.53,1,3.25.59s1.08-1.66,1.08-3.67v-4.07a10.53,10.53,0,0,0-.88-4.65,6.74,6.74,0,0,0-2.79-2.89L527,157v15.07Z"/><path class="cls-118" d="M546.2,160.55l10.31,6,4.59,40.39.14.08,4.59-35.09,10.31,6v52.74l-6.83-4V186.71l-.13-.08-5.25,36.9-6-3.49-5.26-43-.13-.08v39.93l-6.3-3.64Z"/><g class="cls-119"><path class="cls-46" d="M777.75,328.35c0,4.52-3.2,6.34-7.13,4.06a15.71,15.71,0,0,1-7.14-12.3c0-4.52,3.2-6.34,7.14-4.07A15.76,15.76,0,0,1,777.75,328.35Z"/><path class="cls-46" d="M767.05,256.7c-.39-.23-.78-.39-1.17-.61v8.18c.39.22.78.38,1.17.61,29.5,17,53.5,58.42,53.5,92.27,0,.1,0,.18,0,.27l7.13,4.12c0-.09,0-.18,0-.27C827.68,322.91,800.48,276,767.05,256.7Z"/><path class="cls-46" d="M767.05,289.44c-.4-.24-.77-.33-1.17-.54v8.18c.4.21.77.31,1.17.54,13.77,7.95,25,27.27,25,43.06,0,.1,0,.17,0,.26l7.13,4.12a2.3,2.3,0,0,0,0-.26C799.15,324.49,784.75,299.65,767.05,289.44Z"/><path class="cls-46" d="M767.05,273.07c-.39-.23-.78-.4-1.17-.61v8.18c.39.22.78.38,1.17.61,21.63,12.49,39.23,42.85,39.23,67.67,0,.09,0,.17,0,.27l7.13,4.11c0-.09,0-.17,0-.27C813.41,323.7,792.62,287.82,767.05,273.07Z"/></g><path class="cls-44" d="M330.94,656l-3.8-2.18,1.92-2.58,11.21,6.46-1.92,2.58-3.79-2.18-11.48,15.48-3.63-2.09Z"/><path class="cls-44" d="M342,658.68l3.63,2.09-5.46,7.36,3.9,2.24,5.45-7.36,3.63,2.1-13.4,18.06-3.63-2.09,6-8.13-3.89-2.25-6,8.13-3.62-2.09Z"/><path class="cls-44" d="M358.66,668.28l4.91,2.83-9.64,20.23-3.62-2.09,2-4,0,.06L348.15,683l-3.28,3.15-3.36-1.94Zm-5,14.36,5-9.86-.06,0-8.2,8Z"/><path class="cls-44" d="M369.08,674.29l4.55,2.62-4.49,12.85.06,0,8-10.82,3.23,1.87-13.4,18.06-3.72-2.15,5.43-15.69-.07,0-9.78,13.18-3.23-1.86Z"/><path class="cls-44" d="M383.15,682.41l3.63,2.09-5.65,7.61,10.26-5,3.63,2.09-9.24,4.14-4.09,14-3.79-2.19,2.9-9.82-3.15,1.46-4.27,5.76-3.62-2.09Z"/><path class="cls-44" d="M397.71,705.61l3.31-12.9,3.85,2.22L402.43,703l.07,0,7.38-5.21,3.53,2-12.07,7.84-5.71,7.69L392,713.3Z"/><path class="cls-44" d="M402.91,718.26a4.79,4.79,0,0,1,1.08-4.17l7-9.49a6,6,0,0,1,3.9-2.54,7.49,7.49,0,0,1,5,1.17,6.22,6.22,0,0,1,3.21,3.55A4.82,4.82,0,0,1,422,711L415,720.44a6,6,0,0,1-3.9,2.54,7.55,7.55,0,0,1-5-1.17A6.22,6.22,0,0,1,402.91,718.26Zm8.32.27,7.31-9.85q1.32-1.78-.55-2.87a2.2,2.2,0,0,0-3.2.7l-7.31,9.85c-.88,1.19-.7,2.15.56,2.87A2.19,2.19,0,0,0,411.23,718.53Z"/><path class="cls-44" d="M416.19,725.94a4.86,4.86,0,0,1,1.11-4.17L427.52,708l3.63,2.1-10.38,14a2,2,0,0,0-.51,1.62,2,2,0,0,0,1.06,1.2,2.15,2.15,0,0,0,3.15-.69l10.37-14,3.49,2L428.11,728a6,6,0,0,1-3.88,2.57,7.32,7.32,0,0,1-4.89-1.15A6,6,0,0,1,416.19,725.94Z"/><path class="cls-44" d="M429.9,731.25l3.49,2-2,2.74-3.5-2Zm5.71-7.83,5.59-7.54,3.63,2.1-5.59,7.53L434.51,731l-2.7-1.56Z"/><path class="cls-97" d="M739.59,716.38s-.89,3.43-.2,4.87,3.84,2.61,6.38,1.37,3.63-3.84,4.59-4.52,6.38-1.31,10.43-4.74,3.5-7.2-.55-7.27-11.39,1.79-14,3.5S739.59,716.38,739.59,716.38Z"/><path class="cls-120" d="M741.51,720.09c2.9.6,6.59-1.92,8.3-3.37s4.74-.68,8.65-3.77,5.28-5.21,3.5-6.24-8.28-.74-13.35,2-8.47,4.71-8.47,4.71-1.23,3.77-.62,4.6S739.87,719.74,741.51,720.09Z"/><path class="cls-121" d="M741.48,633.55a66.47,66.47,0,0,0-.72,21c1.44,11.73-.82,35.29-1.34,43.63s-1.86,19.17,0,20.41c2.27,1.51,7.63.79,11-3.12s4.12-7.72,3.71-8.44,4.32-34.47,4.11-39.93S756.09,636,756.09,636Z"/><path class="cls-97" d="M761.13,728.59s-1.5,4.46.35,5.42a8.64,8.64,0,0,0,7.06.48c2.34-1,3.3-2.06,5.77-2.06s12.07-4.73,13.92-7.06,0-5-4.59-4.67-11.19.9-12.35,1.31S761.13,728.59,761.13,728.59Z"/><path class="cls-122" d="M763.19,731.89c4.31.5,5.7-.69,9.68-1.51s15.29-5.41,15.08-8-2.81-2-5-1.8-9.19.69-9.74.69-11.94,5.15-11.94,5.15-.82,3.7-.07,4.25S762,731.75,763.19,731.89Z"/><path class="cls-123" d="M754.86,636.63s-2.58,5.56-.11,15.13,5.36,20.89,5.46,33-1.34,43.53.51,45.28,8.37,2.35,11,.41c4.3-3.15,6.59-7.62,6.18-9.16s2.36-34.06,1.64-45.69-2.67-42-2.67-42Z"/><path class="cls-124" d="M760,637.87l-6.07,9.38a34.46,34.46,0,0,0,.82,4.51c2.47,9.57,5.36,20.89,5.46,33s-1.34,43.53.51,45.28c1.2,1.13,4.34,1.77,7.14,1.56.64-13,2.4-49.46,2.23-54.85C769.89,670.19,760,637.87,760,637.87Z"/><path class="cls-124" d="M751.77,670l1.65-27.8-12.3-6.74a69.2,69.2,0,0,0-.36,19.09c1.44,11.73-.82,35.29-1.34,43.63s-1.86,19.17,0,20.41,6.15.93,9.45-1.65Z"/><path class="cls-125" d="M829.18,586.42c0,6.17-2.13,10.54-5.59,12.65l-3.68,2.34c-3.6,2-1.29-2.56-6.76-5.71-11-6.36-19.93-21.75-19.93-34.37,0-6.25-5.77-6.3-2.23-8.38l4.36-2.44c3.59-1.94,8.5-1.58,13.91,1.54C820.26,558.41,829.18,573.79,829.18,586.42Z"/><path class="cls-126" d="M775,566.74s7-4.94,10.69-5.17,11.12,1.66,12,3.14c.75,1.31-1.85,3.69-4.5,4.74-2.85,1.13-3.77,1.72-5.93,2.41s-4.64.25-8.58,1.68C777,574.16,775,566.74,775,566.74Z"/><ellipse class="cls-127" cx="805.08" cy="577.41" rx="16.22" ry="28.09" transform="translate(-181.36 485.25) rotate(-30.31)"/><path class="cls-64" d="M791.63,560.9c.7.28,1,1.55-.36,2.43s-4.75,2.17-5.95,2.8-6,.5-6,.5Z"/><path class="cls-128" d="M782.73,561.63c.63-.5,4.13-1.13,5.56-1.32s2.18-1.14,2.78-.83,1.33,1.75-1.74,3-4.84,1.89-6.38,3-4.64,3.23-5.82,2.76-.87-2.39-.87-2.39S782.09,562.12,782.73,561.63Z"/><path class="cls-129" d="M778.18,563.81a4.3,4.3,0,0,1,2.6,3.32c.41,2.55-.79,7-.79,7l-24.87,6S745.77,584,744.3,576c-1.4-7.57,3.58-8.23,15.27-9.62C771.78,564.94,778.18,563.81,778.18,563.81Z"/><path class="cls-64" d="M780.67,570.84c-.39,2.11-.68,3.28-.68,3.28l-24.87,6s-9.28,3.85-10.81-4c4.84-.24,7.85,2,18.38-.57C772.32,573.15,778.19,571.54,780.67,570.84Z"/><path class="cls-130" d="M765.39,540.62c2.73,1.34,5.49,3.57,5.62,10.43s.21,10.16-1.16,11.05-2.4,0-2.68,1.92a21.17,21.17,0,0,0,.28,5.07l-15-3.36a7.05,7.05,0,0,0,.07-4.87c-1-2.47-5.28-7.27-2-14.34S762.16,539.05,765.39,540.62Z"/><path class="cls-131" d="M771.15,546.46c.05,1.31-.75,3.43-2.61,3.56a2.79,2.79,0,0,0-2.33,3.36c.41,1,.14,1.31.14,1.31s-1.37-.55-2,.55.2,3.43.62,4.32-2.68,3.63-5.22,3.84-6-.07-7.06-1.37A14.27,14.27,0,0,1,749,549.34c1.44-7,7.89-11.18,13.86-10S771.08,544.6,771.15,546.46Z"/><path class="cls-132" d="M769.9,573s-1.48-4.66-4.7-5.86c-4.55-1.7-12.36-4.73-12.36-4.73s-2.59.72-.67,3S769.9,573,769.9,573Z"/><path class="cls-133" d="M757.43,567.65a37.92,37.92,0,0,1-6.31-2.95,60.75,60.75,0,0,0-7.49.34,7.78,7.78,0,0,0-6.66,8.09c.28,5.15-1.19,66.11-.85,67.83s3.06,5.72,12,8.88,26.25,2.65,30-3c2.93-4.46-1.52-21.29-2.06-39.7-.34-11.66,3.84-21.77-1.1-27.8s-10.49-9.68-13.65-10.5A29.61,29.61,0,0,1,757.43,567.65Z"/><path class="cls-64" d="M770.33,573.35a14.74,14.74,0,0,0-8-4.64c-2.68-.34-6.86-1.62-8.58-2.89-2-1.45-2.19-2.68-2.19-2.68l-4,1.49a12.17,12.17,0,0,0,7.52,6.48c5.62,1.71,9.72,1.66,13.8,4a38.51,38.51,0,0,1,6.24,4.44Z"/><path class="cls-134" d="M770.33,573.35a17,17,0,0,0-7-4.87,73.06,73.06,0,0,1-11.75-5.34l-4,1.49a17.37,17.37,0,0,0,8.6,6c5.63,1.72,10,1.82,13.61,4.49a54.78,54.78,0,0,1,5.35,4.46Z"/><path class="cls-64" d="M748.9,549.91a15.3,15.3,0,0,0,7.06,2.94,23.76,23.76,0,0,0,10.23-.59,1.91,1.91,0,0,0,0,1.12c.41,1,.14,1.31.14,1.31s-1.37-.55-2,.55.2,3.43.62,4.32-2.68,3.63-5.22,3.84-6-.07-7.06-1.37A14.33,14.33,0,0,1,748.9,549.91Z"/><path class="cls-135" d="M805.4,554.4c-5.28-3-9.44-3.79-13-2,3.32-.92,7.45-.23,11.91,2.35,11,6.35,19.93,21.74,19.93,34.37,0,6.57-2.42,11.09-6.3,13,4.87-1.36,7.38-5.86,7.38-13.37C825.32,576.15,816.4,560.76,805.4,554.4Z"/><path class="cls-46" d="M801.86,592a2,2,0,0,1-.72-.76c-.4-.69-.4-1.43,0-1.66l14.26-8.13c2-1.14,2-4.86,0-8.3s-5.25-5.32-7.24-4.18l-14.34,8.17c-1.23.7-1.23,3,0,5.14s3.28,3.26,4.47,2.58L812,577.05a.91.91,0,0,0,.37-.83A2.59,2.59,0,0,0,812,575c-.51-.87-1.32-1.34-1.83-1.06L799.46,580c-.4.23-1.05-.15-1.45-.84s-.4-1.43,0-1.66l10.68-6.08c1.3-.74,3.41.48,4.71,2.72a6.75,6.75,0,0,1,1,3.27,2.32,2.32,0,0,1-1,2.14l-13.66,7.79a3.66,3.66,0,0,1-3.68-.37,10.64,10.64,0,0,1-3.69-3.88c-2-3.5-2-7.3,0-8.45l14.34-8.18c1.35-.77,3.15-.59,5.07.52a14.57,14.57,0,0,1,5.06,5.33c2.8,4.82,2.8,10,0,11.63l-14.26,8.13A.74.74,0,0,1,801.86,592Z"/><path class="cls-107" d="M764.74,594.42l11.39,13.5c0-.26,0-.53,0-.8a80.41,80.41,0,0,1,.71-11.48l-.94-6.36-8.85-8s-10.3-2.68-16.89-6.59c-3.23-1.92-7.49-4.82-11-7.29a7.35,7.35,0,0,0-2.15,5.76c.28,5.15-1.19,66.11-.85,67.83s3.06,5.72,12,8.88c4.7,1.65,11.66,2.29,17.77,1.72Z"/><path class="cls-136" d="M813.91,593.58a64.51,64.51,0,0,0,5.28-5.08c1.32-1.52,2.81-2.89,3.54-2.17,1.41,1.42-4.3,7.66-4.3,7.66Z"/><path class="cls-137" d="M811.93,602.37a80.85,80.85,0,0,0,10.78-.07c2.07-.25,3.41-.6,6.23-3.16,1.31-1.19,2.15-2.22,1.7-3.06-.21-.38-.9.45-.9.45s1.49-1.5,1-2.59-1.22.2-1.22.2,1.63-1.66,1.13-2.71-1.33.32-1.33.32,1.36-1.46,1.09-2.39-.83-.72-1.92.07c-1.28.91-4.32,3-7.18,3.27-3.05.33-5.26-1-7.22.59s-5.21,1.53-5.21,1.53Z"/><path class="cls-138" d="M767.17,579.35c-4.52,2.35-5.59,7.82-2.74,12.12s17.8,15.12,23.31,16.35,27.18-3.4,27.18-3.4a30.12,30.12,0,0,0,.22-7c-.4-2.84-2.16-3.6-2.16-3.6s-14.35,2.7-19.2,1.47-10.1-7.44-14.64-11.3C774.15,579.74,771.54,577.08,767.17,579.35Z"/><path class="cls-107" d="M789.52,608c7.31.28,25.4-3.58,25.4-3.58a39.59,39.59,0,0,0,.35-4.12l-24.66,3.23a7.21,7.21,0,0,1,.38,3.09C790.94,607.24,790.31,607.68,789.52,608Z"/><path class="cls-139" d="M274.82,601.48l9.58-9.17s9.45,16.2,8.45,17.29S274.82,601.48,274.82,601.48Z"/><path class="cls-140" d="M234.53,634.07l46.63-22s.39-.16.55-.21a73.67,73.67,0,0,1,10.59-3.33h0c.73-.17,1.06.07.8.89a3.82,3.82,0,0,1-1.75,2.09h0s-7,4.76-11.53,7.15a6,6,0,0,1-.76.45l0,0h0l-46.85,22.24Z"/><path class="cls-141" d="M266.57,620.37l20.91-9.86.25-.1a32.7,32.7,0,0,1,4.75-1.49h0c.32-.08.07,1-.43,1.33h0s-3.17,2.14-5.18,3.21a2,2,0,0,1-.34.2h0l-21,10Z"/><path class="cls-142" d="M184.25,506.08c-.78.88,4.05,6.48,10.79,12.51s12.85,10.22,13.64,9.34-4.05-6.48-10.79-12.51S185,505.2,184.25,506.08Z"/><path class="cls-143" d="M190.94,507.37l92.58,84a5,5,0,0,1,1.39,2.13l.69,2.09a1,1,0,0,1-1.22,1.33l-2.82-.68L187.82,511Z"/><path class="cls-144" d="M187.82,511l93.74,85.21.49,2.41a1,1,0,0,1-1.11,1.21l-2.85-.31-92.87-84.28Z"/><path class="cls-145" d="M185.22,515.23l-3.05,2.27,92.19,83.68a2.39,2.39,0,0,0,2.09.57l1.17-.24a.82.82,0,0,0,.77-1.08l-.3-.92Z"/><path class="cls-146" d="M174.43,510.7l9.29-10.16,7.21,6.57h0l0,0c1.64,1.49.88,5-1.68,7.78s-6,3.87-7.6,2.38l0,0h0Z"/><path class="cls-147" d="M174.45,510.72c1.63,1.49,5,.43,7.6-2.38s3.32-6.29,1.69-7.78-5-.43-7.6,2.37S172.82,509.23,174.45,510.72Z"/><path class="cls-148" d="M181.79,508.22c2.57-2.81,3.32-6.29,1.69-7.79l-.12-.09a2.18,2.18,0,0,1,.57.38c1.64,1.49.88,5-1.68,7.79s-5.82,3.81-7.49,2.46C176.53,511.84,179.5,510.73,181.79,508.22Z"/><path class="cls-149" d="M170.06,506.18l8.68-9.49,4.35,4h0l0,0c1.53,1.39.82,4.65-1.57,7.27s-5.58,3.61-7.1,2.22l0,0h0Z"/><path class="cls-150" d="M170.08,506.2c1.53,1.4,4.71.4,7.1-2.22s3.1-5.87,1.58-7.27-4.71-.4-7.1,2.22S168.56,504.81,170.08,506.2Z"/><path class="cls-151" d="M177,503.8c2.19-2.39,3-5.3,1.93-6.85l.1.08c1.52,1.39.82,4.65-1.58,7.27s-5.57,3.61-7.1,2.22a2.72,2.72,0,0,1-.34-.42C171.54,507.37,174.63,506.37,177,503.8Z"/><path class="cls-152" d="M291.15,604.72a10.39,10.39,0,0,1-2.93,3.53c2.43,1,4.31,1.7,4.63,1.35S292.37,607.24,291.15,604.72Z"/><path class="cls-153" d="M177.83,572c.19,3.78-.2,17.3,3.12,25.92s-.43,14.09-1.19,18.75c-1.19,7.36-.52,14.3.62,24.06s1,14.39-.1,16.48-.38,5,5.88,6.72,13.59,1.77,12.89-4c-.23-1.89-5.6,2.46-7.4-.38s-3.88-7.39-2.84-17.72,2.27-16.66,2.84-22.35,1.7-12.69,2.84-20.27,2.37-30.12,2.37-30.12Z"/><path class="cls-154" d="M184.69,655.65c0-3.11.78-11,.78-16.31s2.95-39.9,2.95-42.7c0-2.56-.16-22-.16-26.26L177.83,572c.19,3.78-.2,17.3,3.12,25.92s-.43,14.09-1.19,18.75c-1.19,7.36-.52,14.3.62,24.06s1,14.39-.1,16.48-.38,5,5.88,6.72a29.45,29.45,0,0,0,4.75.91L189.5,664S184.69,658.75,184.69,655.65Z"/><path class="cls-155" d="M179.66,657s-2.3,2.58-2,4.69,2,4.72,2,6.68-.08,3.46,0,3.54a11.24,11.24,0,0,0,1.43.15l.59-.46v-7.12s3.73-.4,5.71,1.06,7.65,2.58,10,1.55,4.07-8.2,3.82-9.29-6,2-7,2.37a7,7,0,0,1-1.27.46s3-.84,3.69.25,0,3.45-2.33,3.85-5.31-2.92-7.79-3.79S180.31,658.65,179.66,657Z"/><path class="cls-156" d="M190,584.87c1.34,3.66,3.12,10.89,4.73,16s3.57,10.55,2.62,14.24-3.37,10-3.37,18.4.94,26.24-.29,28.89-2.37,5.15-1.7,6.76,6.45,3,11.08,6.06c4.92,3.24,10.89-3.41,8.52-4.83s-2.74.28-4.54-.85-5.88-4.64-5.69-8.91,4.93-32.2,6.25-38.36a103.51,103.51,0,0,0,2.47-17.23c.47-7.11.75-16.58,0-23.3S186.2,574.55,190,584.87Z"/><path class="cls-157" d="M203.57,675.53l-4.44-5.6s.93-3.1.47-4.81-1.56-2.8-1.56-8.07,4.35-28.73,5.28-32.46,2.33-21.74,1.56-27.64c-.47-3.55-2-13-3.16-20a20.83,20.83,0,0,1,2.32.36c-6.81-1.51-16.62.52-14,7.52,1.34,3.66,3.12,10.89,4.73,16s3.57,10.55,2.62,14.24-3.37,10-3.37,18.4.94,26.24-.29,28.89-2.37,5.15-1.7,6.76,6.45,3,11.08,6.06a5.24,5.24,0,0,0,4.11.74A5.21,5.21,0,0,1,203.57,675.53Z"/><path class="cls-158" d="M184.28,556.56l24.27,1,2.09,24c.56,6.54.6,27.52.6,27.52s-6.86,3.55-12.73,2.41-19.6-5.45-19.6-5.45-.23-5.26-.58-11.19c-.36-6.12-1.62-19.29.37-25.07S184.28,556.56,184.28,556.56Z"/><path class="cls-159" d="M192.7,664.34s-2.68,2.49-2.08,5.33,2.21,3,2.21,5.09v5.3l1.23.47,1.36-.5v-8.12a21.34,21.34,0,0,1,6.34,3.19c3.1,2.31,7,2.53,9.16,1.39s6.35-6.88,5.27-8-9,1.2-9,1.2,3,.32,3.48,1.83-2.16,3.46-4.21,2.55-4.35-3.78-8.39-5.42S193,664.94,192.7,664.34Z"/><path class="cls-160" d="M219.07,549.49l4.6-2.15a13,13,0,0,1,3.84-2.33c1.39-.33,2.5-1.39,2.45-1.84-.07-.63-.2-.57-.2-.57s2.26-1.49,3.27.12a1.78,1.78,0,0,1,.2,1.35s.76.36.86,1a1.7,1.7,0,0,1-.45,1.44l-.3.3a1.21,1.21,0,0,1,.09,1.06,2.12,2.12,0,0,1-.89,1.1,1.58,1.58,0,0,1-.49,1.19,18.64,18.64,0,0,1-4.37,2.31c-1,.35-6.72,2.24-6.72,2.24Z"/><path class="cls-161" d="M223.6,548.52a11.38,11.38,0,0,1,.85-4.18c.79-1.44,1.74-3,2-3.54s1.1-1.26,1.69-.74c.4.35.35.59-.15,2s0,2.29-.55,3.48S223.6,548.52,223.6,548.52Z"/><path class="cls-162" d="M180.52,511.92c-2.54,3.86-6.07,20.93-5.48,25.4.82,6.25,26.76,4.43,26.76,4.43l-.6-2.26Z"/><path class="cls-163" d="M206.8,557.41l-22.52-.85s-3.59,7.4-5.58,13.18-.73,19-.37,25.07c.35,5.93.58,11.19.58,11.19s13.73,4.31,19.6,5.45a14.89,14.89,0,0,0,4.71.07Z"/><path class="cls-164" d="M199.46,517.44c2.46,2.08,10.32,7.95,11.74,12.31s.12,6.41-.66,9.75c-.86,3.71-2.37,6.16-1.7,13.17s2.25,26.18,2.53,28.45-2.16,3.18-4.43,3.56-14.68.86-21.59-1.8-8.59-3.7-8.59-5.31a76.64,76.64,0,0,1,2.15-16c3.62-14.5-.67-36.44-.38-42.31s2.84-11.09,7-9.76S199.46,517.44,199.46,517.44Z"/><path class="cls-165" d="M194.09,484.16c5.46-.48,11.94,2.86,12.33,9.42s-2,13.4-2.94,14.51c-1.43,1.64-4.81.84-6,2.21s-2.28,4.55-1.69,5.78-6.83.27-6.83.27l-4.43-3.8s2.84-3.8,2.06-5.73-5.79-8-2.8-15.8C186.27,484.67,192.44,484.31,194.09,484.16Z"/><path class="cls-166" d="M185.44,510.62a9.15,9.15,0,0,0,4.93,2.22c3.36.57,5.11.1,6.25.9a17,17,0,0,1,2.74,3.18,9.8,9.8,0,0,0-4.54-1.9c-2.37-.19-6.87-.24-8.43-1.32s-1.28-1.8-1.28-2.09A4,4,0,0,1,185.44,510.62Z"/><path class="cls-64" d="M185.93,509.84s-2.93,2.57-2.57,4.94,2.75,4.55,7,4.22,6.62-.82,8.65.08,5.51,2.62,5.51,2.62-3.73-6.06-6.9-6.58-7.28-.12-9.17-1.07-3.06-1.25-3.3-2.44A1.7,1.7,0,0,1,185.93,509.84Z"/><path class="cls-167" d="M185.93,509.84s-2.69,1.49-2.34,3.86,2.75,4.54,7,4.21,6.77-.43,8.8.47a35.41,35.41,0,0,1,5.12,3.32s-3.73-6.06-6.9-6.58-7.28-.12-9.17-1.07-3.06-1.25-3.3-2.44A1.7,1.7,0,0,1,185.93,509.84Z"/><path class="cls-168" d="M199.68,517.92c-2-.9-4.6-.81-8.81-.48s-6.61-1.87-7-4.21a3,3,0,0,1,.38-2,3.2,3.2,0,0,0-.7,2.42c.36,2.33,2.75,4.54,7,4.21s6.77-.43,8.8.47a35.41,35.41,0,0,1,5.12,3.32s-.36-.58-.94-1.39A26.23,26.23,0,0,0,199.68,517.92Z"/><path class="cls-169" d="M201.6,494.33a6.63,6.63,0,0,1,4.82-.75c3.43,1,1.26-6.72-6.22-9.95-5.69-2.45-14.46-1.41-16.85,5.18-3.31,9.12,1.34,13.91,1.34,17.47s10.63,4.44,10.1-1.22c-.26-2.88-.23-5.42,2-4.92S199.72,495.85,201.6,494.33Z"/><path class="cls-64" d="M201,494.84c-8.59-1.23-12.88-3.28-16.46-8.28a9.14,9.14,0,0,0-1.21,2.25c-3.31,9.12,1.34,13.91,1.34,17.47s10.63,4.44,10.1-1.22c-.26-2.88-.23-5.42,2-4.92,2,.46,2.82-3.41,4.34-5.28Z"/><path class="cls-170" d="M181.18,491.59c5.83-2.52,7.63,2.66,8.54,7.23s1.62,8.64-4.14,8.8C177.49,507.83,175,494.27,181.18,491.59Z"/><path class="cls-64" d="M189.72,498.82c-.69-3.45-1.88-7.24-4.92-7.81,2.47,3.14,1.83,6.84-2.32,6.5a9.19,9.19,0,0,1-4.57-1.46c-1,4.92,1.93,11.72,7.67,11.57S190.63,503.39,189.72,498.82Z"/><path class="cls-171" d="M220.43,533.63c-.05,1.4-.75,2.73-1.39,2.91-.49.14-.51-.33,0-1.27-.62,1.4-1.93,1-.92-.84-1.06,1.67-1.63.66-1.32-1-.44.57-1-.14-1.1-.4-.35-.76.39-2-.35-3.16a9.41,9.41,0,0,0-2-2.28c-.47-.44,1.93-.74,3.21-.1S220.53,530.66,220.43,533.63Z"/><path class="cls-172" d="M199.72,561.44c-1.09-10.46.43-35.19.43-35.19s-6.88-2.07-11.87-4.25c-5.31-2.32-8-4.6-9.31-6.16a20.51,20.51,0,0,0-.44,3.4c-.29,5.87,4,27.81.38,42.31a76.64,76.64,0,0,0-2.15,16c0,1.61,1.67,2.66,8.59,5.31,5,1.91,12.77,2.2,17.61,2.07C202.23,580.37,200.56,569.5,199.72,561.44Z"/><path class="cls-173" d="M193.63,530.23c0,4.93,1.9,20.75,2.28,25s3.17,7.63,6.15,7.06S225,555,225,555s.38-3-.52-4.79a17.16,17.16,0,0,0-2.17-3.17l-17.48,4.45s4.93-23.68.14-28C201.57,520.42,193.68,521.57,193.63,530.23Z"/><path class="cls-163" d="M203,559.3c-1.45.27,0,1-.23,1.7s-2.24,1.54-.71,1.25c3-.57,22.92-7.29,22.92-7.29a13.14,13.14,0,0,0,0-2.72C223.55,552.62,206,558.73,203,559.3Z"/></g></g></svg>