<svg xmlns="http://www.w3.org/2000/svg" xmlns:xlink="http://www.w3.org/1999/xlink" viewBox="0 0 1126.81 782.59"><defs><style>.cls-1{fill:url(#White_Black_2);}.cls-2{fill:url(#linear-gradient);}.cls-3{fill:url(#linear-gradient-2);}.cls-4{fill:url(#linear-gradient-3);}.cls-5{fill:url(#linear-gradient-4);}.cls-6{fill:url(#linear-gradient-5);}.cls-7{isolation:isolate;}.cls-13,.cls-8{opacity:0.5;}.cls-10,.cls-11,.cls-12,.cls-13,.cls-14,.cls-15,.cls-16,.cls-194,.cls-21,.cls-26,.cls-31,.cls-36,.cls-41,.cls-8,.cls-9{mix-blend-mode:color-dodge;}.cls-10,.cls-11,.cls-12,.cls-13,.cls-14,.cls-15,.cls-16,.cls-9{fill:#1b75bc;}.cls-9{opacity:0.6;}.cls-10{opacity:0.8;}.cls-11{opacity:0.3;}.cls-12{opacity:0.15;}.cls-15{opacity:0.4;}.cls-16{opacity:0.25;}.cls-17{mask:url(#mask);}.cls-18{mask:url(#mask-2);}.cls-19{opacity:0.95;}.cls-20{fill:url(#linear-gradient-6);}.cls-21{fill:url(#Radial_Gradient_1);}.cls-22{fill:url(#linear-gradient-7);}.cls-23{fill:url(#linear-gradient-8);}.cls-24{mask:url(#mask-3);}.cls-25{fill:url(#linear-gradient-9);}.cls-26{fill:url(#Radial_Gradient_1-2);}.cls-27{fill:url(#linear-gradient-10);}.cls-28{fill:url(#linear-gradient-11);}.cls-29{mask:url(#mask-4);}.cls-30{fill:url(#linear-gradient-12);}.cls-31{fill:url(#Radial_Gradient_1-3);}.cls-32{fill:url(#linear-gradient-13);}.cls-33{fill:url(#linear-gradient-14);}.cls-34{mask:url(#mask-5);}.cls-35{fill:url(#linear-gradient-15);}.cls-36{fill:url(#Radial_Gradient_1-4);}.cls-37{fill:url(#linear-gradient-16);}.cls-38{fill:url(#linear-gradient-17);}.cls-39{mask:url(#mask-6);}.cls-40{fill:url(#linear-gradient-18);}.cls-41{fill:url(#Radial_Gradient_1-5);}.cls-42{fill:url(#linear-gradient-19);}.cls-43{fill:url(#linear-gradient-20);}.cls-174,.cls-44,.cls-45,.cls-49,.cls-67,.cls-68,.cls-76,.cls-80{mix-blend-mode:multiply;}.cls-44{fill:url(#linear-gradient-21);}.cls-45{fill:url(#linear-gradient-22);}.cls-46{fill:url(#radial-gradient);}.cls-47{fill:url(#radial-gradient-2);}.cls-48{fill:url(#linear-gradient-23);}.cls-49{fill:url(#linear-gradient-24);}.cls-50{fill:url(#radial-gradient-3);}.cls-51{fill:url(#radial-gradient-4);}.cls-52{fill:url(#radial-gradient-5);}.cls-53{fill:url(#radial-gradient-6);}.cls-54{fill:url(#linear-gradient-25);}.cls-55{fill:url(#linear-gradient-26);}.cls-56{fill:url(#linear-gradient-27);}.cls-57{fill:url(#New_Gradient_Swatch_copy_5);}.cls-58{fill:url(#New_Gradient_Swatch_copy_5-2);}.cls-59{fill:url(#linear-gradient-28);}.cls-60{fill:url(#New_Gradient_Swatch_copy_5-3);}.cls-61{fill:url(#New_Gradient_Swatch_copy_5-4);}.cls-62{fill:url(#linear-gradient-29);}.cls-63{fill:url(#radial-gradient-7);}.cls-64{fill:url(#radial-gradient-8);}.cls-65{fill:url(#radial-gradient-9);}.cls-66{fill:url(#radial-gradient-10);}.cls-67{fill:#d1d3d4;}.cls-68{opacity:0.1;}.cls-69{fill:#10054d;}.cls-70{fill:url(#linear-gradient-30);}.cls-71{fill:url(#linear-gradient-31);}.cls-72{fill:url(#linear-gradient-32);}.cls-73{fill:url(#radial-gradient-11);}.cls-74{fill:url(#New_Gradient_Swatch_copy_7);}.cls-75{fill:url(#radial-gradient-12);}.cls-76{fill:url(#linear-gradient-33);}.cls-77{fill:url(#radial-gradient-13);}.cls-78{fill:url(#radial-gradient-14);}.cls-79{fill:url(#linear-gradient-34);}.cls-80{fill:url(#linear-gradient-35);}.cls-81{fill:url(#New_Gradient_Swatch_copy_7-2);}.cls-82{fill:url(#radial-gradient-15);}.cls-83{fill:url(#radial-gradient-16);}.cls-84{fill:url(#radial-gradient-17);}.cls-85{fill:#1e4356;}.cls-86{fill:url(#linear-gradient-36);}.cls-87{fill:url(#linear-gradient-37);}.cls-88{fill:url(#linear-gradient-38);}.cls-89{fill:url(#radial-gradient-18);}.cls-90{fill:url(#radial-gradient-19);}.cls-91{fill:url(#linear-gradient-39);}.cls-92{fill:url(#radial-gradient-20);}.cls-93{fill:url(#radial-gradient-21);}.cls-94{fill:url(#linear-gradient-40);}.cls-95{fill:url(#radial-gradient-22);}.cls-96{fill:url(#linear-gradient-41);}.cls-97{fill:url(#radial-gradient-23);}.cls-98{opacity:0;}.cls-99{opacity:0.01;}.cls-100{opacity:0.02;}.cls-101{opacity:0.03;}.cls-102{opacity:0.04;}.cls-103{opacity:0.05;}.cls-104{opacity:0.06;}.cls-105{opacity:0.07;}.cls-106{opacity:0.08;}.cls-107{opacity:0.09;}.cls-108{opacity:0.1;}.cls-109{opacity:0.1;}.cls-110{opacity:0.11;}.cls-111{opacity:0.12;}.cls-112{opacity:0.13;}.cls-113{opacity:0.14;}.cls-114{opacity:0.15;}.cls-115{opacity:0.16;}.cls-116{opacity:0.17;}.cls-117{opacity:0.18;}.cls-118{opacity:0.19;}.cls-119{opacity:0.2;}.cls-120{fill:url(#linear-gradient-42);}.cls-121{fill:url(#linear-gradient-43);}.cls-122{fill:url(#linear-gradient-44);}.cls-123{fill:url(#linear-gradient-45);}.cls-124{fill:url(#linear-gradient-46);}.cls-125{fill:url(#linear-gradient-47);}.cls-126{fill:url(#linear-gradient-48);}.cls-127{fill:url(#linear-gradient-49);}.cls-128{fill:url(#linear-gradient-50);}.cls-129{fill:url(#linear-gradient-51);}.cls-130{fill:url(#linear-gradient-52);}.cls-131{fill:url(#linear-gradient-53);}.cls-132{fill:url(#linear-gradient-54);}.cls-133{fill:url(#linear-gradient-55);}.cls-134{fill:url(#linear-gradient-56);}.cls-135{fill:url(#linear-gradient-57);}.cls-136{fill:url(#linear-gradient-58);}.cls-137{fill:url(#linear-gradient-59);}.cls-138{fill:url(#linear-gradient-60);}.cls-139{fill:url(#linear-gradient-61);}.cls-140{fill:url(#linear-gradient-62);}.cls-141{fill:url(#linear-gradient-63);}.cls-142{fill:url(#linear-gradient-64);}.cls-143{fill:url(#linear-gradient-65);}.cls-144{fill:url(#linear-gradient-66);}.cls-145{fill:url(#linear-gradient-67);}.cls-146{fill:url(#linear-gradient-68);}.cls-147{fill:url(#linear-gradient-69);}.cls-148{fill:url(#linear-gradient-70);}.cls-149{fill:url(#linear-gradient-71);}.cls-150{fill:url(#linear-gradient-72);}.cls-151{fill:url(#linear-gradient-73);}.cls-152{fill:url(#linear-gradient-74);}.cls-153{fill:url(#linear-gradient-75);}.cls-154{fill:url(#linear-gradient-76);}.cls-155{fill:url(#linear-gradient-77);}.cls-156{fill:url(#linear-gradient-78);}.cls-157{fill:url(#linear-gradient-79);}.cls-158{fill:url(#linear-gradient-80);}.cls-159{fill:url(#linear-gradient-81);}.cls-160{fill:url(#linear-gradient-82);}.cls-161{fill:url(#linear-gradient-83);}.cls-162{fill:url(#linear-gradient-84);}.cls-163{fill:url(#linear-gradient-85);}.cls-164{fill:url(#linear-gradient-86);}.cls-165{fill:url(#linear-gradient-87);}.cls-166{fill:url(#linear-gradient-88);}.cls-167{fill:url(#linear-gradient-89);}.cls-168{fill:url(#linear-gradient-90);}.cls-169{fill:url(#linear-gradient-91);}.cls-170{fill:url(#linear-gradient-92);}.cls-171{fill:url(#linear-gradient-93);}.cls-172{fill:url(#linear-gradient-94);}.cls-173{fill:url(#linear-gradient-95);}.cls-174{fill:url(#radial-gradient-24);}.cls-175{fill:url(#radial-gradient-25);}.cls-176{fill:url(#radial-gradient-26);}.cls-177{fill:url(#radial-gradient-27);}.cls-178{fill:url(#radial-gradient-28);}.cls-179{fill:url(#radial-gradient-29);}.cls-180{fill:url(#radial-gradient-30);}.cls-181{fill:url(#New_Gradient_Swatch_copy_7-3);}.cls-182{fill:url(#radial-gradient-31);}.cls-183{fill:url(#linear-gradient-96);}.cls-184{fill:url(#New_Gradient_Swatch_copy_7-4);}.cls-185{fill:url(#linear-gradient-97);}.cls-186{fill:url(#New_Gradient_Swatch_copy_7-5);}.cls-187{fill:url(#linear-gradient-98);}.cls-188{fill:url(#New_Gradient_Swatch_copy_7-6);}.cls-189{fill:url(#radial-gradient-32);}.cls-190{fill:url(#linear-gradient-99);}.cls-191{fill:url(#linear-gradient-100);}.cls-192{fill:url(#New_Gradient_Swatch_copy_7-7);}.cls-193{fill:url(#New_Gradient_Swatch_copy_7-8);}.cls-194{fill:url(#radial-gradient-33);}.cls-195{fill:url(#New_Gradient_Swatch_copy_7-9);}</style><linearGradient id="White_Black_2" x1="472.58" y1="423.49" x2="575.98" y2="620.28" gradientTransform="matrix(-1, 0, 0, 1, 1077.26, 0)" gradientUnits="userSpaceOnUse"><stop offset="0" stop-color="#fff"/><stop offset="1"/></linearGradient><linearGradient id="linear-gradient" x1="7463.21" y1="3044.57" x2="7463.21" y2="2383.68" gradientTransform="matrix(1, 0, 0, -1, -7079.24, 3045.5)" gradientUnits="userSpaceOnUse"><stop offset="0.56" stop-color="#fff"/><stop offset="0.61" stop-color="#f5f4f5"/><stop offset="0.69" stop-color="#d8d8d9"/><stop offset="0.8" stop-color="#abaaab"/><stop offset="0.92" stop-color="#6c6c6d"/><stop offset="1" stop-color="#414042"/></linearGradient><linearGradient id="linear-gradient-2" x1="7561.49" y1="2987.4" x2="7561.49" y2="2326.51" xlink:href="#linear-gradient"/><linearGradient id="linear-gradient-3" x1="7658.99" y1="2930.23" x2="7658.99" y2="2269.34" xlink:href="#linear-gradient"/><linearGradient id="linear-gradient-4" x1="7757.28" y1="2873.06" x2="7757.28" y2="2212.17" xlink:href="#linear-gradient"/><linearGradient id="linear-gradient-5" x1="7857.13" y1="2815.11" x2="7857.13" y2="2154.22" xlink:href="#linear-gradient"/><mask id="mask" x="228.38" y="62.22" width="693.77" height="717.12" maskUnits="userSpaceOnUse"><polygon class="cls-1" points="920.49 437.46 325.11 62.22 228.38 347.4 241.72 512.51 795.41 779.34 922.15 712.63 920.49 437.46"/></mask><mask id="mask-2" x="232.76" y="-25.73" width="302.42" height="726.59" maskUnits="userSpaceOnUse"><rect class="cls-2" x="232.76" y="-25.73" width="302.42" height="726.59"/></mask><linearGradient id="linear-gradient-6" x1="751.72" y1="134.15" x2="681.08" y2="256.49" gradientTransform="matrix(-1, 0, 0, 1, 1077.26, 0)" gradientUnits="userSpaceOnUse"><stop offset="0" stop-color="#055"/><stop offset="1" stop-color="#1b75bc"/></linearGradient><radialGradient id="Radial_Gradient_1" cx="705.08" cy="239.34" r="62.21" gradientTransform="matrix(-1, 0, 0, 1, 1077.26, 0)" xlink:href="#White_Black_2"/><linearGradient id="linear-gradient-7" x1="717.31" y1="367.55" x2="1194.22" y2="330.97" xlink:href="#linear-gradient-6"/><linearGradient id="linear-gradient-8" x1="534.87" y1="343.8" x2="780.83" y2="385.01" xlink:href="#linear-gradient-6"/><mask id="mask-3" x="331.04" y="31.44" width="302.42" height="726.59" maskUnits="userSpaceOnUse"><rect class="cls-3" x="331.04" y="31.44" width="302.42" height="726.59"/></mask><linearGradient id="linear-gradient-9" x1="653.43" y1="231.26" x2="582.8" y2="353.6" xlink:href="#linear-gradient-6"/><radialGradient id="Radial_Gradient_1-2" cx="606.8" cy="336.44" r="62.21" gradientTransform="matrix(-1, 0, 0, 1, 1077.26, 0)" xlink:href="#White_Black_2"/><linearGradient id="linear-gradient-10" x1="619.88" y1="444.62" x2="1083.22" y2="409.09" xlink:href="#linear-gradient-6"/><linearGradient id="linear-gradient-11" x1="442.93" y1="422" x2="676.69" y2="461.17" xlink:href="#linear-gradient-6"/><mask id="mask-4" x="428.54" y="88.6" width="302.42" height="726.59" maskUnits="userSpaceOnUse"><rect class="cls-4" x="428.54" y="88.6" width="302.42" height="726.59"/></mask><linearGradient id="linear-gradient-12" x1="555.93" y1="329.41" x2="485.3" y2="451.76" xlink:href="#linear-gradient-6"/><radialGradient id="Radial_Gradient_1-3" cx="509.3" cy="434.6" r="62.21" gradientTransform="matrix(-1, 0, 0, 1, 1077.26, 0)" xlink:href="#White_Black_2"/><linearGradient id="linear-gradient-13" x1="523.26" y1="522.21" x2="972.67" y2="487.75" xlink:href="#linear-gradient-6"/><linearGradient id="linear-gradient-14" x1="351.94" y1="500.75" x2="573.19" y2="537.82" xlink:href="#linear-gradient-6"/><mask id="mask-5" x="526.83" y="145.77" width="302.42" height="726.59" maskUnits="userSpaceOnUse"><rect class="cls-5" x="526.83" y="145.77" width="302.42" height="726.59"/></mask><linearGradient id="linear-gradient-15" x1="457.65" y1="426.52" x2="387.01" y2="548.86" xlink:href="#linear-gradient-6"/><radialGradient id="Radial_Gradient_1-4" cx="411.01" cy="531.71" r="62.21" gradientTransform="matrix(-1, 0, 0, 1, 1077.26, 0)" xlink:href="#White_Black_2"/><linearGradient id="linear-gradient-16" x1="425.83" y1="599.29" x2="861.67" y2="565.86" xlink:href="#linear-gradient-6"/><linearGradient id="linear-gradient-17" x1="260" y1="578.96" x2="469.05" y2="613.98" xlink:href="#linear-gradient-6"/><mask id="mask-6" x="626.68" y="203.72" width="302.42" height="726.59" maskUnits="userSpaceOnUse"><rect class="cls-6" x="626.68" y="203.72" width="302.42" height="726.59"/></mask><linearGradient id="linear-gradient-18" x1="357.8" y1="523.59" x2="287.16" y2="645.93" xlink:href="#linear-gradient-6"/><radialGradient id="Radial_Gradient_1-5" cx="311.16" cy="628.78" r="62.21" gradientTransform="matrix(-1, 0, 0, 1, 1077.26, 0)" xlink:href="#White_Black_2"/><linearGradient id="linear-gradient-19" x1="326.82" y1="676.74" x2="749.37" y2="644.33" xlink:href="#linear-gradient-6"/><linearGradient id="linear-gradient-20" x1="166.37" y1="657.51" x2="363.47" y2="690.53" xlink:href="#linear-gradient-6"/><linearGradient id="linear-gradient-21" x1="295.5" y1="596.84" x2="355.28" y2="582.22" gradientTransform="matrix(-1, 0, 0, 1, 1077.26, 0)" gradientUnits="userSpaceOnUse"><stop offset="0.21" stop-color="#d4d1d8"/><stop offset="1" stop-color="#fff"/></linearGradient><linearGradient id="linear-gradient-22" x1="373.09" y1="522.77" x2="373.82" y2="562.95" xlink:href="#linear-gradient-21"/><radialGradient id="radial-gradient" cx="359.87" cy="370.11" r="119.11" gradientTransform="matrix(-1, 0, 0, 1, 1077.26, 0)" gradientUnits="userSpaceOnUse"><stop offset="0.03" stop-color="#fedfcb"/><stop offset="0.78" stop-color="#f9b69e"/><stop offset="0.99" stop-color="#f2a78c"/></radialGradient><radialGradient id="radial-gradient-2" cx="307.9" cy="458.15" r="10.55" xlink:href="#radial-gradient"/><linearGradient id="linear-gradient-23" x1="367.6" y1="464.66" x2="361.61" y2="376.08" gradientTransform="matrix(-1, 0, 0, 1, 1077.26, 0)" gradientUnits="userSpaceOnUse"><stop offset="0.01" stop-color="#c6ccd1"/><stop offset="1" stop-color="#fff"/></linearGradient><linearGradient id="linear-gradient-24" x1="332.32" y1="439.66" x2="319.96" y2="424.61" gradientTransform="matrix(-1, 0, 0, 1, 1077.26, 0)" gradientUnits="userSpaceOnUse"><stop offset="0.01" stop-color="#e6e7e8"/><stop offset="0.64" stop-color="#fff"/></linearGradient><radialGradient id="radial-gradient-3" cx="393.29" cy="481.03" r="56.32" xlink:href="#radial-gradient"/><radialGradient id="radial-gradient-4" cx="408.34" cy="511.18" r="50.91" xlink:href="#radial-gradient"/><radialGradient id="radial-gradient-5" cx="365.95" cy="563.85" r="84.99" xlink:href="#radial-gradient"/><radialGradient id="radial-gradient-6" cx="484.69" cy="532.47" r="177.65" xlink:href="#radial-gradient"/><linearGradient id="linear-gradient-25" x1="360.5" y1="536.14" x2="385.33" y2="536.14" gradientTransform="matrix(-1, 0, 0, 1, 1077.26, 0)" gradientUnits="userSpaceOnUse"><stop offset="0.09" stop-color="#05114c"/><stop offset="0.31" stop-color="#0a2967"/><stop offset="0.78" stop-color="#1865ab"/><stop offset="0.89" stop-color="#1b75bc"/></linearGradient><linearGradient id="linear-gradient-26" x1="298.6" y1="593.13" x2="316.82" y2="593.13" xlink:href="#linear-gradient-25"/><linearGradient id="linear-gradient-27" x1="308.08" y1="598.18" x2="326.62" y2="589.73" xlink:href="#linear-gradient-25"/><linearGradient id="New_Gradient_Swatch_copy_5" x1="319.1" y1="470.69" x2="378.25" y2="470.69" gradientTransform="matrix(-1, 0, 0, 1, 1077.26, 0)" gradientUnits="userSpaceOnUse"><stop offset="0.04" stop-color="#1a40aa"/><stop offset="0.19" stop-color="#224fb4"/><stop offset="0.49" stop-color="#3878cd"/><stop offset="0.91" stop-color="#5cb9f5"/><stop offset="1" stop-color="#64c8ff"/></linearGradient><linearGradient id="New_Gradient_Swatch_copy_5-2" x1="358.88" y1="456.75" x2="382.73" y2="434.61" xlink:href="#New_Gradient_Swatch_copy_5"/><linearGradient id="linear-gradient-28" x1="371.39" y1="533.96" x2="362.4" y2="520.81" xlink:href="#linear-gradient-25"/><linearGradient id="New_Gradient_Swatch_copy_5-3" x1="358.71" y1="489.58" x2="369.79" y2="462.81" xlink:href="#New_Gradient_Swatch_copy_5"/><linearGradient id="New_Gradient_Swatch_copy_5-4" x1="336.08" y1="474.71" x2="375.72" y2="477.64" xlink:href="#New_Gradient_Swatch_copy_5"/><linearGradient id="linear-gradient-29" x1="336.26" y1="413.92" x2="378.84" y2="413.92" gradientTransform="matrix(-1, 0, 0, 1, 1077.26, 0)" gradientUnits="userSpaceOnUse"><stop offset="0.04" stop-color="#602213"/><stop offset="0.57" stop-color="#6d310e"/><stop offset="1" stop-color="#7a4108"/></linearGradient><radialGradient id="radial-gradient-7" cx="438.11" cy="367.62" r="9.35" xlink:href="#radial-gradient"/><radialGradient id="radial-gradient-8" cx="433.19" cy="367.03" r="8.16" xlink:href="#radial-gradient"/><radialGradient id="radial-gradient-9" cx="446.17" cy="368.35" r="15.84" xlink:href="#radial-gradient"/><radialGradient id="radial-gradient-10" cx="435.93" cy="366.88" r="8.97" xlink:href="#radial-gradient"/><linearGradient id="linear-gradient-30" x1="543.33" y1="424.49" x2="531.12" y2="415.02" gradientTransform="matrix(-1, 0, 0, 1, 1077.26, 0)" gradientUnits="userSpaceOnUse"><stop offset="0.09" stop-color="#25054d"/><stop offset="0.47" stop-color="#330a68"/><stop offset="0.89" stop-color="#45108a"/></linearGradient><linearGradient id="linear-gradient-31" x1="8048.67" y1="416.46" x2="8075.9" y2="416.46" gradientTransform="translate(-7462.94)" xlink:href="#linear-gradient-30"/><linearGradient id="linear-gradient-32" x1="456.5" y1="357.04" x2="537.02" y2="357.04" gradientTransform="matrix(-1, 0, 0, 1, 1077.26, 0)" gradientUnits="userSpaceOnUse"><stop offset="0.04" stop-color="#9d9eb3"/><stop offset="0.58" stop-color="#d4d1d8"/><stop offset="1" stop-color="#eeebf2"/></linearGradient><radialGradient id="radial-gradient-11" cx="402.68" cy="347.46" r="31.53" xlink:href="#radial-gradient"/><linearGradient id="New_Gradient_Swatch_copy_7" x1="480.44" y1="332.44" x2="415.18" y2="249.74" gradientTransform="matrix(-1, 0, 0, 1, 1077.26, 0)" gradientUnits="userSpaceOnUse"><stop offset="0.04" stop-color="#138bbd"/><stop offset="0.23" stop-color="#169ac7"/><stop offset="0.59" stop-color="#1fc3df"/><stop offset="1" stop-color="#2af6ff"/></linearGradient><radialGradient id="radial-gradient-12" cx="491.11" cy="268.11" r="27.97" xlink:href="#radial-gradient"/><linearGradient id="linear-gradient-33" x1="456.54" y1="273.97" x2="469.65" y2="279.46" gradientTransform="matrix(-1, 0, 0, 1, 1077.26, 0)" gradientUnits="userSpaceOnUse"><stop offset="0.04" stop-color="#9d9eb3"/><stop offset="0.58" stop-color="#d4d1d8"/><stop offset="1" stop-color="#fff"/></linearGradient><radialGradient id="radial-gradient-13" cx="508.53" cy="337.12" r="25.22" xlink:href="#radial-gradient"/><radialGradient id="radial-gradient-14" cx="451.96" cy="266.35" r="21.44" xlink:href="#radial-gradient"/><linearGradient id="linear-gradient-34" x1="482.8" y1="259.74" x2="443.64" y2="255.13" xlink:href="#linear-gradient-29"/><linearGradient id="linear-gradient-35" x1="520.85" y1="295.03" x2="504.31" y2="306.48" xlink:href="#linear-gradient-33"/><linearGradient id="New_Gradient_Swatch_copy_7-2" x1="546.16" y1="281.71" x2="467.55" y2="327.19" xlink:href="#New_Gradient_Swatch_copy_7"/><radialGradient id="radial-gradient-15" cx="431.53" cy="357.45" r="7.72" xlink:href="#radial-gradient"/><radialGradient id="radial-gradient-16" cx="416.39" cy="352.16" r="4.77" xlink:href="#radial-gradient"/><radialGradient id="radial-gradient-17" cx="416.39" cy="352.16" r="4.77" xlink:href="#radial-gradient"/><linearGradient id="linear-gradient-36" x1="693.57" y1="177.66" x2="683.58" y2="192.16" gradientTransform="matrix(-1, 0, 0, 1, 1077.26, 0)" gradientUnits="userSpaceOnUse"><stop offset="0.09" stop-color="#1e4356"/><stop offset="0.86" stop-color="#0e4971"/><stop offset="0.89" stop-color="#0d4972"/></linearGradient><linearGradient id="linear-gradient-37" x1="743.48" y1="186.09" x2="726.65" y2="187.78" xlink:href="#linear-gradient-36"/><linearGradient id="linear-gradient-38" x1="700.31" y1="183.27" x2="639.74" y2="104.44" gradientTransform="matrix(-1, 0, 0, 1, 1077.26, 0)" gradientUnits="userSpaceOnUse"><stop offset="0.04" stop-color="#1e4356"/><stop offset="0.23" stop-color="#1e4b65"/><stop offset="0.62" stop-color="#1c5e8e"/><stop offset="1" stop-color="#1b75bc"/></linearGradient><radialGradient id="radial-gradient-18" cx="743.74" cy="10.66" r="38.16" xlink:href="#radial-gradient"/><radialGradient id="radial-gradient-19" cx="616.43" cy="11.02" r="62.52" xlink:href="#radial-gradient"/><linearGradient id="linear-gradient-39" x1="644.26" y1="130.1" x2="692.39" y2="21.46" xlink:href="#linear-gradient-32"/><radialGradient id="radial-gradient-20" cx="662.37" cy="-15.34" r="18.27" xlink:href="#radial-gradient"/><radialGradient id="radial-gradient-21" cx="737.22" cy="5.31" r="9.33" xlink:href="#radial-gradient"/><linearGradient id="linear-gradient-40" x1="672.57" y1="94.85" x2="676.03" y2="72.61" xlink:href="#linear-gradient-32"/><radialGradient id="radial-gradient-22" cx="673.67" cy="20.51" r="35.57" xlink:href="#radial-gradient"/><linearGradient id="linear-gradient-41" x1="680.6" y1="38.31" x2="699.39" y2="38.31" xlink:href="#linear-gradient-29"/><radialGradient id="radial-gradient-23" cx="670.58" cy="-14.28" r="60.46" xlink:href="#radial-gradient"/><linearGradient id="linear-gradient-42" x1="-2281.47" y1="323.45" x2="-2068.13" y2="203.42" gradientTransform="matrix(-1.06, 0, -0.04, 0.95, -1999.4, 165.85)" gradientUnits="userSpaceOnUse"><stop offset="0.02" stop-color="#55507a"/><stop offset="0.47" stop-color="#9d9eb3"/><stop offset="1" stop-color="#d4d1d8"/></linearGradient><linearGradient id="linear-gradient-43" x1="-2266.73" y1="312.72" x2="-2203.06" y2="290.91" xlink:href="#linear-gradient-42"/><linearGradient id="linear-gradient-44" x1="9009.12" y1="-195.26" x2="9002.65" y2="-182.92" gradientTransform="matrix(1.13, 0.02, -0.34, 0.87, -9881.31, 289.38)" xlink:href="#linear-gradient-42"/><linearGradient id="linear-gradient-45" x1="9048.94" y1="-59.59" x2="9064.54" y2="-64.27" gradientTransform="matrix(1.13, 0.02, -0.34, 0.87, -9881.31, 289.38)" xlink:href="#linear-gradient-42"/><linearGradient id="linear-gradient-46" x1="8954.31" y1="-46.73" x2="9124.02" y2="-104.87" gradientTransform="matrix(1.13, 0.02, -0.34, 0.87, -9881.31, 289.38)" xlink:href="#linear-gradient-42"/><linearGradient id="linear-gradient-47" x1="9035.63" y1="-90.61" x2="9027.38" y2="-74.9" gradientTransform="matrix(1.13, 0.02, -0.34, 0.87, -9881.31, 289.38)" xlink:href="#linear-gradient-42"/><linearGradient id="linear-gradient-48" x1="9048.94" y1="-32.66" x2="9064.54" y2="-37.33" gradientTransform="matrix(1.13, 0.02, -0.34, 0.87, -9881.31, 289.38)" xlink:href="#linear-gradient-42"/><linearGradient id="linear-gradient-49" x1="8954.31" y1="-19.79" x2="9124.02" y2="-77.94" gradientTransform="matrix(1.13, 0.02, -0.34, 0.87, -9881.31, 289.38)" xlink:href="#linear-gradient-42"/><linearGradient id="linear-gradient-50" x1="9035.63" y1="-63.67" x2="9027.38" y2="-47.96" gradientTransform="matrix(1.13, 0.02, -0.34, 0.87, -9881.31, 289.38)" xlink:href="#linear-gradient-42"/><linearGradient id="linear-gradient-51" x1="9048.94" y1="-5.61" x2="9064.54" y2="-10.29" gradientTransform="matrix(1.13, 0.02, -0.34, 0.87, -9881.31, 289.38)" xlink:href="#linear-gradient-42"/><linearGradient id="linear-gradient-52" x1="8954.31" y1="7.25" x2="9124.02" y2="-50.89" gradientTransform="matrix(1.13, 0.02, -0.34, 0.87, -9881.31, 289.38)" xlink:href="#linear-gradient-42"/><linearGradient id="linear-gradient-53" x1="9035.63" y1="-36.63" x2="9027.38" y2="-20.92" gradientTransform="matrix(1.13, 0.02, -0.34, 0.87, -9881.31, 289.38)" xlink:href="#linear-gradient-42"/><linearGradient id="linear-gradient-54" x1="9048.94" y1="21.32" x2="9064.54" y2="16.65" gradientTransform="matrix(1.13, 0.02, -0.34, 0.87, -9881.31, 289.38)" xlink:href="#linear-gradient-42"/><linearGradient id="linear-gradient-55" x1="8954.31" y1="34.19" x2="9124.02" y2="-23.96" gradientTransform="matrix(1.13, 0.02, -0.34, 0.87, -9881.31, 289.38)" xlink:href="#linear-gradient-42"/><linearGradient id="linear-gradient-56" x1="9035.63" y1="-9.69" x2="9027.38" y2="6.02" gradientTransform="matrix(1.13, 0.02, -0.34, 0.87, -9881.31, 289.38)" xlink:href="#linear-gradient-42"/><linearGradient id="linear-gradient-57" x1="9049.43" y1="-140.49" x2="9065.03" y2="-145.17" gradientTransform="matrix(1.13, 0.02, -0.34, 0.87, -9881.31, 289.38)" xlink:href="#linear-gradient-42"/><linearGradient id="linear-gradient-58" x1="8954.8" y1="-127.63" x2="9124.51" y2="-185.77" gradientTransform="matrix(1.13, 0.02, -0.34, 0.87, -9881.31, 289.38)" xlink:href="#linear-gradient-42"/><linearGradient id="linear-gradient-59" x1="9036.12" y1="-171.51" x2="9027.88" y2="-155.8" gradientTransform="matrix(1.13, 0.02, -0.34, 0.87, -9881.31, 289.38)" xlink:href="#linear-gradient-42"/><linearGradient id="linear-gradient-60" x1="9049.43" y1="-113.56" x2="9065.03" y2="-118.23" gradientTransform="matrix(1.13, 0.02, -0.34, 0.87, -9881.31, 289.38)" xlink:href="#linear-gradient-42"/><linearGradient id="linear-gradient-61" x1="8954.8" y1="-100.69" x2="9124.51" y2="-158.84" gradientTransform="matrix(1.13, 0.02, -0.34, 0.87, -9881.31, 289.38)" xlink:href="#linear-gradient-42"/><linearGradient id="linear-gradient-62" x1="9036.12" y1="-144.57" x2="9027.88" y2="-128.86" gradientTransform="matrix(1.13, 0.02, -0.34, 0.87, -9881.31, 289.38)" xlink:href="#linear-gradient-42"/><linearGradient id="linear-gradient-63" x1="9049.43" y1="-86.51" x2="9065.03" y2="-91.19" gradientTransform="matrix(1.13, 0.02, -0.34, 0.87, -9881.31, 289.38)" xlink:href="#linear-gradient-42"/><linearGradient id="linear-gradient-64" x1="8954.8" y1="-73.65" x2="9124.51" y2="-131.79" gradientTransform="matrix(1.13, 0.02, -0.34, 0.87, -9881.31, 289.38)" xlink:href="#linear-gradient-42"/><linearGradient id="linear-gradient-65" x1="9036.12" y1="-117.53" x2="9027.88" y2="-101.82" gradientTransform="matrix(1.13, 0.02, -0.34, 0.87, -9881.31, 289.38)" xlink:href="#linear-gradient-42"/><linearGradient id="linear-gradient-66" x1="9048.94" y1="48.16" x2="9064.54" y2="43.48" gradientTransform="matrix(1.13, 0.02, -0.34, 0.87, -9881.31, 289.38)" xlink:href="#linear-gradient-42"/><linearGradient id="linear-gradient-67" x1="8954.31" y1="61.02" x2="9124.02" y2="2.88" gradientTransform="matrix(1.13, 0.02, -0.34, 0.87, -9881.31, 289.38)" xlink:href="#linear-gradient-42"/><linearGradient id="linear-gradient-68" x1="9035.63" y1="17.14" x2="9027.38" y2="32.85" gradientTransform="matrix(1.13, 0.02, -0.34, 0.87, -9881.31, 289.38)" xlink:href="#linear-gradient-42"/><linearGradient id="linear-gradient-69" x1="9048.94" y1="75.09" x2="9064.54" y2="70.42" gradientTransform="matrix(1.13, 0.02, -0.34, 0.87, -9881.31, 289.38)" xlink:href="#linear-gradient-42"/><linearGradient id="linear-gradient-70" x1="-2323.99" y1="447.95" x2="-2104.38" y2="372.71" xlink:href="#linear-gradient-42"/><linearGradient id="linear-gradient-71" x1="9035.63" y1="44.08" x2="9027.38" y2="59.79" gradientTransform="matrix(1.13, 0.02, -0.34, 0.87, -9881.31, 289.38)" xlink:href="#linear-gradient-42"/><linearGradient id="linear-gradient-72" x1="8975.11" y1="16.33" x2="9468.16" y2="-261.08" gradientTransform="matrix(1.13, 0.02, -0.34, 0.87, -9881.31, 289.38)" xlink:href="#linear-gradient-42"/><linearGradient id="linear-gradient-73" x1="-2312.51" y1="340.4" x2="-2248.85" y2="318.59" xlink:href="#linear-gradient-42"/><linearGradient id="linear-gradient-74" x1="9059.28" y1="-166.47" x2="9052.8" y2="-154.12" gradientTransform="matrix(1.13, 0.02, -0.34, 0.87, -9881.31, 289.38)" xlink:href="#linear-gradient-42"/><linearGradient id="linear-gradient-75" x1="5858.19" y1="587.84" x2="5996.28" y2="510.15" gradientTransform="matrix(1.06, 0, 0.04, 0.95, -5376.84, 165.85)" xlink:href="#linear-gradient-42"/><linearGradient id="linear-gradient-76" x1="5864.31" y1="582.78" x2="5919.02" y2="564.04" gradientTransform="matrix(1.06, 0, 0.04, 0.95, -5376.84, 165.85)" xlink:href="#linear-gradient-42"/><linearGradient id="linear-gradient-77" x1="1578.96" y1="324.93" x2="1572.48" y2="337.27" gradientTransform="matrix(-1.14, 0.02, 0.34, 0.87, 2505.06, 289.39)" xlink:href="#linear-gradient-42"/><linearGradient id="linear-gradient-78" x1="1619.94" y1="386.51" x2="1635.54" y2="381.84" gradientTransform="matrix(-1.14, 0.02, 0.34, 0.87, 2505.06, 289.39)" xlink:href="#linear-gradient-42"/><linearGradient id="linear-gradient-79" x1="1525.31" y1="399.38" x2="1695.02" y2="341.23" gradientTransform="matrix(-1.14, 0.02, 0.34, 0.87, 2505.06, 289.39)" xlink:href="#linear-gradient-42"/><linearGradient id="linear-gradient-80" x1="1606.63" y1="355.5" x2="1598.39" y2="371.21" gradientTransform="matrix(-1.14, 0.02, 0.34, 0.87, 2505.06, 289.39)" xlink:href="#linear-gradient-42"/><linearGradient id="linear-gradient-81" x1="1619.94" y1="413.56" x2="1635.54" y2="408.89" gradientTransform="matrix(-1.14, 0.02, 0.34, 0.87, 2505.06, 289.39)" xlink:href="#linear-gradient-42"/><linearGradient id="linear-gradient-82" x1="1525.31" y1="426.42" x2="1695.02" y2="368.28" gradientTransform="matrix(-1.14, 0.02, 0.34, 0.87, 2505.06, 289.39)" xlink:href="#linear-gradient-42"/><linearGradient id="linear-gradient-83" x1="1606.63" y1="382.54" x2="1598.39" y2="398.26" gradientTransform="matrix(-1.14, 0.02, 0.34, 0.87, 2505.06, 289.39)" xlink:href="#linear-gradient-42"/><linearGradient id="linear-gradient-84" x1="1619.94" y1="440.49" x2="1635.54" y2="435.82" gradientTransform="matrix(-1.14, 0.02, 0.34, 0.87, 2505.06, 289.39)" xlink:href="#linear-gradient-42"/><linearGradient id="linear-gradient-85" x1="1525.31" y1="453.36" x2="1695.02" y2="395.21" gradientTransform="matrix(-1.14, 0.02, 0.34, 0.87, 2505.06, 289.39)" xlink:href="#linear-gradient-42"/><linearGradient id="linear-gradient-86" x1="1606.63" y1="409.48" x2="1598.39" y2="425.19" gradientTransform="matrix(-1.14, 0.02, 0.34, 0.87, 2505.06, 289.39)" xlink:href="#linear-gradient-42"/><linearGradient id="linear-gradient-87" x1="1619.94" y1="467.33" x2="1635.54" y2="462.66" gradientTransform="matrix(-1.14, 0.02, 0.34, 0.87, 2505.06, 289.39)" xlink:href="#linear-gradient-42"/><linearGradient id="linear-gradient-88" x1="1525.31" y1="480.19" x2="1695.02" y2="422.05" gradientTransform="matrix(-1.14, 0.02, 0.34, 0.87, 2505.06, 289.39)" xlink:href="#linear-gradient-42"/><linearGradient id="linear-gradient-89" x1="1606.63" y1="436.31" x2="1598.39" y2="452.03" gradientTransform="matrix(-1.14, 0.02, 0.34, 0.87, 2505.06, 289.39)" xlink:href="#linear-gradient-42"/><linearGradient id="linear-gradient-90" x1="1619.94" y1="494.26" x2="1635.54" y2="489.59" gradientTransform="matrix(-1.14, 0.02, 0.34, 0.87, 2505.06, 289.39)" xlink:href="#linear-gradient-42"/><linearGradient id="linear-gradient-91" x1="5788.33" y1="672.65" x2="6007.94" y2="597.41" gradientTransform="matrix(1.06, 0, 0.04, 0.95, -5376.84, 165.85)" xlink:href="#linear-gradient-42"/><linearGradient id="linear-gradient-92" x1="1606.63" y1="463.25" x2="1598.39" y2="478.96" gradientTransform="matrix(-1.14, 0.02, 0.34, 0.87, 2505.06, 289.39)" xlink:href="#linear-gradient-42"/><linearGradient id="linear-gradient-93" x1="1577.35" y1="468.11" x2="1876.6" y2="299.74" gradientTransform="matrix(-1.14, 0.02, 0.34, 0.87, 2505.06, 289.39)" xlink:href="#linear-gradient-42"/><linearGradient id="linear-gradient-94" x1="5818.52" y1="610.46" x2="5873.24" y2="591.72" gradientTransform="matrix(1.06, 0, 0.04, 0.95, -5376.84, 165.85)" xlink:href="#linear-gradient-42"/><linearGradient id="linear-gradient-95" x1="1629.11" y1="353.72" x2="1622.64" y2="366.06" gradientTransform="matrix(-1.14, 0.02, 0.34, 0.87, 2505.06, 289.39)" xlink:href="#linear-gradient-42"/><radialGradient id="radial-gradient-24" cx="681.93" cy="394.04" r="9.12" gradientTransform="matrix(-1, 0, 0, 1, 1077.26, 0)" gradientUnits="userSpaceOnUse"><stop offset="0" stop-color="#bcbec0"/><stop offset="0.57" stop-color="#e5e6e6"/><stop offset="1" stop-color="#fff"/></radialGradient><radialGradient id="radial-gradient-25" cx="683.43" cy="445.28" r="20.53" gradientTransform="matrix(-1, 0, 0, 1, 1077.26, 0)" gradientUnits="userSpaceOnUse"><stop offset="0.03" stop-color="#fedfcb"/><stop offset="1" stop-color="#f9b69e"/></radialGradient><radialGradient id="radial-gradient-26" cx="674.49" cy="446.69" r="0.89" xlink:href="#radial-gradient-25"/><radialGradient id="radial-gradient-27" cx="677.18" cy="446.99" r="0.74" xlink:href="#radial-gradient-25"/><radialGradient id="radial-gradient-28" cx="686.99" cy="441.33" r="3.94" xlink:href="#radial-gradient-25"/><radialGradient id="radial-gradient-29" cx="672.12" cy="449.89" r="0" xlink:href="#radial-gradient-25"/><radialGradient id="radial-gradient-30" cx="678.04" cy="445.09" r="0.84" xlink:href="#radial-gradient-25"/><linearGradient id="New_Gradient_Swatch_copy_7-3" x1="256.25" y1="943.3" x2="269.21" y2="944.05" gradientTransform="matrix(-0.99, 0.1, 0.1, 0.99, 540.73, -563.9)" xlink:href="#New_Gradient_Swatch_copy_7"/><radialGradient id="radial-gradient-31" cx="2652.11" cy="11002.44" r="47.72" gradientTransform="matrix(0.26, 0.97, 0.97, -0.26, -10944.43, 707.82)" xlink:href="#radial-gradient"/><linearGradient id="linear-gradient-96" x1="256.53" y1="946.43" x2="252.52" y2="942.82" gradientTransform="matrix(-0.99, 0.1, 0.1, 0.99, 540.73, -563.9)" xlink:href="#linear-gradient-32"/><linearGradient id="New_Gradient_Swatch_copy_7-4" x1="260.81" y1="973.28" x2="276.86" y2="948.41" gradientTransform="matrix(-0.99, 0.1, 0.1, 0.99, 540.73, -563.9)" xlink:href="#New_Gradient_Swatch_copy_7"/><linearGradient id="linear-gradient-97" x1="-2281.36" y1="-865.41" x2="-2275.98" y2="-881.24" gradientTransform="matrix(-0.97, -0.25, -0.25, 0.97, -2064.49, 827.04)" xlink:href="#linear-gradient-30"/><linearGradient id="New_Gradient_Swatch_copy_7-5" x1="11359.86" y1="1349.19" x2="11397.06" y2="1349.19" gradientTransform="translate(-11094.61 249.96) rotate(-5.46)" xlink:href="#New_Gradient_Swatch_copy_7"/><linearGradient id="linear-gradient-98" x1="-9946.18" y1="-1058.95" x2="-9946.18" y2="-1072.96" gradientTransform="matrix(-0.98, -0.2, -0.2, 0.98, -9628.35, -413.89)" xlink:href="#linear-gradient-30"/><linearGradient id="New_Gradient_Swatch_copy_7-6" x1="-9957.4" y1="-1099.29" x2="-9932.6" y2="-1099.29" gradientTransform="matrix(-0.98, -0.2, -0.2, 0.98, -9628.35, -413.89)" xlink:href="#New_Gradient_Swatch_copy_7"/><radialGradient id="radial-gradient-32" cx="-10072.01" cy="-1107.67" r="18.78" gradientTransform="matrix(-0.98, -0.19, -0.19, 0.98, -9726.07, -392.23)" xlink:href="#radial-gradient-25"/><linearGradient id="linear-gradient-99" x1="-10056.61" y1="-1097.22" x2="-10069.27" y2="-1119.61" gradientTransform="matrix(-0.98, -0.19, -0.19, 0.98, -9726.07, -392.23)" xlink:href="#linear-gradient-29"/><linearGradient id="linear-gradient-100" x1="-10062.67" y1="-1086.35" x2="-10066.61" y2="-1093.34" gradientTransform="matrix(-0.98, -0.19, -0.19, 0.98, -9726.07, -392.23)" xlink:href="#linear-gradient-32"/><linearGradient id="New_Gradient_Swatch_copy_7-7" x1="-10085.63" y1="-1050.59" x2="-10038.55" y2="-1050.59" gradientTransform="matrix(-0.98, -0.19, -0.19, 0.98, -9726.07, -392.23)" xlink:href="#New_Gradient_Swatch_copy_7"/><linearGradient id="New_Gradient_Swatch_copy_7-8" x1="-10073.51" y1="-1067.5" x2="-10061.93" y2="-1097.31" gradientTransform="matrix(-0.98, -0.19, -0.19, 0.98, -9726.07, -392.23)" xlink:href="#New_Gradient_Swatch_copy_7"/><radialGradient id="radial-gradient-33" cx="-10064.75" cy="-1085.27" r="11.55" gradientTransform="matrix(-0.98, -0.19, -0.19, 0.98, -9726.07, -392.23)" xlink:href="#White_Black_2"/><linearGradient id="New_Gradient_Swatch_copy_7-9" x1="20556.93" y1="468.82" x2="20579.78" y2="433.03" gradientTransform="translate(-20187.77)" xlink:href="#New_Gradient_Swatch_copy_7"/></defs><title>features-2</title><g class="cls-7"><g id="Layer_1" data-name="Layer 1"><g class="cls-8"><polygon class="cls-9" points="582.48 682.68 566.17 692.1 558.28 687.55 574.59 678.13 582.48 682.68"/><polygon class="cls-10" points="570.3 675.65 553.99 685.07 545.23 680.01 561.55 670.6 570.3 675.65"/><polygon class="cls-11" points="606.84 696.74 590.52 706.16 584.36 702.61 600.68 693.19 606.84 696.74"/><polygon class="cls-12" points="615.11 701.58 598.8 711 595.62 709.42 611.94 700 615.11 701.58"/><polygon class="cls-13" points="594.66 689.71 578.35 699.13 571.32 695.08 587.63 685.66 594.66 689.71"/><polygon class="cls-14" points="571.57 659.91 527.26 685.49 518.91 655.09 571.57 659.91"/></g><g class="cls-8"><polygon class="cls-9" points="419.41 668.59 403.09 678 395.2 673.45 411.52 664.03 419.41 668.59"/><polygon class="cls-10" points="407.23 661.55 390.92 670.97 382.16 665.92 398.48 656.5 407.23 661.55"/><polygon class="cls-11" points="443.77 682.65 427.45 692.07 421.29 688.51 437.61 679.09 443.77 682.65"/><polygon class="cls-12" points="452.04 687.48 435.72 696.9 432.55 695.33 448.87 685.9 452.04 687.48"/><polygon class="cls-13" points="431.59 675.62 415.27 685.04 408.25 680.98 424.56 671.56 431.59 675.62"/><polygon class="cls-14" points="408.5 645.81 364.19 671.4 355.84 640.99 408.5 645.81"/></g><polygon class="cls-10" points="534.12 96.49 534.12 126.37 517.99 102.12 534.12 96.49 534.12 96.49"/><polygon class="cls-9" points="556.09 109.06 556.09 138.94 539.96 114.68 556.09 109.06 556.09 109.06"/><polygon class="cls-15" points="578.05 121.62 578.05 151.5 561.92 127.25 578.05 121.62 578.05 121.62"/><polygon class="cls-16" points="600.02 134.19 600.02 164.07 583.89 139.81 600.02 134.19 600.02 134.19"/><polygon class="cls-12" points="621.99 146.75 621.99 176.63 605.86 152.38 621.99 146.75 621.99 146.75"/><polygon class="cls-10" points="699.23 261.6 699.23 291.48 683.1 267.22 699.23 261.6 699.23 261.6"/><polygon class="cls-9" points="721.19 274.16 721.19 304.04 705.06 279.79 721.19 274.16 721.19 274.16"/><polygon class="cls-15" points="743.16 286.73 743.16 316.61 727.03 292.35 743.16 286.73 743.16 286.73"/><polygon class="cls-16" points="765.13 299.29 765.13 329.17 749 304.92 765.13 299.29 765.13 299.29"/><polygon class="cls-12" points="787.09 311.86 787.09 341.74 770.96 317.48 787.09 311.86 787.09 311.86"/><g class="cls-17"><g class="cls-18"><g class="cls-19"><polygon class="cls-20" points="372.18 166.09 287.66 214.94 372.19 263.76 456.7 214.91 372.18 166.09"/><polygon class="cls-21" points="371.77 260.41 287.66 214.94 372.19 263.76 456.7 214.91 371.77 260.41"/><polygon class="cls-22" points="287.59 466.75 372.16 515.57 372.16 263.73 287.59 214.91 287.59 466.75"/><polygon class="cls-23" points="372.14 515.57 456.71 466.75 456.71 214.91 372.14 263.73 372.14 515.57"/></g></g><g class="cls-24"><g class="cls-19"><polygon class="cls-25" points="470.46 263.19 385.94 312.05 470.47 360.87 554.99 312.02 470.46 263.19"/><polygon class="cls-26" points="470.05 357.51 385.94 312.05 470.47 360.87 554.99 312.02 470.05 357.51"/><polygon class="cls-27" points="385.87 523.92 470.44 572.74 470.44 360.84 385.87 312.02 385.87 523.92"/><polygon class="cls-28" points="470.42 572.74 554.99 523.92 554.99 312.02 470.42 360.84 470.42 572.74"/></g></g><g class="cls-29"><g class="cls-19"><polygon class="cls-30" points="567.96 361.35 483.44 410.2 567.97 459.02 652.49 410.17 567.96 361.35"/><polygon class="cls-31" points="567.55 455.67 483.44 410.2 567.97 459.02 652.49 410.17 567.55 455.67"/><polygon class="cls-32" points="483.37 581.09 567.94 629.91 567.94 459 483.37 410.17 483.37 581.09"/><polygon class="cls-33" points="567.92 629.91 652.49 581.09 652.49 410.17 567.92 459 567.92 629.91"/></g></g><g class="cls-34"><g class="cls-19"><polygon class="cls-35" points="666.25 458.46 581.73 507.31 666.25 556.13 750.77 507.28 666.25 458.46"/><polygon class="cls-36" points="665.84 552.78 581.73 507.31 666.25 556.13 750.77 507.28 665.84 552.78"/><polygon class="cls-37" points="581.66 638.26 666.23 687.08 666.23 556.1 581.66 507.28 581.66 638.26"/><polygon class="cls-38" points="666.21 687.08 750.77 638.26 750.77 507.28 666.21 556.1 666.21 687.08"/></g></g><g class="cls-39"><g class="cls-19"><polygon class="cls-40" points="766.1 555.53 681.58 604.38 766.1 653.21 850.62 604.35 766.1 555.53"/><polygon class="cls-41" points="765.69 649.85 681.58 604.38 766.1 653.21 850.62 604.35 765.69 649.85"/><polygon class="cls-42" points="681.51 696.21 766.08 745.03 766.08 653.17 681.51 604.35 681.51 696.21"/><polygon class="cls-43" points="766.06 745.03 850.63 696.21 850.63 604.35 766.06 653.17 766.06 745.03"/></g></g></g><path class="cls-44" d="M779.39,606c-9.56,6.66-24.8-3.66-32.89-8.09s-28.71-13.84-28.71-13.84l18.27-12.79S794,595.85,779.39,606Z"/><path class="cls-45" d="M698.47,529.8c-17.23,1.05,3.13,8.62,4.17,20.1s.79,20.89,8.62,20.89,4.44-27.55-.13-37.22C707.87,526.67,701.76,529.6,698.47,529.8Z"/><path class="cls-46" d="M725.93,416a9.1,9.1,0,0,1,10.54.61c5.39,4.17,12.74,18,16.42,21.57s5.15,6.74,7.35,13.49,5.52,20,7.24,21.81a56.16,56.16,0,0,1,5.37,6.46c.86,1.47,1.94,6.3,1.55,7.42-.55,1.56-1.29-.65-1.56-1.84-.22-1-1.08-4.07-1.2-3.71s.65,2.34,1,3.56c.85,2.82.59,5.56-.09,6.3s-.91-2.54-1.69-5.32-1.25-3.25-1.5-3.25,1,3.29,1.52,5.16a14.73,14.73,0,0,1,.41,3.76c0,1.26-1.1,2.7-1.54.43a36.63,36.63,0,0,0-.87-4c-.3-1.1-1.48-4.32-1.84-4.13s.48,2.35.91,3.88a21.21,21.21,0,0,1,.86,4.39c.14,1.56-1.09,3-1.53.55a34.18,34.18,0,0,0-1.29-4.88c-.37-1.34-1.59-3.21-2.39-3.33s-.31.62-.25,2.22-1.23,3.49-1.84,3.43-.37-1.59-.24-3-1.16-3.75-1-5.9.67-3.55.61-4.29a95.21,95.21,0,0,0-5.33-14.28,135.53,135.53,0,0,1-6-15.5c-.12-.8-12.74-12.62-12.74-12.62l-30.21,7.66s-5.56-9.72-10.7-12.1c-4.54-2.11-16.63-3.83-19.27-4.57s-9-1.88-10.86-5-12.12-28.08-12.79-29.67-6-7.47-6.62-8.64c-1.45-2.85-.74-6.13-.35-7.81.55-2.39,2.45-4.53,4.41-4.77s3.18,4.4,4,6.3,3.13,3.59,3.13,1.87.12-4.47.79-5,1.47.68,1.47,2.27.61,6.16.12,8.18-1,4.33-.49,5.74,5.62,9.78,8,14.56,5.84,10.92,6.27,11.47,8.46,2,12.38,2.33,15.26,1.17,19.48,2.2c3.17.78,5.21,1.78,4.48-1.16s-2.76-5.27-4.66-5.58-3-1.71-3.92-4.65-2.45-12.5-1.1-16.49,10-10.17,17.89-5,7.78,12.44,5.88,16.91-3.25,9.93-2.27,11.64S723.35,417,725.93,416Z"/><path class="cls-47" d="M720.67,433.56l12.24-7.47s14.92,15.66,16.88,17.5,3.92,9.91,4.65,11,3.92,10.77,5,14.07a44.17,44.17,0,0,1,1.46,8.7,96.49,96.49,0,0,0-5.33-14.28,135.53,135.53,0,0,1-6-15.5c-.12-.8-12.74-12.62-12.74-12.62l-15.22,3.86Z"/><path class="cls-48" d="M669.24,406.19c2.14,4.14,4.6,8.44,4.87,8.8.74.48,8.06,1.86,12,2.17l.33,0c4.13.32,15.09,1.18,19.25,2.2l1.29.33a10.52,10.52,0,0,0,2.22.46c.21,0,.31,0,.33-.07s.16-.24-.07-1.17a9.34,9.34,0,0,0-.29-.94l13-4.41a3.58,3.58,0,0,0,.23,1.78c.5.87.71.87.88.87a6.18,6.18,0,0,0,1.72-.54l.61-.21a9.9,9.9,0,0,1,5.24-1.52,9.64,9.64,0,0,1,6,2.15c3.23,2.5,7.08,8.29,10.48,13.4,2.32,3.49,4.51,6.78,6,8.21,3.8,3.67,5.32,7,7.5,13.72.66,2,1.42,4.63,2.21,7.34l-8.46,3.4a127.8,127.8,0,0,1-5.45-14.4c-.46-.85-7.73-7.82-12.37-12.17l-30.33,7.69-.22-.39c-.06-.1-5.53-9.58-10.44-11.86-3.09-1.43-10-2.73-14.58-3.59-2.11-.4-3.77-.72-4.59-.94-.39-.11-.84-.23-1.36-.35-3.25-.82-8.16-2.05-9.86-4.93-.73-1.24-2.74-5.81-5-11Z"/><path class="cls-49" d="M720.67,433.56l12.24-7.47s14.92,15.66,16.88,17.5,5.17,15.1,6.24,18.23l-1.48.37a127.8,127.8,0,0,1-5.45-14.4c-.46-.85-7.73-7.82-12.37-12.17l-14.94,3.78Z"/><path class="cls-50" d="M729.24,489.14c-5.52-1.72-15.69-5.64-15.69-5.64s2,6.25,1.35,17.77-.78,18-.12,23,2.45,12.5-1.15,12.75-7-3.52-10.86-3.27-6.54-3-3.35-4,7.27-.74,6.7-7-3.6-22.88-5.32-31.7-3.59-15.12-2-19,6-3.19,9-3.35,23-.24,23-.24Z"/><path class="cls-51" d="M711.13,533.57s.55-25.69.37-31-4.22-23.31-4.22-23.31l22.26,5.85-.3,4c-5.52-1.72-15.69-5.64-15.69-5.64s2,6.25,1.35,17.77-.78,18-.12,23,2.45,12.5-1.15,12.75a7.53,7.53,0,0,1-3.36-.73Z"/><path class="cls-52" d="M719.31,476.39s.74,23.53,4.29,35.91a168.29,168.29,0,0,0,11.15,28.07c1.6,2.82,4.29,7.23,7.36,12s18.75,22.92,20.71,27.82,3.31,10.29,3.31,13.11c0,.52-3.52,4.23-3,4.19,2.26-.16,12.08-8.39,11.09-10.68-1.23-2.82-2.21-3.8-4.66-9s-11.77-27.7-16.06-33.21-8.33-8.71-9.19-10.42-2.57-31.13-2.2-32.48,3.3-2.7,3.55-9.68-7-17.89-7-17.89Z"/><path class="cls-53" d="M738.67,474.19s7.23,10.9,7,17.89-3.19,8.33-3.55,9.68,1.34,30.76,2.2,32.48,4.9,4.9,9.19,10.42,13.61,28.06,16.06,33.21,3.43,6.13,4.66,9c.47,1.08-1.5,3.51-3.94,5.77-.16-3.59-.55-7.43-1.4-9.77-2-5.38-10.65-20.43-14.81-27.53s-10.27-18-11.74-19.45-4.41-8.81-6-21.9c-1.52-12.52,1.86-24.7-2.33-39.22Z"/><path class="cls-54" d="M716.06,530.5s1.23,2.57.43,4.66-2.94,5-3.49,6.37a15.91,15.91,0,0,0-.8,2.64l-2.26.06-1.78-1.47s1.78-5.58-.19-6.32-7.5,1.37-10.36.38c-3.18-1.1-6.61-3.07-5.44-6s5.08-2.82,6.86-2.7a23.86,23.86,0,0,1,3.37.49s-.74,2.15,2.94,3.07S716.06,530.5,716.06,530.5Z"/><path class="cls-55" d="M773.58,583.36s2.94,2.27,3.37,4.78.61,6.9.92,8.62.79,3.86.79,3.86l-2.41.85-1.87-.36-.84-4.37s-.3,1.84-2.82,3.74-5.33,3-7.53,2.08-3.93-4.1-1.72-5.63,3.86-2.52,3.86-2.52.31,2.7.92.56,1.72-8,3.25-9.56A9.09,9.09,0,0,1,773.58,583.36Z"/><path class="cls-56" d="M770.72,600.48c-2.51,1.9-5.33,3-7.53,2.08a4.53,4.53,0,0,1-1.54-1.08,4.39,4.39,0,0,0,3.24.21,7.75,7.75,0,0,0,3.93-4.21c.86-3.13,1-5.52,2.27-5.52.9,0,1.94,3.22,2.42,4.92A7.14,7.14,0,0,1,770.72,600.48Z"/><path class="cls-57" d="M715.72,466.59l-12.67,1.47a38.13,38.13,0,0,1,3.49,8.44c1.84,5.88,9.46,17.05,9.34,20.73a26.45,26.45,0,0,0,8.83,18.91c10.71,9.16,33.45,9.64,33.45,9.64s.29-34.41-6-48.53c-3.78-8.46-12.38-14.95-13.24-19.85s-.63-19.62-.63-19.62-3.91-15.44-6.48-18.5a11.37,11.37,0,0,0-6.13-3.68L722.74,417s6.37,7.48,2.58,9.44-15-6.05-15-6.05l-1.35.13s7.61,10,3.2,16.09-13.18-3-13.18-3,.56,10.11,3.62,13.66,7.48,5,9.19,8.95S715.72,466.59,715.72,466.59Z"/><path class="cls-58" d="M707.27,447.14a14.69,14.69,0,0,0,2.84,6.48c-2.11-2.23-5.17-3.73-7.47-6.4-3.06-3.55-3.62-13.66-3.62-13.66a30.39,30.39,0,0,0,4.49,9.91C704.71,445.24,707.18,446.54,707.27,447.14Z"/><path class="cls-59" d="M694.67,535.47c3.31,1.9,11.69.18,14.44.43S710,544,710,544l-.11.24-1.76-1.45s1.78-5.58-.18-6.32-7.51,1.37-10.37.38A15.51,15.51,0,0,1,694,535.1Z"/><path class="cls-60" d="M703.05,468.06l12.67-1.47a44.53,44.53,0,0,1,1.92,14.22c-.29,5.91-1.67,11.35-2,15-1.21-4.57-7.47-14.05-9.12-19.32A38.13,38.13,0,0,0,703.05,468.06Z"/><path class="cls-61" d="M748.08,491.18c.49-14.68-9.54-26.43-11.5-31.56s-1-17.62-5.14-28.39l2.25-8.3a147.12,147.12,0,0,1,4.6,14.85s-.23,14.71.63,19.62,9.46,11.39,13.24,19.85c6.29,14.12,6,48.53,6,48.53a91,91,0,0,1-12.39-1.33C746.43,517.2,747.72,502,748.08,491.18Z"/><path class="cls-62" d="M707,406c-.27,2.57-2.3,7.7-.27,12.66a39.48,39.48,0,0,1,2.93,13.77c-.09,4.12-5.38,9.29-5.38,9.29a37.9,37.9,0,0,0,22,.36c13-3.64,15.65-11.45,14.55-15.19-.58-2-9-10.8-11.11-22.45-1.64-9-5.39-18-14.4-19.75-9.52-1.89-14,3.11-15.24,5.07s-2.66,5-.46,8.26S708.09,395.83,707,406Z"/><path class="cls-63" d="M648.44,371a24.36,24.36,0,0,0-1.11,3.93,31.69,31.69,0,0,0,.06,4.59,12.61,12.61,0,0,1-.68-4.34,12.89,12.89,0,0,1,.55-2.91A6.24,6.24,0,0,1,648.44,371Z"/><path class="cls-64" d="M651.42,370.35a18.67,18.67,0,0,0-.74,2.86,31.69,31.69,0,0,0,.06,4.59,11,11,0,0,1,0-7.7A1.31,1.31,0,0,1,651.42,370.35Z"/><path class="cls-65" d="M654.48,376.36c.62,1.47,2.13,2.79,2.8,2.53l0,.07a3.26,3.26,0,0,1-4-1.56,24.58,24.58,0,0,1-.91-6A35.27,35.27,0,0,1,654.48,376.36Z"/><path class="cls-66" d="M649.07,373.81a33.16,33.16,0,0,0,.06,4.58,12.45,12.45,0,0,1-.67-4.34,12.74,12.74,0,0,1,.76-3.55,4.16,4.16,0,0,1,.86-.34A22.51,22.51,0,0,0,649.07,373.81Z"/><path class="cls-67" d="M731.78,411.56c3.27,8,8.54,13.81,9,15.36,1.1,3.74-1.5,11.55-14.55,15.19a37.9,37.9,0,0,1-22-.36C729.22,437.4,733.08,427.56,731.78,411.56Z"/><path class="cls-67" d="M708.28,384.57c-3.82,3.46-4.53,8.65-3.26,15-1.79-.58-4.24.26-5.45-1.5-2.2-3.22-.77-6.3.46-8.26A12.3,12.3,0,0,1,708.28,384.57Z"/><path class="cls-68" d="M528.4,422.38c11.67,13.39,35.24,12.53,60.3,11.36,14.2-.67,32.49-7.52,25.06-14.88-14-13.88-33.08-6.53-47.06-4S515.08,407.11,528.4,422.38Z"/><path class="cls-69" d="M543.38,414.54c1.22,1.84,5.84,7.06,7.65,9.09,2.13,2.38,2.49,5.78-2.14,6.46s-9.3-1.67-11.15-4-1.63-5.15-3.73-5.32a8.89,8.89,0,0,1-2-.72,29,29,0,0,1-2.8-2.34s1-3.71,1.3-4.44a27,27,0,0,1,2.28-3.72l8.53,2.24S542.7,413.53,543.38,414.54Z"/><path class="cls-70" d="M548.11,420.43c2.23,2.32,6.46,7.18.58,7.37a13.08,13.08,0,0,1-10.77-5.15c-1.17-1.64-1.89-2.94-3.32-3.59a45.84,45.84,0,0,1-4.83-3.14,21.44,21.44,0,0,1,1-3.65,17.29,17.29,0,0,0,.91-2l10.83,2.41A81.53,81.53,0,0,0,548.11,420.43Z"/><path class="cls-69" d="M586.14,408.91,585,415.63a38.87,38.87,0,0,0,4.85,2.42c1.53.48,4-.49,5.27,1.11s6.35,5.66,10.59,6.51c4.56.91,7.76-.56,7.83-1.87s-1.11-3.47-5.27-6.17-7.68-9.28-7.68-9.28Z"/><path class="cls-71" d="M585.8,413.2c.62.76,8.25,2.56,9.5,4.15,1.43,1.8,8.56,6.21,12.16,6.83,3.27.56,5.79-1.07,5.47-2.33-.45-1.8-3.45-3.45-6.08-5.46s-5.47-6.65-5.47-6.65l-15.65-1.11Z"/><path class="cls-72" d="M595.23,306.12s7.07,13.29,8.92,20.53,7.63,26.6,6.73,34.06c-.78,6.33-3.78,11.81-5.21,19.38-1.14,6-3.4,25.33-2.09,29.11.73,2.11-1.57,3-8.36,2.35-5-.48-10.05,1-10.05-.72s1.54-24.14,3.14-33.48a89,89,0,0,1,4.89-17.23l-15.63-32.8a270.72,270.72,0,0,1,3.78,29.44c.76,13.46,3.19,20.79.42,25.82s-22.7,18.53-27.46,23.36-6.35,10.7-7,11.22c-1.43,1.18-5.35-.15-8.68-.91-3.73-.86-8-3.72-8.16-4.39-.34-1.26,2.91-7.53,6.73-12.51,3.48-4.54,13.18-14.75,17.14-18,3.62-2.91,9.88-7.44,9.88-7.44s-9.37-24.44-10.47-32.85-4.79-20.44-3.53-31,8.83-13.63,8.83-13.63,13.54,10.6,19.77,11.94S595.23,306.12,595.23,306.12Z"/><path class="cls-67" d="M593.2,360.12l-15.63-32.8.82-12.75s1.6,1.31,4.56,7.83c3.68,8.08,17.63,33,16.58,38s-7.31,13.83-9.7,51.16c-2.7.16-4.66.34-4.66-.72,0-1.68,1.54-24.14,3.14-33.48A89.85,89.85,0,0,1,593.2,360.12Z"/><path class="cls-67" d="M536.14,415.42c-2.91-1.2-5.52-3-5.66-3.56-.34-1.26,2.91-7.53,6.73-12.51,3.48-4.54,13.18-14.75,17.14-18,3.62-2.91,9.88-7.44,9.88-7.44s-9.37-24.43-10.47-32.85-4.79-20.44-3.53-31A17.94,17.94,0,0,1,555,299.49l10.52,6.34s-2.33,16.49-2.09,29.1c.39,21,10.57,37.73,7.7,42.69S545.76,390.41,536.14,415.42Z"/><path class="cls-73" d="M653.33,335.39c1.45,3.35,3.6,8.27,4.8,9.53s6.43,6.56,6.68,8.89-1.89,9.72-3.22,10.86-2.71,2.71-3.78,2.52a18.64,18.64,0,0,1-2.08-.51,10.31,10.31,0,0,1-3.22-.5c-1.13-.51-1.13-1.7-.44-1.83a11.62,11.62,0,0,0,2.84-.76c.88-.44,2.84-4.48,2.84-4.48l-.51-.69s-.94,4-2.33,4.23-.57-3.91-.63-4.55-1.14-8.13-2-9.4-11.86-15.51-15.77-23.4S653.33,335.39,653.33,335.39Z"/><path class="cls-74" d="M657.73,343l-7.49,4-2.69-3.28s-9.52-10.9-13.14-19.15S620,292,620,292s-6.81,6.65-13.12,9.84-9.11,4.47-9.53,5.73a4.12,4.12,0,0,0,.2,2.64s-12.66,7-21.24,4.41A37.06,37.06,0,0,1,554.83,298s10.88-12.78,16.09-19.43,7.32-9.08,16.57-11.52,33.31-7.49,40.71,2.19,7.49,18.59,9.68,26.66,3,14.38,5.46,17.58,11.53,20.1,12.28,22.54a23.17,23.17,0,0,1,.93,4.38Z"/><path class="cls-75" d="M608.6,263.23c-2.35,3-3.89,5.13-5.51,5.56-2.75.73-6.36,6.46-.2,11.65,5.29,4.45,10.68,2.8,14.55-1.65S608.6,263.23,608.6,263.23Z"/><path class="cls-76" d="M609.48,270.27c-1.56,14.37-1.15,15.63,2.58,16.5s8.79-4.38,9-10.73S610.11,264.55,609.48,270.27Z"/><path class="cls-77" d="M560.07,332a26.45,26.45,0,0,0,1.39,5.54c.83,1.77,4,6.63,4.07,7.45s0,3,.1,4.3,1.12,3.86.37,4.51-1.93-2.29-1.93-2.29.41,2.55.48,3.21a35.07,35.07,0,0,1,.15,4.05c-.08.57-1,3.37-1.83,3.15s-.66-2.34-.53-3.22S561.28,351,561,351s.29,3.79.27,4.66-.26,4.12-.65,4.75-1.19,2.4-2.13,2.13-.28-2.3,0-2.88a13,13,0,0,0,.22-3.85c-.08-.82-.69-4.85-1-4.89s.43,3.42.36,4.19a11.85,11.85,0,0,1-.79,3.72c-.48.74-2.35,1.53-2.63,1.13s.84-2.39.88-2.6a21.22,21.22,0,0,0,0-2.72,20.61,20.61,0,0,0-.7-3.67c-.27-.29-.14,1.75-.22,2.47a17.16,17.16,0,0,1-.31,2.89c-.23.67-1,1.94-1.62,1.91s0-2.36-.07-3.44-.47-4.45-.67-6.9a49.42,49.42,0,0,1,0-7.9c.23-2.07.72-4,.64-4.85s-.52-3-.52-3Z"/><path class="cls-78" d="M628.71,252.54c3.35,2.76,6.73,6.73,2.86,16.57s-7.66,15.14-11.36,14.3-9.76-6.47-10.68-8.32-4.63-13.13-.42-20.28S623,247.83,628.71,252.54Z"/><path class="cls-79" d="M633.84,262.22c-.73,2.33-7.15,3-11.53,1.17s-7.48,3.54-7.48,3.54l-2.1-.84s-1.27-5.14-3.28-4.8-2.36,2.94-2.11,4.54-1.34-.59-1.34-2.6,1.66-16,14-16S635,258.43,633.84,262.22Z"/><path class="cls-80" d="M564.23,308.83c.39,14.1-2.89,30-4.61,28.29-3.12-3.06-6.36-39.06-6.36-39.06s12.45-12.88,17.66-19.53l1.46-1.83c9.35-2.2,17.3-2,18.18,4.72.6,4.61-3.13,8.61-13.22,14C571,298.79,566.51,305.72,564.23,308.83Z"/><path class="cls-81" d="M584.1,271.83c6.22.84,11.41,12.63-.61,17.51a128.34,128.34,0,0,0-23.38,13.09,66,66,0,0,0-.18,9.45c.26,5.72,2.11,14.55,1.77,16.15s-.76,3.11-.76,3.11l.34,2.52-9,1.35-.59-2.52a60.85,60.85,0,0,1-2.27-6.65c-1.18-4.12-3.95-23-3.28-27.17s9.93-11.27,17.07-16.23S573.77,270.43,584.1,271.83Z"/><path class="cls-67" d="M629.32,306.58c2.84,8.81,2.94,7.24,3.92,9.1s7.63,10.57,11,17.52c2,4.2,5.16,9.49,7.34,13l-1.3.69-2.69-3.28s-9.52-10.9-13.14-19.15S620,292,620,292l2.41-3.62S626.48,297.77,629.32,306.58Z"/><path class="cls-67" d="M614.83,266.93l-2.11-.85s-1.26-5.13-3.27-4.79-2.36,2.95-2.11,4.54-1.34-.59-1.34-2.6c0-1.67,1.15-11.48,8.53-14.83-2.53,3.06-3.32,5.9-2.14,12A61.63,61.63,0,0,0,614.83,266.93Z"/><path class="cls-82" d="M657.24,358.42l0-3.32s1.76,1.37,1.56,2.81-3.52,5.61-3.52,5.61l2.42-4.41Z"/><path class="cls-83" d="M653.89,366.52a8.13,8.13,0,0,0,2.68-.72,35.57,35.57,0,0,0,3.46-4.3,48.75,48.75,0,0,1-2.81,4.56,9.2,9.2,0,0,1-1.49.62Z"/><path class="cls-84" d="M658.27,367.24s2.22-1.57,2.48-2.35,1.11-2.61,1.11-2.61l-.59,2.74-2.22,1.89Z"/><path class="cls-85" d="M396.18,173.42c0-.82-2-3.28-3.92-3.74s-4.38-.54-5.47,2.37a30.73,30.73,0,0,0-1.49,5.35l.48,1.12a38.08,38.08,0,0,1-1.64,6.75c-.91,2.09-3.49,5.2-3.16,12.24.19,3.83,6.11,6.78,9.21,2.4s3.52-12.73,3.52-12.73Z"/><path class="cls-86" d="M393.44,170.35c-1.85-.66-4.37.24-5.83,6.87s-3.77,11.54-4.5,14.82-2.19,9.3,4.19,9.12c4.26-.12,6-7.78,6.44-14.59S398.18,172.05,393.44,170.35Z"/><path class="cls-85" d="M348.9,176.85s-.18-4.37-2.64-5.1-5.65-.09-6.38,1.73-1.46,7.61-1.83,9.48c-1.06,5.38-2.46,11.64.1,16.41,1.51,2.82,8.65,4.55,10.2.18s-.63-10.94-.72-15S348.81,179.4,348.9,176.85Z"/><path class="cls-87" d="M345.62,173c-3.73-1.36-5.47.25-6.26,6.2s-2.67,12.16-1.09,18.54c.78,3.17,7.9,6.31,9.72,1,2.07-6.08-1.57-10.87-.79-17.08S348,173.88,345.62,173Z"/><path class="cls-88" d="M420.54,117.88l-38.19-4.19s-4.28,11.12-6.47,17.23-9,17.59-11.3,24.33-6.29,19.69-6.29,19.69-2.55.09-6.29.45-8-3.46-10.76.1-3.37,13.39-1.36,15,5.13.49,8.38.55c4,.08,7.75,3.56,11.94,3.65s5.75-2.65,11.85-10.48,25.89-35.73,25.89-35.73l5.38,24.79s-7.11-1.58-8.94-2.77-4.1,1.13-5.19,6.69.64,10.57,3.28,11,5.92-.92,8.38.45,9.94,6.93,14.41,5.38,4.64-5.29,6.1-12.49,3.83-16.4,2.55-33.17S420.54,117.88,420.54,117.88Z"/><path class="cls-67" d="M338.71,186.1c-.08-3.61.81-8.37,2.53-10.61,2.74-3.56,7,.27,10.76-.1s6.29-.45,6.29-.45,4-12.94,6.29-19.69,9.11-18.23,11.3-24.33,6.47-17.23,6.47-17.23l8.62.94c-.65,6.61-1.62,12.81-3.06,17-2.19,6.38-26.61,50.86-27.71,53.05s.19,6-6,4.56C349,188,342.49,185.39,338.71,186.1Z"/><path class="cls-67" d="M401.4,137.66c.73-3.65,1.46-11.12,1.46-11.12l4.92-.18s-.18,8.75-1.64,12.58a45.57,45.57,0,0,1-2.73,6s4.55,8.93,4.37,15.31,2.55,22.43,2.19,23.7-7.11-.54-13.31.18c-2.15.26-4.68.62-7.06,1a15.13,15.13,0,0,1-.41-7.91c1.09-5.56,3.37-7.87,5.19-6.69s8.94,2.77,8.94,2.77l-5.38-24.79A98.44,98.44,0,0,0,401.4,137.66Z"/><path class="cls-89" d="M346.62,25.64c.11-3.12,1-7,1.83-7.47s3.19.45,4.1-.46,3-3.92,2.73-4.83-5.56-3.19-7.11-3.46-5.47,2.34-6.2,5.44-1.64,6.25-1.55,9.69c.07,2.59.82,7,.92,10.84s-.37,20.79,3,23.7,19.51,10.67,22.52,14.13S371.69,79,371.69,79l2.73-19.41L360.84,55.9c-3.37-.91-8-2.37-8-2.37a55.61,55.61,0,0,0-2.1-12.67C348.72,33.66,346.53,28.19,346.62,25.64Z"/><path class="cls-90" d="M431.21,14.16c.45.73,3.09,10.75,5,16.77s4.1,11.57,4.1,11.57-7.11,2.28-10.48,5-10.94,4.28-14.95,6.29a38.89,38.89,0,0,0-6.2,3.73l18.23,8.39s13-10.85,17.14-12.85,9.84-7.11,9.2-10.3S438,12.61,437,11.51s-5.38-9.29-8-10.93-7.2.63-8.48,1.64-5.19,1.18-3.83,3.46,5.75,4.83,8.75,6.29A36,36,0,0,0,431.21,14.16Z"/><path class="cls-91" d="M403.5,57.45c3.6-.73,7.38-2.73,13-4.83a128.49,128.49,0,0,0,15.4-7.2,40.31,40.31,0,0,1,7.57-2.82s-6.38-17.6-7.2-21.33l-.82-3.74-.18-2.28,7.11-3.74,1,2.65a6,6,0,0,1,3,2.82c1,2.1,10.18,22.14,11.39,24.34,2,3.64.07,7.47-4.38,9.75s-17.95,16-19.59,21.15S424.92,83,424.37,88.44s-2.55,17.5-1.82,23.33,1.09,8.3,0,9.57-1.55,1.28-1.55,1.28l.54,2.74s-13.39,2.18-24.24.91a27.29,27.29,0,0,1-16.68-8.12l.91-2.82a7.72,7.72,0,0,1-.64-3.83c.09-2.55.37-13.67-2.82-19.6S365.92,74.83,361.9,72.64s-18.83-9.48-20.66-13.85-1.7-22.09-1.7-26a31.62,31.62,0,0,1,.61-5.77V25.64h6.47l.64,1.73a5.55,5.55,0,0,1,1.19,1.92c2.09,6.15,3.2,9.72,3.49,12.36.36,3.31,1.34,11,1.34,11s5.65,1.73,9.93,3.1,6.47,2.1,15,3.19S395.84,59,403.5,57.45Z"/><path class="cls-67" d="M339.54,32.78a31.62,31.62,0,0,1,.61-5.77V25.64h2.27l.53,2.65a107.23,107.23,0,0,1,1,16c-.24,7.65-.85,12.27-.24,13.61s26.26,12,29.83,13.37c9.54,3.52,18.29,21.14,18.23,33a123,123,0,0,1-2.05,20,25.71,25.71,0,0,1-9.07-6.13l.91-2.82a7.72,7.72,0,0,1-.64-3.83c.09-2.55.37-13.67-2.82-19.6S365.92,74.83,361.9,72.64s-18.83-9.48-20.66-13.85S339.54,36.7,339.54,32.78Z"/><path class="cls-92" d="M427.83,6c0-1.27-.63-3.28-1-3.19s-4.19,1.92-4.1,2.37,1.18,1.83,1.73,1.55,2.1-1.82,2.64-1.36S427.83,6,427.83,6Z"/><path class="cls-93" d="M348.29,13.09s3.65.49,3.77.85-4.74.86-4.74.86Z"/><path class="cls-67" d="M431.3,61.28S439,54,443,50.89c3.13-2.42,8.58-3.29,11.34-4.85a9.34,9.34,0,0,1-4.87,5c-4,2-15.64,13.71-18.9,19.62C431.09,66.27,431.3,61.28,431.3,61.28Z"/><path class="cls-94" d="M406.78,56.81c2.92.09,8.93,3.56,5,7.57s-18.77,5.29-24.52-.64,8.39-5.1,8.39-5.1Z"/><path class="cls-95" d="M394.47,27.19c4.09,1.43,7.2,7.11,8.75,11.39s1.28,7.93,1.46,9.39,1.1,6.93,2.37,8.21,4.56,3.73,4.47,5.37-3.56,4.74-9.66,4.93-13.77-2.65-14.59-4.74c-.72-1.87,3.1-3.47,2-6.48-.84-2.3-7.38-5.74-8.2-9.2s-1.37-9,.45-13.58C382.94,29,389,25.28,394.47,27.19Z"/><path class="cls-96" d="M396.66,27.92c.24.24-8.17-2.29-13,4.19a7.83,7.83,0,0,0-1.28,7c.61,1.61,2.1,4.74,2.1,4.74l-.64.46s-2.83-1-2.64.82,3.92,5.19,4.37,5.74-4.17-1.71-6.2-6.75c-2.85-7.11-1.72-14.41,5-17.22C391.56,23.91,395.84,27.1,396.66,27.92Z"/><path class="cls-97" d="M399.85,58.82c4.14-.75,4.66-14.21,4.19-12.94-1,2.73-10,7.2-13.3,3.73C389.81,48.63,396.84,59.37,399.85,58.82Z"/><path class="cls-68" d="M343.53,216.19c0,7.23,11.4,13.09,25.47,13.09s25.48-5.86,25.48-13.09S383.07,203.1,369,203.1,343.53,209,343.53,216.19Z"/><path class="cls-98" d="M357.1,598.61l-40.77-23.94a7.36,7.36,0,0,1-.05-12.72L392,524.79l56.48,31.91-84,41.89A7.36,7.36,0,0,1,357.1,598.61Z"/><path class="cls-99" d="M389.84,526.43l55.53,31.42-81.2,40.57a7.4,7.4,0,0,1-7.26-.09l-40.09-23.51c-4.65-2.68-5.09-9.62-.46-12.34Z"/><path class="cls-100" d="M387.65,528.07,442.21,559l-78.37,39.26a7.44,7.44,0,0,1-7.12-.2L317.31,575c-4.42-2.56-5.26-9.38-.86-12Z"/><path class="cls-101" d="M385.45,529.71l53.61,30.43-75.56,38c-2,1.15-5,.81-7-.32L317.8,575.13c-4.18-2.42-5.43-9.14-1.26-11.59Z"/><path class="cls-102" d="M383.26,531.35l52.64,29.94-72.74,36.63c-1.85,1.09-5,.64-6.82-.44l-38-22.2c-4-2.28-5.61-8.89-1.67-11.21Z"/><path class="cls-103" d="M381.06,533l51.69,29.44-69.93,35.32c-1.74,1-4.93.46-6.67-.55l-37.36-21.77c-3.72-2.15-5.78-8.65-2.07-10.83Z"/><path class="cls-104" d="M378.87,534.63l50.72,29-67.11,34c-1.63,1-4.89.28-6.53-.67l-36.67-21.33c-3.48-2-5.95-8.42-2.48-10.46Z"/><path class="cls-105" d="M376.68,536.26l49.76,28.46-64.29,32.7c-1.53.9-4.85.1-6.39-.78l-36-20.9c-3.26-1.88-6.13-8.17-2.89-10.08Z"/><path class="cls-106" d="M374.48,537.9l48.81,28-61.48,31.39c-1.42.83-4.81-.09-6.24-.91l-35.3-20.46c-3-1.74-6.3-7.93-3.29-9.7Z"/><path class="cls-107" d="M372.29,539.54,420.13,567l-58.66,30.08c-1.31.77-4.77-.26-6.09-1l-34.62-20c-2.79-1.61-6.47-7.68-3.69-9.32Z"/><path class="cls-108" d="M370.09,541.18l46.89,27-55.85,28.76c-1.2.71-4.73-.44-5.94-1.13L321.26,576.2c-2.56-1.48-6.65-7.45-4.1-9Z"/><path class="cls-109" d="M367.9,542.82l45.92,26.49-53,27.45c-1.09.64-4.69-.62-5.79-1.25l-33.25-19.16c-2.33-1.34-6.82-7.21-4.51-8.57Z"/><path class="cls-110" d="M365.7,544.46l45,26-50.22,26.14c-1,.58-4.65-.8-5.64-1.37L322.24,576.5c-2.09-1.21-7-7-4.91-8.19Z"/><path class="cls-111" d="M363.51,546.1l44,25.5-47.39,24.83c-.87.51-4.62-1-5.5-1.49l-31.89-18.28c-1.86-1.08-7.16-6.73-5.31-7.82Z"/><path class="cls-112" d="M361.31,547.73l43.05,25-44.58,23.52c-.76.45-4.58-1.16-5.35-1.6l-31.2-17.85c-1.63-.94-7.34-6.48-5.72-7.44Z"/><path class="cls-113" d="M359.12,549.37l42.09,24.52-41.77,22.2c-.65.39-4.54-1.34-5.2-1.71L323.72,577c-1.39-.8-7.51-6.24-6.13-7.06Z"/><path class="cls-114" d="M356.93,551l41.12,24-38.95,20.9c-.54.32-4.5-1.52-5.05-1.84l-29.84-17c-1.16-.67-7.69-6-6.53-6.68Z"/><path class="cls-115" d="M354.73,552.65l40.17,23.53-36.14,19.58c-.43.26-4.46-1.7-4.9-2l-29.15-16.54c-.93-.54-7.87-5.76-6.94-6.31Z"/><path class="cls-116" d="M352.54,554.29l39.2,23L358.43,595.6c-.33.19-4.43-1.88-4.76-2.07L325.2,577.42c-.7-.4-8-5.52-7.34-5.93Z"/><path class="cls-117" d="M350.34,555.93l38.25,22.54-30.5,17a38.39,38.39,0,0,1-4.61-2.18l-27.79-15.68c-.46-.27-8.21-5.27-7.74-5.55Z"/><path class="cls-118" d="M348.15,557.57l37.28,22-27.68,15.64c-.11.07-4.35-2.23-4.46-2.3l-27.1-15.23c-.24-.14-8.39-5-8.16-5.18Z"/><polygon class="cls-119" points="357.41 595.1 318.12 573.08 345.95 559.2 382.28 580.76 357.41 595.1"/><path class="cls-98" d="M447.7,376.93l-20.15-12.38-20.14-12.37a7.35,7.35,0,0,0-11.25,5.92l-2.9,53.34-2.9,53.33,27.35,17.44,27.34,17.44,3.05-58.08,3-58.08A7.38,7.38,0,0,0,447.7,376.93Z"/><path class="cls-99" d="M396.47,358.54l-1.45,26-1.45,26-2.23,51.12,26.37,16.81,26.91,17.13,1.55-28.29L447.73,439l2.33-55.63a7.16,7.16,0,0,0-3.37-6.29l-19.42-11.92-19.73-12.08C403,350.24,396.7,353.17,396.47,358.54Z"/><path class="cls-100" d="M396.79,359l-1.46,25.32-1.46,25.32-1.55,48.9,25.39,16.18,26.47,16.82L445.77,464l1.6-27.54L449,383.25a6.91,6.91,0,0,0-3.28-6L427,365.78,407.68,354C403.35,351.29,397,353.87,396.79,359Z"/><path class="cls-101" d="M397.11,359.41l-1.46,24.64-1.47,24.64-.88,46.69,24.42,15.54,26,16.52,1.63-26.79L447,433.86l.87-50.73a6.75,6.75,0,0,0-3.19-5.75l-18-11L407.82,354.9C403.71,352.34,397.32,354.58,397.11,359.41Z"/><path class="cls-102" d="M397.43,359.84l-1.47,24-1.47,24-.21,44.47,23.44,14.91,25.58,16.21,1.66-26,1.67-26,.15-48.28a6.55,6.55,0,0,0-3.11-5.48L426.42,367,408,355.8C404.08,353.39,397.63,355.28,397.43,359.84Z"/><path class="cls-103" d="M397.75,360.27l-1.47,23.3-1.48,23.29.47,42.26,22.45,14.28,25.14,15.9,1.7-25.29,1.7-25.29-.58-45.83a6.3,6.3,0,0,0-3-5.21l-16.52-10.07-18.05-10.9C404.44,354.44,397.94,356,397.75,360.27Z"/><path class="cls-104" d="M398.07,360.71l-1.48,22.62L395.11,406l1.14,40,21.48,13.65,24.69,15.59,1.73-24.54,1.74-24.54-1.3-43.38a6.16,6.16,0,0,0-2.93-4.94l-15.81-9.6-17.63-10.61C404.8,355.49,398.24,356.68,398.07,360.71Z"/><path class="cls-105" d="M398.39,361.14l-1.49,21.95L395.42,405l1.81,37.83,20.5,13L442,471.16l1.77-23.79,1.77-23.79-2-40.93a5.91,5.91,0,0,0-2.84-4.66l-15.08-9.15-17.21-10.31C405.17,356.54,398.55,357.38,398.39,361.14Z"/><path class="cls-106" d="M398.71,361.57l-1.49,21.27-1.49,21.28,2.48,35.61,19.53,12.38,23.8,15,1.81-23,1.8-23-2.75-38.48c.07-1.64-1.36-3.52-2.76-4.39l-14.35-8.69-16.8-10C405.53,357.59,398.86,358.08,398.71,361.57Z"/><path class="cls-107" d="M399,362l-1.5,20.59L396,403.2l3.16,33.41,18.55,11.74L441.1,463l1.84-22.29,1.84-22.29-3.47-36c.06-1.51-1.39-3.32-2.67-4.12L425,370.06l-16.38-9.72C405.9,358.63,399.17,358.79,399,362Z"/><path class="cls-108" d="M399.35,362.44l-1.5,19.92-1.51,19.93,3.83,31.19,17.57,11.11L440.66,459l1.88-21.54,1.88-21.53-4.21-33.59c.06-1.38-1.4-3.12-2.58-3.85l-12.91-7.77-16-9.42C406.26,359.68,399.48,359.49,399.35,362.44Z"/><path class="cls-109" d="M399.67,362.87l-1.51,19.25-1.51,19.25,4.51,29,16.59,10.47,22.47,14.06,1.91-20.79,1.92-20.78-4.93-31.14c.05-1.26-1.43-2.91-2.5-3.58l-12.18-7.3-15.54-9.13C406.62,360.73,399.79,360.19,399.67,362.87Z"/><path class="cls-110" d="M400,363.31l-1.51,18.57L397,400.46l5.18,26.76,15.61,9.84,22,13.75,2-20,1.95-20L438,382.06c.05-1.14-1.44-2.72-2.4-3.32l-11.46-6.84L409,363.06C407,361.78,400.09,360.89,400,363.31Z"/><path class="cls-111" d="M400.31,363.74l-1.52,17.9-1.52,17.9,5.85,24.55,14.63,9.21,21.59,13.43,2-19.28,2-19.28-6.38-26.23c0-1-1.46-2.51-2.32-3.05l-10.73-6.38L409.17,364C407.35,362.83,400.4,361.59,400.31,363.74Z"/><path class="cls-112" d="M400.63,364.17,399.1,381.4l-1.52,17.23L404.1,421l13.66,8.57,21.14,13.13,2-18.53,2-18.53-7.1-23.78c0-.89-1.49-2.31-2.24-2.78l-10-5.92-14.28-8.24C407.71,363.88,400.71,362.29,400.63,364.17Z"/><path class="cls-113" d="M401,364.61l-1.53,16.55-1.53,16.55,7.19,20.12,12.68,7.94,20.71,12.82,2-17.78L442.57,403l-7.83-21.33c0-.76-1.5-2.1-2.14-2.51l-9.29-5.45-13.87-7.95C408.08,364.93,401,363,401,364.61Z"/><path class="cls-114" d="M401.27,365l-1.54,15.88L398.2,396.8l7.86,17.9L417.77,422,438,434.52l2.08-17,2.09-17-8.55-18.88c0-.63-1.52-1.9-2.06-2.23l-8.56-5-13.45-7.66C408.44,366,401.33,363.7,401.27,365Z"/><path class="cls-115" d="M401.59,365.47l-1.54,15.21-1.55,15.2L407,411.57l10.73,6.68,19.82,12.2,2.12-16.28,2.12-16.28-9.28-16.43c0-.51-1.54-1.7-2-2L422.74,375l-13-7.36C408.8,367,401.63,364.4,401.59,365.47Z"/><path class="cls-116" d="M401.91,365.91l-1.55,14.53L398.81,395,408,408.44l9.74,6,19.38,11.9,2.16-15.53,2.16-15.53-10-14c0-.38-1.56-1.49-1.88-1.69l-7.12-4.08-12.61-7.06C409.17,368.08,401.94,365.1,401.91,365.91Z"/><path class="cls-117" d="M402.23,366.34l-1.56,13.86-1.55,13.85L409,405.31l8.77,5.41,18.93,11.59,2.19-14.78,2.2-14.78-10.73-11.53c0-.25-1.58-1.29-1.8-1.42l-6.39-3.62L410,369.41C409.53,369.13,402.25,365.8,402.23,366.34Z"/><path class="cls-118" d="M402.55,366.77,401,380l-1.56,13.18,10.56,9,7.79,4.78,18.49,11.28,2.23-14,2.23-14-11.46-9.08a13.64,13.64,0,0,0-1.7-1.15l-5.67-3.15-11.78-6.48C409.89,370.18,402.56,366.51,402.55,366.77Z"/><polygon class="cls-119" points="440.36 387.61 421.61 377.41 402.87 367.21 401.3 379.71 399.74 392.22 417.78 403.2 435.83 414.17 438.1 400.89 440.36 387.61"/><polygon class="cls-120" points="398 355.02 314.13 571.89 321.9 569.1 405.77 352.23 398 355.02"/><polygon class="cls-121" points="398.02 355.02 314.15 571.89 308.7 568.81 392.57 351.95 398.02 355.02"/><polygon class="cls-122" points="392.57 351.95 398.02 355.02 405.77 352.23 400.29 349.14 392.57 351.95"/><polygon class="cls-123" points="408.04 459.92 405.78 465.78 413.55 462.98 415.8 457.13 408.04 459.92"/><polygon class="cls-124" points="408.05 459.92 405.8 465.78 364.05 442.47 366.3 436.63 408.05 459.92"/><polygon class="cls-125" points="366.3 436.63 408.05 459.92 415.8 457.13 374.02 433.81 366.3 436.63"/><polygon class="cls-126" points="398.96 483.46 396.7 489.31 404.46 486.51 406.72 480.66 398.96 483.46"/><polygon class="cls-127" points="398.97 483.46 396.71 489.31 354.97 466 357.22 460.16 398.97 483.46"/><polygon class="cls-128" points="357.22 460.16 398.97 483.46 406.72 480.66 364.94 457.35 357.22 460.16"/><polygon class="cls-129" points="389.84 507.08 387.58 512.94 395.35 510.14 397.61 504.29 389.84 507.08"/><polygon class="cls-130" points="389.86 507.08 387.6 512.94 345.85 489.63 348.11 483.79 389.86 507.08"/><polygon class="cls-131" points="348.11 483.79 389.86 507.08 397.61 504.29 355.83 480.98 348.11 483.79"/><polygon class="cls-132" points="380.76 530.62 378.5 536.47 386.27 533.68 388.53 527.82 380.76 530.62"/><polygon class="cls-133" points="380.78 530.62 378.52 536.47 336.77 513.16 339.03 507.33 380.78 530.62"/><polygon class="cls-134" points="339.03 507.33 380.78 530.62 388.53 527.82 346.75 504.51 339.03 507.33"/><polygon class="cls-135" points="435.87 389.25 433.61 395.11 441.38 392.31 443.63 386.45 435.87 389.25"/><polygon class="cls-136" points="435.88 389.25 433.63 395.11 391.88 371.8 394.13 365.96 435.88 389.25"/><polygon class="cls-137" points="394.13 365.96 435.88 389.25 443.63 386.45 401.85 363.14 394.13 365.96"/><polygon class="cls-138" points="426.79 412.79 424.53 418.64 432.3 415.85 434.55 409.99 426.79 412.79"/><polygon class="cls-139" points="426.8 412.79 424.55 418.64 382.8 395.33 385.05 389.49 426.8 412.79"/><polygon class="cls-140" points="385.05 389.49 426.8 412.79 434.55 409.99 392.77 386.68 385.05 389.49"/><polygon class="cls-141" points="417.67 436.41 415.41 442.27 423.18 439.47 425.44 433.62 417.67 436.41"/><polygon class="cls-142" points="417.69 436.41 415.43 442.27 373.68 418.96 375.94 413.12 417.69 436.41"/><polygon class="cls-143" points="375.94 413.12 417.69 436.41 425.44 433.62 383.66 410.31 375.94 413.12"/><polygon class="cls-144" points="371.71 554.06 369.45 559.92 377.22 557.12 379.48 551.27 371.71 554.06"/><polygon class="cls-145" points="371.73 554.06 369.47 559.92 327.73 536.61 329.98 530.77 371.73 554.06"/><polygon class="cls-146" points="329.98 530.77 371.73 554.06 379.48 551.27 337.7 527.96 329.98 530.77"/><polygon class="cls-147" points="362.63 577.6 360.37 583.45 368.14 580.66 370.4 574.8 362.63 577.6"/><polygon class="cls-148" points="362.65 577.6 360.39 583.45 318.65 560.14 320.9 554.3 362.65 577.6"/><polygon class="cls-149" points="320.9 554.3 362.65 577.6 370.4 574.8 328.62 551.49 320.9 554.3"/><polygon class="cls-150" points="445.22 381.42 361.36 598.27 369.12 595.48 452.99 378.63 445.22 381.42"/><polygon class="cls-151" points="445.24 381.42 361.37 598.27 355.93 595.19 439.79 378.35 445.24 381.42"/><polygon class="cls-152" points="439.79 378.35 445.24 381.42 452.99 378.63 447.51 375.54 439.79 378.35"/><path class="cls-98" d="M839.87,780.6l40.77-23.94a7.36,7.36,0,0,0,.05-12.72l-53.81-33-56.49,31.91,31,18.86,31,18.86A7.36,7.36,0,0,0,839.87,780.6Z"/><path class="cls-99" d="M828.17,712.37l-27.76,15.71-27.76,15.71,30.41,18.48,30.19,17.6a7.26,7.26,0,0,0,7.2,0l7.85-4.6,31.81-18.66c4.65-2.69,4.95-9.55.32-12.27Z"/><path class="cls-100" d="M829.47,713.79l-27.28,15.47-27.28,15.46,29.79,18.1,29.35,16.35a7.17,7.17,0,0,0,7-.13l7.63-4.47,30.92-18.12c4.42-2.55,5-9.22.58-11.81Z"/><path class="cls-101" d="M830.77,715.21,804,730.43l-26.8,15.21,29.17,17.73,28.51,15.1a7.09,7.09,0,0,0,6.76-.21l7.41-4.33,30-17.59c4.18-2.41,5-8.9.85-11.35Z"/><path class="cls-102" d="M832.07,716.64l-26.32,15-26.33,15L808,763.92l27.67,13.84a7,7,0,0,0,6.54-.28l7.19-4.2,29.14-17c4-2.28,5.05-8.59,1.11-10.9Z"/><path class="cls-103" d="M833.37,718.06l-25.85,14.72L781.68,747.5l27.94,17,26.83,12.58c1.74,1,4.57.65,6.32-.36l7-4.07L878,756.13c3.72-2.15,5.08-8.26,1.38-10.44Z"/><path class="cls-104" d="M834.67,719.48,809.3,734l-25.36,14.48L811.26,765l26,11.33c1.63,1,4.46.51,6.1-.44L850.1,772l27.35-16c3.49-2,5.13-7.95,1.65-10Z"/><path class="cls-105" d="M836,720.9l-24.88,14.22L786.2,749.35l26.7,16.23,25.15,10.07c1.52.9,4.35.38,5.88-.51l6.53-3.8,26.46-15.42c3.26-1.88,5.16-7.63,1.92-9.53Z"/><path class="cls-106" d="M837.26,722.32l-24.4,14-24.4,14,26.08,15.85L838.85,775c1.41.83,4.24.24,5.66-.59l6.31-3.67,25.57-14.87c3-1.75,5.2-7.31,2.19-9.08Z"/><path class="cls-107" d="M838.56,723.74l-23.92,13.73-23.92,13.74,25.46,15.47,23.46,7.56c1.31.77,4.14.1,5.45-.66l6.09-3.53,24.68-14.34c2.79-1.61,5.23-7,2.45-8.62Z"/><path class="cls-108" d="M839.86,725.16l-23.44,13.49L793,752.14l24.85,15.09,22.62,6.31c1.2.71,4,0,5.23-.74l5.87-3.4,23.79-13.79c2.56-1.48,5.26-6.67,2.72-8.17Z"/><path class="cls-109" d="M841.16,726.58l-23,13.24-23,13.24,24.23,14.72,21.78,5.06c1.09.64,3.92-.18,5-.82l5.65-3.26,22.9-13.26c2.32-1.34,5.3-6.35,3-7.71Z"/><path class="cls-110" d="M842.46,728,820,741l-22.48,13,23.61,14.35L842,772.13c1,.58,3.8-.32,4.79-.89l5.43-3.13,22-12.71c2.09-1.21,5.33-6,3.25-7.26Z"/><path class="cls-111" d="M843.75,729.42l-22,12.75-22,12.75,23,14,20.11,2.54c.87.51,3.69-.46,4.57-1l5.21-3,21.12-12.17c1.86-1.07,5.37-5.71,3.51-6.8Z"/><path class="cls-112" d="M845.05,730.84l-21.52,12.5L802,755.84l22.36,13.6,19.27,1.29c.76.45,3.58-.6,4.35-1.05l5-2.86,20.23-11.63c1.62-.94,5.4-5.4,3.78-6.35Z"/><path class="cls-113" d="M846.35,732.26l-21,12.25-21,12.26L826,770l18.43,0c.65.39,3.47-.74,4.13-1.12l4.77-2.73,19.33-11.09c1.4-.8,5.44-5.08,4.05-5.89Z"/><path class="cls-114" d="M847.65,733.68l-20.56,12-20.57,12,21.13,12.84,17.58-1.22c.55.32,3.37-.88,3.92-1.2l4.55-2.6L872.14,755c1.17-.67,5.48-4.76,4.32-5.44Z"/><path class="cls-115" d="M849,735.1l-20.09,11.76-20.08,11.77,20.51,12.46L846,768.62c.44.25,3.26-1,3.7-1.28l4.32-2.46,17.56-10c.93-.54,5.51-4.44,4.59-5Z"/><path class="cls-116" d="M850.25,736.52,830.64,748,811,759.55l19.89,12.09,15.9-3.73c.33.2,3.15-1.16,3.48-1.35l4.1-2.33,16.67-9.46c.7-.41,5.55-4.13,4.85-4.53Z"/><path class="cls-117" d="M851.54,737.94l-19.12,11.27L813.3,760.48l19.27,11.72,15.06-5a17.78,17.78,0,0,0,3.26-1.43l3.88-2.2,15.78-8.92c.47-.27,5.58-3.8,5.12-4.07Z"/><path class="cls-118" d="M852.84,739.36l-18.64,11-18.64,11,18.65,11.34,14.22-6.24a33,33,0,0,0,3-1.51l3.66-2.06L870,754.56c.23-.14,5.61-3.49,5.38-3.62Z"/><polygon class="cls-119" points="835.85 773.3 855.49 762.29 875.14 751.28 854.14 740.78 835.98 751.56 817.82 762.34 835.85 773.3"/><path class="cls-98" d="M784.5,642.31l20.15-12.38,20.14-12.38A7.36,7.36,0,0,1,836,623.48l3.07,28.07,3.07,28.08-27.35,17.44-27.34,17.44-3.22-32.82-3.22-32.83A7.33,7.33,0,0,1,784.5,642.31Z"/><path class="cls-99" d="M805,630.56l19.72-12.08c4.56-2.84,10.84.09,11.07,5.46l3,27.07,3,27.08L815,695.17,788,712.26l-3.31-31.92-2.61-31.51a7.19,7.19,0,0,1,3.4-6.3Z"/><path class="cls-100" d="M805.39,631.19l19.31-11.78c4.33-2.71,10.66-.12,10.88,5l3,26.08,3,26.09-26.51,16.72L788.58,710l-3.41-31-2-30.19a7.06,7.06,0,0,1,3.34-6Z"/><path class="cls-101" d="M805.76,631.83l18.89-11.5c4.1-2.56,10.5-.32,10.7,4.51l3,25.09,3,25.09-26.09,16.37-26.09,16.36-3.51-30.1-1.39-28.89a6.9,6.9,0,0,1,3.29-5.79Z"/><path class="cls-102" d="M806.14,632.46l18.47-11.2c3.87-2.42,10.32-.53,10.51,4l3,24.09,2.95,24.1-25.67,16-25.67,16-3.61-29.2-.78-27.57a6.75,6.75,0,0,1,3.23-5.54Z"/><path class="cls-103" d="M806.51,633.09l18-10.9c3.64-2.28,10.15-.73,10.33,3.56l2.92,23.1,2.91,23.1L815.48,687.6l-25.25,15.64L786.52,675l-.16-26.25a6.59,6.59,0,0,1,3.17-5.29Z"/><path class="cls-104" d="M806.88,633.72l17.63-10.6c3.42-2.14,10-.94,10.15,3.08l2.89,22.11,2.88,22.11L815.6,685.7,790.78,701,787,673.61l.45-25c-.08-1.89,1.5-4,3.11-5Z"/><path class="cls-105" d="M807.25,634.35,824.47,624c3.19-2,9.8-1.14,10,2.62l2.86,21.11,2.85,21.11-24.41,14.93-24.4,14.93-3.91-26.48,1.06-23.63c-.08-1.77,1.55-3.84,3-4.78Z"/><path class="cls-106" d="M807.62,635l16.8-10c3-1.85,9.63-1.35,9.78,2.14L837,647.23l2.82,20.11-24,14.57-24,14.57-4-25.57,1.67-22.31c-.07-1.64,1.61-3.66,3-4.53Z"/><path class="cls-107" d="M808,635.62l16.37-9.72c2.74-1.71,9.46-1.56,9.6,1.66l2.79,19.13,2.8,19.12L816,680l-23.57,14.21-4.1-24.66,2.28-21c-.06-1.51,1.66-3.47,2.94-4.27Z"/><path class="cls-108" d="M808.37,636.25l16-9.43c2.5-1.56,9.28-1.76,9.41,1.2l2.76,18.12,2.77,18.13-23.15,13.86L793,692l-4.2-23.76,2.9-19.69c-.06-1.39,1.7-3.28,2.88-4Z"/><path class="cls-109" d="M808.74,636.88l15.54-9.13c2.28-1.42,9.12-2,9.23.72l2.73,17.13L839,662.74l-22.72,13.49-22.73,13.49-4.3-22.85,3.51-18.37c-.06-1.26,1.75-3.1,2.82-3.77Z"/><path class="cls-110" d="M809.11,637.51l15.12-8.83c2.06-1.28,8.95-2.17,9,.24l2.7,16.14,2.7,16.14-22.3,13.14-22.31,13.13-4.4-21.94,4.12-17.07c0-1.13,1.8-2.9,2.77-3.51Z"/><path class="cls-111" d="M809.48,638.15l14.71-8.54c1.82-1.14,8.77-2.38,8.86-.24l2.67,15.15,2.67,15.15L816.5,672.44l-21.88,12.78-4.5-21,4.73-15.75c0-1,1.85-2.72,2.71-3.26Z"/><path class="cls-112" d="M809.86,638.78l14.28-8.25c1.6-1,8.6-2.58,8.68-.7L835.46,644l2.64,14.15-21.47,12.42L795.17,683l-4.6-20.13,5.34-14.43c0-.89,1.9-2.54,2.65-3Z"/><path class="cls-113" d="M810.23,639.41l13.87-7.95c1.36-.85,8.42-2.79,8.49-1.18l2.61,13.16,2.61,13.16-21,12-21,12.06L791,661.49l6-13.13c0-.75,1.95-2.34,2.59-2.74Z"/><path class="cls-114" d="M810.6,640l13.45-7.65c1.14-.71,8.25-3,8.31-1.66l2.58,12.17,2.58,12.16-20.63,11.7-20.63,11.7-4.79-18.32L798,648.33c0-.63,2-2.16,2.53-2.49Z"/><path class="cls-115" d="M811,640.67l13-7.36c.91-.56,8.08-3.2,8.13-2.12l2.55,11.17,2.54,11.17L817,664.86,796.81,676.2l-4.89-17.41,7.18-10.49c0-.51,2-2,2.48-2.24Z"/><path class="cls-116" d="M811.35,641.31,824,634.24c.68-.43,7.9-3.4,7.94-2.6l2.52,10.18L836.93,652l-19.78,11-19.79,11-5-16.5,7.79-9.19c0-.37,2.1-1.78,2.42-2Z"/><path class="cls-117" d="M811.72,641.94l12.19-6.77c.46-.29,7.74-3.61,7.76-3.08l2.49,9.19,2.48,9.18-19.37,10.62L797.91,671.7l-5.09-15.6,8.4-7.87a12.38,12.38,0,0,1,2.37-1.73Z"/><path class="cls-118" d="M812.09,642.57l11.77-6.47c.23-.15,7.57-3.82,7.58-3.55l2.45,8.18,2.46,8.19-19,10.26-18.94,10.26-5.19-14.69,9-6.55a22.85,22.85,0,0,1,2.31-1.48Z"/><polygon class="cls-119" points="793.72 653.4 812.46 643.2 831.21 633 836.06 647.38 817.53 657.29 799.01 667.19 793.72 653.4"/><polygon class="cls-153" points="834.34 625.24 882.84 753.89 875.07 751.09 826.57 622.44 834.34 625.24"/><polygon class="cls-154" points="834.32 625.24 882.82 753.89 888.26 750.8 839.77 622.17 834.32 625.24"/><polygon class="cls-155" points="839.77 622.17 834.32 625.24 826.57 622.44 832.05 619.36 839.77 622.17"/><polygon class="cls-156" points="798.01 665.45 800.27 671.3 792.5 668.51 790.24 662.65 798.01 665.45"/><polygon class="cls-157" points="797.99 665.45 800.25 671.3 842 647.99 839.75 642.15 797.99 665.45"/><polygon class="cls-158" points="839.75 642.15 797.99 665.45 790.24 662.65 832.02 639.34 839.75 642.15"/><polygon class="cls-159" points="807.13 689.07 809.39 694.93 801.62 692.13 799.36 686.28 807.13 689.07"/><polygon class="cls-160" points="807.11 689.07 809.37 694.93 851.12 671.62 848.86 665.78 807.11 689.07"/><polygon class="cls-161" points="848.86 665.78 807.11 689.07 799.36 686.28 841.14 662.97 848.86 665.78"/><polygon class="cls-162" points="816.21 712.61 818.47 718.46 810.7 715.67 808.44 709.81 816.21 712.61"/><polygon class="cls-163" points="816.19 712.61 818.45 718.47 860.2 695.16 857.94 689.32 816.19 712.61"/><polygon class="cls-164" points="857.94 689.32 816.19 712.61 808.44 709.81 850.22 686.5 857.94 689.32"/><polygon class="cls-165" points="825.25 736.05 827.51 741.91 819.75 739.11 817.49 733.26 825.25 736.05"/><polygon class="cls-166" points="825.24 736.05 827.5 741.91 869.24 718.6 866.99 712.76 825.24 736.05"/><polygon class="cls-167" points="866.99 712.76 825.24 736.05 817.49 733.26 859.27 709.95 866.99 712.76"/><polygon class="cls-168" points="834.34 759.59 836.59 765.44 828.83 762.65 826.57 756.79 834.34 759.59"/><polygon class="cls-169" points="834.32 759.59 836.58 765.44 878.32 742.13 876.07 736.29 834.32 759.59"/><polygon class="cls-170" points="876.07 736.29 834.32 759.59 826.57 756.79 868.35 733.48 876.07 736.29"/><polygon class="cls-171" points="787.12 651.64 835.61 780.26 827.84 777.47 779.36 648.85 787.12 651.64"/><polygon class="cls-172" points="787.11 651.64 835.59 780.27 841.04 777.18 792.56 648.57 787.11 651.64"/><polygon class="cls-173" points="792.56 648.57 787.11 651.64 779.36 648.85 784.84 645.76 792.56 648.57"/><path class="cls-174" d="M387.41,393.49c-.25,3.63,3.1,6.81,7.47,7.11s8.13-2.39,8.38-6-3.1-6.8-7.48-7.1S387.66,389.87,387.41,393.49Z"/><path class="cls-175" d="M397.49,449.22a15.06,15.06,0,0,1,2.32-2c.64-.28,1-.56,1.73-.24s-.12,1.56-.12,1.56.64-1.32,1.28-1.08.68.6.64.76-.2.92-.2.92.8-.84,1.49-.56.48,1.16.48,1.16l-.24.45s.8-.69,1.4-.08-.36,2.48-.8,3.33a30.07,30.07,0,0,1-3.77,5.41c-1.53,1.56-3.69,3.41-3.69,3.41s-4.9-5.05-4.7-6.78a6.82,6.82,0,0,0-.44-3.89,25.92,25.92,0,0,0-2.44-3.33c-.93-.92-.57-1.76,1.24-1.24s2.77,2.48,3.45,3.09S397,449.74,397.49,449.22Z"/><path class="cls-176" d="M404.14,451.39a4,4,0,0,1,.45-1,4.88,4.88,0,0,0,.45-1.32,1.55,1.55,0,0,1,.07.71l-.18.33A4.49,4.49,0,0,0,404.14,451.39Z"/><path class="cls-177" d="M402.34,450.39a8.1,8.1,0,0,1,.7-1.3c-.1.24-.18.45-.18.45a4.46,4.46,0,0,1,1.09-.83A6.26,6.26,0,0,0,402.34,450.39Z"/><path class="cls-178" d="M404.67,453.35a8,8,0,0,0,1.45-2.13v0c0,.21-.08.48-.13.78a7.41,7.41,0,0,1-.51,1.46,30.07,30.07,0,0,1-3.77,5.41c-.64.66-1.39,1.35-2.05,1.95a.33.33,0,0,0-.14-.1,8.4,8.4,0,0,1,.54-1.49A56.87,56.87,0,0,1,404.67,453.35Z"/><path class="cls-179" d="M405.16,449.9h0Z"/><path class="cls-180" d="M400.73,449.42a12.37,12.37,0,0,0,.81-1.52,4.4,4.4,0,0,0,.24-.62,1.36,1.36,0,0,1-.19,1C401.79,448,400.73,449.42,400.73,449.42Z"/><path class="cls-181" d="M382.84,395.25c1.55-1,9.94,6.84,6.08,9.06S379.42,397.54,382.84,395.25Z"/><path class="cls-182" d="M355,419.28c2.47-4.48,5.16-6.74,11.09-10.63S383.94,398.1,385.27,396a53.79,53.79,0,0,1,4.83-6.88,16.9,16.9,0,0,1,3.82-2.43,6.88,6.88,0,0,1,3-.78c1.65.12-.11,1.19-1.19,1.77-.87.47-2.42,1.52-2.42,1.52l2.12-1.31a9,9,0,0,1,3.72-1.28c1.06-.13,3.1.57,1,1.31a18.47,18.47,0,0,0-3,1.51C394.67,390.87,395,391,395,391s1.23-.85,2.89-1.85a15.33,15.33,0,0,1,3.93-1.17c1.22-.3,3.18,1,1,1.67a11.17,11.17,0,0,0-3.24,1.32c-1,.59-2.23,1.55-2.23,1.55l2-1.2c1.37-.82,1.94-.65,3.69-1.11s3.35.7,1.06,1.77a40.83,40.83,0,0,0-4,2c-1.21.71-2.76,1.59-2.67,2.39s.68.14,2.2-.33,3.65.61,3.75,1.22-1.44.77-2.84,1-3.31,2.1-5.43,2.48-3.48.5-4.18.75a99.39,99.39,0,0,0-12.35,8.92A108.74,108.74,0,0,1,365,419.94Z"/><path class="cls-183" d="M383.56,396.83a11,11,0,0,0,2,3.92,8.27,8.27,0,0,0,3.17,2.29l-5,4.31-4.6-7.92Z"/><path class="cls-184" d="M382.84,395.25c-.31,2.86,2.36,8.51,6.59,8.52,1.18,0-6.38,6-8.5,8.56-3.07,3.65-11.5,13.76-14.55,16.54s-24.95-2.08-24.24-7.85,4.66-6,10.3-6.53,8.13,1.75,12.25-2.11S382.93,394.4,382.84,395.25Z"/><path class="cls-69" d="M345.7,543.91s-2.57,4-1,5.37a8.68,8.68,0,0,0,6.78,2.22c2.53-.42,3.72-1.19,6.13-.58s13-1.63,15.35-3.45,1.24-4.89-3.33-5.69-11.14-1.9-12.38-1.79S345.7,543.91,345.7,543.91Z"/><path class="cls-185" d="M346.9,547.63c4.08,1.57,5.73.74,9.81.93s16.28-1.5,16.7-4-2.24-2.64-4.44-3-9.14-1.6-9.68-1.74-12.93,2.07-12.93,2.07-1.72,3.41-1.12,4.13S345.79,547.21,346.9,547.63Z"/><path class="cls-186" d="M341.25,500.22l16.57,5.7s-5.88,12.53-7.47,17.67-6.15,20.57-3.72,22.11,13.27-.54,14.61-1.81a7.26,7.26,0,0,0,2-5.29c-.24-1.44,2-10.81,5.9-16.7S381.05,504,377.79,496s-26.22-18.42-26.22-18.42Z"/><path class="cls-67" d="M341.25,500.22l16.57,5.7s-5.88,12.53-7.47,17.67-6.15,20.57-3.72,22.11c.94.59,3.11.64,5.51.42-.27-5.53-.3-14.63,1.9-19.81,3.31-7.81,12.84-20.89,12.84-20.89l-21.62-14Z"/><path class="cls-69" d="M314.18,558.9s-1.63,3.31-1.23,4.92,3.36,3.46,6.2,2.73,4.51-3.14,5.63-3.64,6.77,0,11.61-2.62,5.07-6.6,1-7.52-12-.58-15,.62S314.18,558.9,314.18,558.9Z"/><path class="cls-187" d="M315.36,563.08c2.82,1.22,7.1-.57,9.15-1.68s5,.3,9.59-2,6.47-4.2,4.87-5.62-8.26-2.49-14-.76-9.6,3-9.6,3-2.05,3.58-1.59,4.54S313.75,562.38,315.36,563.08Z"/><path class="cls-188" d="M333.51,475a69,69,0,0,0-5.15,21.21c-1,12.25-8.25,35.75-10.53,44.12s-7.37,18.19-3.5,21.22c2.22,1.75,6.8,2,11.08-1.31s5.81-7,5.54-7.81-.23-4.2,2.58-10.93,9.06-23.24,10-28.83S354,480.45,354,480.45Z"/><path class="cls-67" d="M343.53,512.67c-.94,5.59-7.19,22.1-10,28.83s-2.85,10.11-2.58,10.93-1.27,4.54-5.54,7.81a12.4,12.4,0,0,1-5,2.35c2.07-2.51,5.49-7.85,7.47-17.46,3-14.45,9.79-32.25,12.28-42.21,1.46-5.84,2.38-17.25,3.86-24.4l10,1.93S344.46,507.07,343.53,512.67Z"/><path class="cls-189" d="M376.2,389.84c2.52,1.89,4.91,4.71,3.71,11.74s-1.76,10.4-3.33,11-2.45-.46-3.1,1.45a21.56,21.56,0,0,0-.71,5.23L358.16,413a7.38,7.38,0,0,0,1-5c-.5-2.71-4-8.45.76-15S373.21,387.6,376.2,389.84Z"/><path class="cls-190" d="M381,396.91c-.21,1.35-1.44,3.36-3.36,3.14a2.89,2.89,0,0,0-3,3c.22,1.13-.11,1.35-.11,1.35s-1.3-.82-2.14.18-.46,3.54-.21,4.53-3.44,3.19-6.07,2.91-6.08-1.23-6.94-2.78a14.8,14.8,0,0,1-1.32-13.67c2.83-6.86,10.22-9.88,16.09-7.53S381.24,395,381,396.91Z"/><path class="cls-191" d="M374.52,423.72s-.56-6.08-3.86-7.43-6.39-1.51-8.5-3a9.25,9.25,0,0,1-3-3.69s-2.78.22-1.27,3S374.52,423.72,374.52,423.72Z"/><path class="cls-192" d="M362.83,415.89a38.9,38.9,0,0,1-5.87-4.24,62,62,0,0,0-7.72-1.11,8.07,8.07,0,0,0-8.36,7,116.58,116.58,0,0,0-.51,19.94c.35,7.68-.73,13-3.46,20.09s-10.42,22.33-10.4,24.14,2.82,8.81,11.38,13.78,23.68,8.64,31.19,2.74c6.78-5.33,2.11-19.51,5.13-38.4,1.92-12,8.15-21.48,4.28-28.6s-8.84-11.91-11.9-13.36A34,34,0,0,1,362.83,415.89Z"/><path class="cls-67" d="M374.89,424.2c-1.1-2.24-3.54-5.46-6.2-6.33s-7.73-2.94-9.24-4.57c-1.73-1.86-1.72-3.15-1.72-3.15l-4.39.73s-1.28,4.82,4.13,7.67,11.89,4,15.6,7.21a40.58,40.58,0,0,1,5.51,5.75Z"/><path class="cls-193" d="M374.89,424.2c-1.1-2.24-3.54-5.46-6.2-6.33s-7.73-2.94-9.24-4.57c-1.73-1.86-1.72-3.15-1.72-3.15l-4.39.73s-.7,4,4.71,6.85,12.81,4.76,15.93,8.19a57.1,57.1,0,0,1,4.6,5.59Z"/><path class="cls-194" d="M353.79,410.81c-.06.83,0,4.18,4.72,6.66,5.41,2.84,12.81,4.76,15.93,8.18,1.18,1.29,2.12,2.4,2.83,3.28l1.31,2.58a57.1,57.1,0,0,0-4.6-5.59c-3.12-3.43-10.52-5.34-15.93-8.19s-4.71-6.85-4.71-6.85Z"/><path class="cls-67" d="M366.44,433.38c5-5.11,9.83.66,13.15,5.4-.83,4-4.21,13.69-5.38,21-3,18.89,1.65,33.07-5.13,38.4-3.62,2.85-9,3.46-14.6,2.78a75,75,0,0,0,2.89-9.43c2.41-10.16.42-16.43,1.79-30.44S359.87,440,366.44,433.38Z"/><path class="cls-67" d="M357.56,396.11a15.84,15.84,0,0,0,6.64,4.38,24.48,24.48,0,0,0,10.56,1.38,2.09,2.09,0,0,0-.2,1.16c.22,1.13-.11,1.35-.11,1.35s-1.3-.82-2.14.18-.46,3.54-.21,4.53-3.44,3.19-6.07,2.91-6.08-1.23-6.94-2.78A14.89,14.89,0,0,1,357.56,396.11Z"/><path class="cls-195" d="M370.69,429.06c-5.25.69-9.42,5.38-7.45,12.11s10.14,23.89,14,27.51,8.28,4.65,13.14,2,10-4.65,10.44-8.69-4.34-8-6.82-8.06-6.83,2.48-8,1.55-4.44-13.34-5.68-17.48S377,428.24,370.69,429.06Z"/></g></g></svg>